<?xml version="1.0" encoding="UTF-8"?>
<!DOCTYPE score-partwise PUBLIC "-//Recordare//DTD MusicXML 3.0.1 Partwise//EN" "http://www.musicxml.org/dtds/partwise.dtd">
<score-partwise version="3.0.1">
  <movement-number>2</movement-number>
  <movement-title>[Audiveris detected movement]</movement-title>
  <identification>
    <encoding>
      <software>Audiveris 5.0.0</software>
      <supports type="yes" element="print" attribute="new-system" value="yes"></supports>
      <supports type="yes" element="print" attribute="new-page" value="yes"></supports>
      <software>ProxyMusic 3.0.1.8e1a2c5</software>
      <encoding-date>2017-10-06</encoding-date>
    </encoding>
    <source>/Users/stephenn/Documents/workspace/nlsomr/working/91388052.jpg</source>
    <miscellaneous>
      <miscellaneous-field name="source-file">/Users/stephenn/Documents/workspace/nlsomr/working/91388052.jpg</miscellaneous-field>
      <miscellaneous-field name="source-sheet-1">3 4 5 6</miscellaneous-field>
    </miscellaneous>
  </identification>
  <defaults>
    <scaling>
      <millimeters>5.4187</millimeters>
      <tenths>40</tenths>
    </scaling>
    <page-layout>
      <page-height>1910</page-height>
      <page-width>1250</page-width>
      <page-margins type="both">
        <left-margin>80</left-margin>
        <right-margin>80</right-margin>
        <top-margin>80</top-margin>
        <bottom-margin>80</bottom-margin>
      </page-margins>
    </page-layout>
    <lyric-font font-family="Serif" font-size="10"></lyric-font>
  </defaults>
  <part-list>
    <score-part id="P1">
      <part-name>0.</part-name>
      <score-instrument id="P1-I1">
        <instrument-name>Acoustic Grand Piano</instrument-name>
      </score-instrument>
      <midi-instrument id="P1-I1">
        <midi-channel>1</midi-channel>
        <midi-program>1</midi-program>
        <volume>78</volume>
      </midi-instrument>
    </score-part>
  </part-list>
  <!--= = = = = = = = = = = = = = = = = = = = = = = = = = = = =-->
  <part id="P1">
    <!--=======================================================-->
    <measure number="0" implicit="yes" width="216">
      <print>
        <system-layout>
          <system-margins>
            <left-margin>143</left-margin>
            <right-margin>36</right-margin>
          </system-margins>
          <top-system-distance>672</top-system-distance>
        </system-layout>
        <staff-layout number="2">
          <staff-distance>76</staff-distance>
        </staff-layout>
        <measure-numbering>system</measure-numbering>
      </print>
      <attributes>
        <divisions>8</divisions>
        <key number="1">
          <fifths>3</fifths>
        </key>
        <time>
          <beats>3</beats>
          <beat-type>4</beat-type>
        </time>
        <staves>2</staves>
        <clef number="1">
          <sign>G</sign>
          <line>3</line>
        </clef>
        <staff-details print-object="yes"></staff-details>
      </attributes>
      <direction>
        <direction-type>
          <words></words>
        </direction-type>
        <sound tempo="120"></sound>
      </direction>
      <direction placement="below">
        <direction-type>
          <dynamics default-y="-81" relative-x="-13">
            <p/>
          </dynamics>
        </direction-type>
        <staff>1</staff>
        <sound dynamics="56"></sound>
      </direction>
      <direction placement="above">
        <direction-type>
          <words default-y="35" relative-x="-51" font-family="serif" font-style="italic" font-size="9" font-weight="bold">Con amabilitu.</words>
        </direction-type>
        <staff>1</staff>
      </direction>
      <note default-x="152">
        <pitch>
          <step>C</step>
          <alter>1</alter>
          <octave>5</octave>
        </pitch>
        <duration>4</duration>
        <voice>1</voice>
        <type>eighth</type>
        <stem default-y="-47">down</stem>
        <staff>1</staff>
        <beam number="1">begin</beam>
      </note>
      <note default-x="181">
        <pitch>
          <step>C</step>
          <alter>1</alter>
          <octave>5</octave>
        </pitch>
        <duration>4</duration>
        <voice>1</voice>
        <type>eighth</type>
        <stem default-y="-47">down</stem>
        <staff>1</staff>
        <beam number="1">end</beam>
      </note>
    </measure>
    <!--=======================================================-->
    <measure number="1" width="175">
      <note default-x="22">
        <pitch>
          <step>C</step>
          <alter>1</alter>
          <octave>5</octave>
        </pitch>
        <duration>8</duration>
        <voice>1</voice>
        <type>quarter</type>
        <stem default-y="24">up</stem>
        <staff>1</staff>
        <notations>
          <slur type="start" number="1" bezier-x="33" bezier-y="11" default-x="22" default-y="25" placement="above"></slur>
        </notations>
      </note>
      <direction placement="above">
        <direction-type>
          <words default-y="43" relative-x="7" font-family="serif" font-size="8" font-weight="bold">(Name Unknown.)</words>
        </direction-type>
        <staff>1</staff>
      </direction>
      <note default-x="74">
        <pitch>
          <step>E</step>
          <octave>5</octave>
        </pitch>
        <duration>4</duration>
        <voice>1</voice>
        <type>eighth</type>
        <stem default-y="27">up</stem>
        <staff>1</staff>
        <beam number="1">begin</beam>
      </note>
      <note default-x="101">
        <pitch>
          <step>C</step>
          <alter>1</alter>
          <octave>5</octave>
        </pitch>
        <duration>4</duration>
        <voice>1</voice>
        <type>eighth</type>
        <stem default-y="20">up</stem>
        <staff>1</staff>
        <beam number="1">end</beam>
      </note>
      <direction placement="above">
        <direction-type>
          <words default-y="74" relative-x="4" font-family="serif" font-size="13" font-weight="bold">Air.</words>
        </direction-type>
        <staff>1</staff>
      </direction>
      <note default-x="129">
        <pitch>
          <step>B</step>
          <octave>4</octave>
        </pitch>
        <duration>8</duration>
        <voice>1</voice>
        <type>quarter</type>
        <stem default-y="13">up</stem>
        <staff>1</staff>
        <notations>
          <slur type="stop" number="1" bezier-x="-31" bezier-y="18" default-x="9" default-y="17"></slur>
        </notations>
      </note>
      <backup>
        <duration>24</duration>
      </backup>
      <forward>
        <duration>8</duration>
        <voice>2</voice>
        <staff>1</staff>
      </forward>
      <note default-x="76">
        <pitch>
          <step>E</step>
          <octave>4</octave>
        </pitch>
        <duration>8</duration>
        <voice>2</voice>
        <type>quarter</type>
        <stem default-y="-77">down</stem>
        <staff>1</staff>
      </note>
      <note default-x="130">
        <pitch>
          <step>E</step>
          <octave>4</octave>
        </pitch>
        <duration>8</duration>
        <voice>2</voice>
        <type>quarter</type>
        <stem default-y="-75">down</stem>
        <staff>1</staff>
      </note>
      <backup>
        <duration>24</duration>
      </backup>
      <note default-x="22">
        <pitch>
          <step>F</step>
          <octave>4</octave>
        </pitch>
        <duration>16</duration>
        <voice>3</voice>
        <type>half</type>
        <stem default-y="1">up</stem>
        <staff>2</staff>
        <notations>
          <slur type="start" number="1" bezier-x="27" bezier-y="21" default-x="20" default-y="10" placement="above"></slur>
          <slur type="continue" number="1" bezier-x="-31" bezier-y="7" default-x="108" default-y="29"></slur>
        </notations>
      </note>
      <backup>
        <duration>16</duration>
      </backup>
      <note default-x="22">
        <pitch>
          <step>F</step>
          <octave>4</octave>
        </pitch>
        <duration>4</duration>
        <voice>4</voice>
        <type>eighth</type>
        <stem default-y="-73">down</stem>
        <staff>2</staff>
        <beam number="1">begin</beam>
      </note>
      <note default-x="52">
        <pitch>
          <step>C</step>
          <octave>5</octave>
        </pitch>
        <duration>4</duration>
        <voice>4</voice>
        <type>eighth</type>
        <stem default-y="-67">down</stem>
        <staff>2</staff>
        <beam number="1">continue</beam>
      </note>
      <note default-x="76">
        <pitch>
          <step>B</step>
          <octave>5</octave>
        </pitch>
        <duration>6</duration>
        <voice>4</voice>
        <type>eighth</type>
        <dot/>
        <stem default-y="-62">down</stem>
        <staff>2</staff>
        <beam number="1">continue</beam>
      </note>
      <note default-x="102">
        <pitch>
          <step>C</step>
          <octave>5</octave>
        </pitch>
        <duration>4</duration>
        <tie type="start"></tie>
        <voice>4</voice>
        <type>eighth</type>
        <stem default-y="-55">down</stem>
        <staff>2</staff>
        <beam number="1">end</beam>
        <notations>
          <tied type="start" orientation="under"></tied>
        </notations>
      </note>
    </measure>
    <!--=======================================================-->
    <measure number="2" width="168">
      <note default-x="16">
        <pitch>
          <step>C</step>
          <alter>1</alter>
          <octave>5</octave>
        </pitch>
        <duration>8</duration>
        <voice>1</voice>
        <type>quarter</type>
        <stem default-y="22">up</stem>
        <staff>1</staff>
        <notations>
          <slur type="start" number="2" bezier-x="31" bezier-y="15" default-x="18" default-y="26" placement="above"></slur>
        </notations>
      </note>
      <note default-x="70">
        <pitch>
          <step>E</step>
          <octave>5</octave>
        </pitch>
        <duration>4</duration>
        <voice>1</voice>
        <type>eighth</type>
        <stem default-y="29">up</stem>
        <staff>1</staff>
        <beam number="1">begin</beam>
      </note>
      <note default-x="98">
        <pitch>
          <step>C</step>
          <alter>1</alter>
          <octave>5</octave>
        </pitch>
        <duration>4</duration>
        <voice>1</voice>
        <type>eighth</type>
        <stem default-y="22">up</stem>
        <staff>1</staff>
        <beam number="1">end</beam>
      </note>
      <note default-x="123">
        <pitch>
          <step>B</step>
          <octave>4</octave>
        </pitch>
        <duration>8</duration>
        <voice>1</voice>
        <type>quarter</type>
        <stem default-y="17">up</stem>
        <staff>1</staff>
        <notations>
          <slur type="stop" number="2" bezier-x="-28" bezier-y="20" default-x="8" default-y="17"></slur>
        </notations>
      </note>
      <backup>
        <duration>24</duration>
      </backup>
      <forward>
        <duration>8</duration>
        <voice>2</voice>
        <staff>1</staff>
      </forward>
      <note default-x="70">
        <pitch>
          <step>E</step>
          <octave>4</octave>
        </pitch>
        <duration>8</duration>
        <voice>2</voice>
        <type>quarter</type>
        <stem default-y="-75">down</stem>
        <staff>1</staff>
      </note>
      <note default-x="123">
        <pitch>
          <step>E</step>
          <octave>4</octave>
        </pitch>
        <duration>8</duration>
        <voice>2</voice>
        <type>quarter</type>
        <stem default-y="-73">down</stem>
        <staff>1</staff>
      </note>
      <backup>
        <duration>24</duration>
      </backup>
      <note default-x="16">
        <pitch>
          <step>F</step>
          <octave>4</octave>
        </pitch>
        <duration>16</duration>
        <voice>3</voice>
        <type>half</type>
        <stem default-y="1">up</stem>
        <staff>2</staff>
        <notations>
          <slur type="start" number="2" bezier-x="28" bezier-y="25" default-x="16" default-y="8" placement="above"></slur>
        </notations>
      </note>
      <backup>
        <duration>16</duration>
      </backup>
      <note default-x="16">
        <pitch>
          <step>F</step>
          <octave>4</octave>
        </pitch>
        <duration>4</duration>
        <voice>4</voice>
        <type>eighth</type>
        <stem default-y="-77">down</stem>
        <staff>2</staff>
        <beam number="1">begin</beam>
      </note>
      <note default-x="44">
        <pitch>
          <step>C</step>
          <octave>5</octave>
        </pitch>
        <duration>4</duration>
        <voice>4</voice>
        <type>eighth</type>
        <stem default-y="-70">down</stem>
        <staff>2</staff>
        <beam number="1">continue</beam>
      </note>
      <note default-x="72">
        <pitch>
          <step>B</step>
          <octave>5</octave>
        </pitch>
        <duration>6</duration>
        <voice>4</voice>
        <type>eighth</type>
        <dot/>
        <stem default-y="-63">down</stem>
        <staff>2</staff>
        <beam number="1">continue</beam>
      </note>
      <note default-x="99">
        <pitch>
          <step>C</step>
          <octave>5</octave>
        </pitch>
        <duration>4</duration>
        <tie type="start"></tie>
        <voice>4</voice>
        <type>eighth</type>
        <stem default-y="-57">down</stem>
        <staff>2</staff>
        <beam number="1">end</beam>
        <notations>
          <tied type="start" orientation="under"></tied>
        </notations>
      </note>
      <note default-x="124">
        <pitch>
          <step>C</step>
          <octave>5</octave>
        </pitch>
        <duration>8</duration>
        <tie type="stop"></tie>
        <voice>4</voice>
        <type>quarter</type>
        <stem default-y="-49">down</stem>
        <staff>2</staff>
        <notations>
          <tied type="stop"></tied>
        </notations>
      </note>
      <note default-x="124">
        <chord/>
        <pitch>
          <step>B</step>
          <octave>5</octave>
        </pitch>
        <duration>8</duration>
        <voice>4</voice>
        <type>quarter</type>
        <stem default-y="-49">down</stem>
        <staff>2</staff>
        <notations>
          <slur type="stop" number="2" bezier-x="-33" bezier-y="12" default-x="6" default-y="28"></slur>
        </notations>
      </note>
    </measure>
    <!--=======================================================-->
    <measure number="3" width="173">
      <note default-x="16">
        <pitch>
          <step>C</step>
          <alter>1</alter>
          <octave>5</octave>
        </pitch>
        <duration>8</duration>
        <voice>1</voice>
        <type>quarter</type>
        <stem default-y="21">up</stem>
        <staff>1</staff>
        <notations>
          <slur type="start" number="2" bezier-x="46" bezier-y="30" default-x="16" default-y="26" placement="above"></slur>
        </notations>
      </note>
      <note default-x="63">
        <pitch>
          <step>E</step>
          <octave>5</octave>
        </pitch>
        <duration>8</duration>
        <voice>1</voice>
        <type>quarter</type>
        <stem default-y="31">up</stem>
        <staff>1</staff>
      </note>
      <note default-x="108">
        <pitch>
          <step>F</step>
          <alter>1</alter>
          <octave>5</octave>
        </pitch>
        <duration>4</duration>
        <voice>1</voice>
        <type>eighth</type>
        <stem default-y="37">up</stem>
        <staff>1</staff>
        <beam number="1">begin</beam>
      </note>
      <note default-x="130">
        <pitch>
          <step>G</step>
          <alter>1</alter>
          <octave>5</octave>
        </pitch>
        <duration>4</duration>
        <voice>1</voice>
        <type>eighth</type>
        <stem default-y="41">up</stem>
        <staff>1</staff>
        <beam number="1">end</beam>
      </note>
      <backup>
        <duration>24</duration>
      </backup>
      <forward>
        <duration>8</duration>
        <voice>2</voice>
        <staff>1</staff>
      </forward>
      <note default-x="64">
        <pitch>
          <step>E</step>
          <octave>4</octave>
        </pitch>
        <duration>8</duration>
        <voice>2</voice>
        <type>quarter</type>
        <stem default-y="-68">down</stem>
        <staff>1</staff>
      </note>
      <note default-x="108">
        <pitch>
          <step>D</step>
          <octave>5</octave>
        </pitch>
        <duration>8</duration>
        <voice>2</voice>
        <type>quarter</type>
        <stem default-y="-47">down</stem>
        <staff>1</staff>
      </note>
      <backup>
        <duration>24</duration>
      </backup>
      <note default-x="16">
        <pitch>
          <step>F</step>
          <octave>4</octave>
        </pitch>
        <duration>16</duration>
        <voice>3</voice>
        <type>half</type>
        <stem default-y="1">up</stem>
        <staff>2</staff>
        <notations>
          <slur type="start" number="3" bezier-x="27" bezier-y="24" default-x="14" default-y="9" placement="above"></slur>
        </notations>
      </note>
      <backup>
        <duration>16</duration>
      </backup>
      <note default-x="16">
        <pitch>
          <step>F</step>
          <octave>4</octave>
        </pitch>
        <duration>4</duration>
        <voice>4</voice>
        <type>eighth</type>
        <stem default-y="-75">down</stem>
        <staff>2</staff>
        <beam number="1">begin</beam>
      </note>
      <note default-x="39">
        <pitch>
          <step>C</step>
          <octave>5</octave>
        </pitch>
        <duration>4</duration>
        <voice>4</voice>
        <type>eighth</type>
        <stem default-y="-69">down</stem>
        <staff>2</staff>
        <beam number="1">continue</beam>
      </note>
      <note default-x="64">
        <pitch>
          <step>B</step>
          <octave>5</octave>
        </pitch>
        <duration>6</duration>
        <voice>4</voice>
        <type>eighth</type>
        <dot/>
        <stem default-y="-64">down</stem>
        <staff>2</staff>
        <beam number="1">continue</beam>
      </note>
      <note default-x="88">
        <pitch>
          <step>C</step>
          <octave>5</octave>
        </pitch>
        <duration>4</duration>
        <tie type="start"></tie>
        <voice>4</voice>
        <type>eighth</type>
        <stem default-y="-58">down</stem>
        <staff>2</staff>
        <beam number="1">end</beam>
        <notations>
          <tied type="start" orientation="under"></tied>
        </notations>
      </note>
      <note default-x="109">
        <pitch>
          <step>C</step>
          <octave>5</octave>
        </pitch>
        <duration>8</duration>
        <tie type="stop"></tie>
        <voice>4</voice>
        <type>quarter</type>
        <stem default-y="-51">down</stem>
        <staff>2</staff>
        <notations>
          <tied type="stop"></tied>
        </notations>
      </note>
      <note default-x="108">
        <chord/>
        <pitch>
          <step>G</step>
          <octave>5</octave>
        </pitch>
        <duration>8</duration>
        <voice>4</voice>
        <type>quarter</type>
        <stem default-y="-51">down</stem>
        <staff>2</staff>
        <notations>
          <slur type="stop" number="3" bezier-x="-31" bezier-y="13" default-x="13" default-y="30"></slur>
        </notations>
      </note>
    </measure>
    <!--=======================================================-->
    <measure number="4" width="181">
      <note default-x="21">
        <pitch>
          <step>A</step>
          <octave>5</octave>
        </pitch>
        <duration>16</duration>
        <voice>1</voice>
        <type>half</type>
        <stem default-y="46">up</stem>
        <staff>1</staff>
        <notations>
          <slur type="stop" number="2" bezier-x="-48" bezier-y="19" default-x="9" default-y="46"></slur>
        </notations>
      </note>
      <note default-x="119">
        <pitch>
          <step>A</step>
          <octave>5</octave>
        </pitch>
        <duration>4</duration>
        <voice>1</voice>
        <type>eighth</type>
        <stem default-y="48">up</stem>
        <staff>1</staff>
        <beam number="1">begin</beam>
        <notations>
          <slur type="start" number="2" bezier-x="10" bezier-y="5" default-x="14" default-y="51" placement="above"></slur>
        </notations>
      </note>
      <direction placement="below">
        <direction-type>
          <words default-y="-80" relative-x="-29" font-family="serif" font-style="italic" font-size="9" font-weight="bold">ares.</words>
        </direction-type>
        <staff>1</staff>
      </direction>
      <note default-x="149">
        <pitch>
          <step>G</step>
          <alter>1</alter>
          <octave>5</octave>
        </pitch>
        <duration>4</duration>
        <voice>1</voice>
        <type>eighth</type>
        <stem default-y="41">up</stem>
        <staff>1</staff>
        <beam number="1">end</beam>
        <notations>
          <slur type="stop" number="2" bezier-x="-8" bezier-y="8" default-x="13" default-y="46"></slur>
        </notations>
      </note>
      <backup>
        <duration>24</duration>
      </backup>
      <note default-x="23">
        <pitch>
          <step>C</step>
          <alter>1</alter>
          <octave>5</octave>
        </pitch>
        <duration>16</duration>
        <voice>2</voice>
        <type>half</type>
        <stem default-y="-53">down</stem>
        <staff>1</staff>
      </note>
      <backup>
        <duration>16</duration>
      </backup>
      <note default-x="23">
        <pitch>
          <step>F</step>
          <octave>4</octave>
        </pitch>
        <duration>16</duration>
        <voice>3</voice>
        <type>half</type>
        <stem default-y="1">up</stem>
        <staff>2</staff>
        <notations>
          <slur type="start" number="2" bezier-x="7" bezier-y="17" default-x="11" default-y="7" placement="above"></slur>
        </notations>
      </note>
      <backup>
        <duration>16</duration>
      </backup>
      <note default-x="23">
        <pitch>
          <step>F</step>
          <octave>4</octave>
        </pitch>
        <duration>4</duration>
        <voice>4</voice>
        <type>eighth</type>
        <stem default-y="-69">down</stem>
        <staff>2</staff>
        <beam number="1">begin</beam>
      </note>
      <note default-x="51">
        <pitch>
          <step>C</step>
          <octave>5</octave>
        </pitch>
        <duration>4</duration>
        <voice>4</voice>
        <type>eighth</type>
        <stem default-y="-57">down</stem>
        <staff>2</staff>
        <beam number="1">end</beam>
      </note>
      <note default-x="79">
        <pitch>
          <step>A</step>
          <octave>5</octave>
        </pitch>
        <duration>8</duration>
        <voice>4</voice>
        <type>quarter</type>
        <stem default-y="-26">down</stem>
        <staff>2</staff>
        <notations>
          <slur type="stop" number="2" bezier-x="-16" bezier-y="8" default-x="-1" default-y="23"></slur>
        </notations>
      </note>
    </measure>
    <!--=======================================================-->
    <measure number="5" width="311">
      <print new-system="yes">
        <system-layout>
          <system-margins>
            <left-margin>12</left-margin>
            <right-margin>36</right-margin>
          </system-margins>
          <system-distance>101</system-distance>
        </system-layout>
        <staff-layout number="2">
          <staff-distance>76</staff-distance>
        </staff-layout>
      </print>
      <attributes>
        <key>
          <fifths>3</fifths>
        </key>
        <clef number="2">
          <sign>F</sign>
          <line>4</line>
        </clef>
        <staff-details print-object="yes"></staff-details>
      </attributes>
      <note default-x="114">
        <pitch>
          <step>F</step>
          <alter>1</alter>
          <octave>5</octave>
        </pitch>
        <duration>8</duration>
        <voice>1</voice>
        <type>quarter</type>
        <stem default-y="34">up</stem>
        <staff>1</staff>
        <notations>
          <slur type="start" number="2" bezier-x="40" bezier-y="19" default-x="19" default-y="39" placement="above"></slur>
        </notations>
      </note>
      <note default-x="187">
        <pitch>
          <step>A</step>
          <octave>5</octave>
        </pitch>
        <duration>8</duration>
        <voice>1</voice>
        <type>quarter</type>
        <stem default-y="47">up</stem>
        <staff>1</staff>
      </note>
      <note default-x="256">
        <pitch>
          <step>G</step>
          <alter>1</alter>
          <octave>5</octave>
        </pitch>
        <duration>8</duration>
        <voice>1</voice>
        <type>quarter</type>
        <stem default-y="38">up</stem>
        <staff>1</staff>
        <notations>
          <slur type="stop" number="2" bezier-x="-38" bezier-y="20" default-x="11" default-y="42"></slur>
        </notations>
      </note>
      <backup>
        <duration>24</duration>
      </backup>
      <forward>
        <duration>8</duration>
        <voice>2</voice>
        <staff>1</staff>
      </forward>
      <note default-x="186">
        <pitch>
          <step>A</step>
          <octave>4</octave>
        </pitch>
        <duration>16</duration>
        <tie type="start"></tie>
        <voice>2</voice>
        <type>half</type>
        <stem default-y="-60">down</stem>
        <staff>1</staff>
        <notations>
          <tied type="start" orientation="under"></tied>
        </notations>
      </note>
      <backup>
        <duration>24</duration>
      </backup>
      <note default-x="116">
        <pitch>
          <step>D</step>
          <octave>3</octave>
        </pitch>
        <duration>16</duration>
        <voice>3</voice>
        <type>half</type>
        <stem default-y="14">up</stem>
        <staff>2</staff>
        <notations>
          <slur type="start" number="2" bezier-x="30" bezier-y="21" default-x="19" default-y="21" placement="above"></slur>
        </notations>
      </note>
      <backup>
        <duration>16</duration>
      </backup>
      <note default-x="116">
        <pitch>
          <step>D</step>
          <octave>3</octave>
        </pitch>
        <duration>4</duration>
        <voice>4</voice>
        <type>eighth</type>
        <stem default-y="-60">down</stem>
        <staff>2</staff>
        <beam number="1">begin</beam>
      </note>
      <note default-x="149">
        <pitch>
          <step>A</step>
          <octave>3</octave>
        </pitch>
        <duration>4</duration>
        <voice>4</voice>
        <type>eighth</type>
        <stem default-y="-54">down</stem>
        <staff>2</staff>
        <beam number="1">continue</beam>
      </note>
      <note default-x="186">
        <pitch>
          <step>F</step>
          <alter>1</alter>
          <octave>4</octave>
        </pitch>
        <duration>4</duration>
        <voice>4</voice>
        <type>eighth</type>
        <stem default-y="-47">down</stem>
        <staff>2</staff>
        <beam number="1">continue</beam>
      </note>
      <note default-x="218">
        <pitch>
          <step>A</step>
          <octave>3</octave>
        </pitch>
        <duration>4</duration>
        <voice>4</voice>
        <type>eighth</type>
        <stem default-y="-42">down</stem>
        <staff>2</staff>
        <beam number="1">end</beam>
        <notations>
          <slur type="stop" number="2" bezier-x="-31" bezier-y="16" default-x="14" default-y="33"></slur>
        </notations>
      </note>
      <note default-x="254">
        <pitch>
          <step>D</step>
          <octave>3</octave>
        </pitch>
        <duration>8</duration>
        <voice>4</voice>
        <type>quarter</type>
        <stem default-y="-58">down</stem>
        <staff>2</staff>
      </note>
    </measure>
    <!--=======================================================-->
    <measure number="6" width="250">
      <note default-x="31">
        <pitch>
          <step>F</step>
          <alter>1</alter>
          <octave>5</octave>
        </pitch>
        <duration>8</duration>
        <voice>1</voice>
        <type>quarter</type>
        <stem default-y="37">up</stem>
        <staff>1</staff>
        <notations>
          <slur type="start" number="2" bezier-x="46" bezier-y="21" default-x="24" default-y="33" placement="above"></slur>
        </notations>
      </note>
      <note default-x="101">
        <pitch>
          <step>G</step>
          <alter>1</alter>
          <octave>5</octave>
        </pitch>
        <duration>8</duration>
        <voice>1</voice>
        <type>quarter</type>
        <stem default-y="40">up</stem>
        <staff>1</staff>
      </note>
      <note default-x="166">
        <pitch>
          <step>E</step>
          <octave>5</octave>
        </pitch>
        <duration>4</duration>
        <voice>1</voice>
        <type>eighth</type>
        <stem default-y="30">up</stem>
        <staff>1</staff>
        <beam number="1">begin</beam>
      </note>
      <note default-x="203">
        <pitch>
          <step>F</step>
          <alter>1</alter>
          <octave>5</octave>
        </pitch>
        <duration>4</duration>
        <voice>1</voice>
        <type>eighth</type>
        <stem default-y="37">up</stem>
        <staff>1</staff>
        <beam number="1">end</beam>
        <notations>
          <slur type="stop" number="2" bezier-x="-45" bezier-y="23" default-x="9" default-y="39"></slur>
        </notations>
      </note>
      <backup>
        <duration>24</duration>
      </backup>
      <direction placement="below">
        <direction-type>
          <wedge type="diminuendo" spread="18" default-x="9" default-y="-64"></wedge>
        </direction-type>
        <staff>1</staff>
      </direction>
      <note default-x="32">
        <pitch>
          <step>A</step>
          <octave>4</octave>
        </pitch>
        <duration>16</duration>
        <tie type="stop"></tie>
        <tie type="start"></tie>
        <voice>2</voice>
        <type>half</type>
        <stem default-y="-61">down</stem>
        <staff>1</staff>
        <notations>
          <tied type="stop"></tied>
          <tied type="start" orientation="under"></tied>
        </notations>
      </note>
      <direction>
        <direction-type>
          <wedge type="stop" spread="0" default-x="36"></wedge>
        </direction-type>
        <staff>1</staff>
      </direction>
      <note default-x="168">
        <pitch>
          <step>A</step>
          <octave>4</octave>
        </pitch>
        <duration>8</duration>
        <tie type="stop"></tie>
        <voice>2</voice>
        <type>quarter</type>
        <stem default-y="-60">down</stem>
        <staff>1</staff>
        <notations>
          <tied type="stop"></tied>
        </notations>
      </note>
      <backup>
        <duration>24</duration>
      </backup>
      <note default-x="31">
        <pitch>
          <step>C</step>
          <alter>1</alter>
          <octave>3</octave>
        </pitch>
        <duration>16</duration>
        <voice>3</voice>
        <type>half</type>
        <stem default-y="8">up</stem>
        <staff>2</staff>
        <notations>
          <slur type="start" number="2" bezier-x="28" bezier-y="19" default-x="19" default-y="19" placement="above"></slur>
        </notations>
      </note>
      <note default-x="167">
        <pitch>
          <step>C</step>
          <alter>1</alter>
          <octave>3</octave>
        </pitch>
        <duration>8</duration>
        <voice>3</voice>
        <type>quarter</type>
        <stem default-y="12">up</stem>
        <staff>2</staff>
      </note>
      <backup>
        <duration>24</duration>
      </backup>
      <note default-x="31">
        <pitch>
          <step>C</step>
          <alter>1</alter>
          <octave>3</octave>
        </pitch>
        <duration>4</duration>
        <voice>4</voice>
        <type>eighth</type>
        <stem default-y="-70">down</stem>
        <staff>2</staff>
        <beam number="1">begin</beam>
      </note>
      <note default-x="65">
        <pitch>
          <step>A</step>
          <octave>3</octave>
        </pitch>
        <duration>4</duration>
        <voice>4</voice>
        <type>eighth</type>
        <stem default-y="-64">down</stem>
        <staff>2</staff>
        <beam number="1">continue</beam>
      </note>
      <note default-x="101">
        <pitch>
          <step>E</step>
          <octave>4</octave>
        </pitch>
        <duration>4</duration>
        <voice>4</voice>
        <type>eighth</type>
        <stem default-y="-58">down</stem>
        <staff>2</staff>
        <beam number="1">continue</beam>
      </note>
      <note default-x="134">
        <pitch>
          <step>A</step>
          <octave>3</octave>
        </pitch>
        <duration>4</duration>
        <voice>4</voice>
        <type>eighth</type>
        <stem default-y="-50">down</stem>
        <staff>2</staff>
        <beam number="1">end</beam>
        <notations>
          <slur type="stop" number="2" bezier-x="-28" bezier-y="19" default-x="11" default-y="21"></slur>
        </notations>
      </note>
    </measure>
    <!--=======================================================-->
    <measure number="7" width="243">
      <note default-x="28">
        <pitch>
          <step>G</step>
          <alter>1</alter>
          <octave>5</octave>
        </pitch>
        <duration>16</duration>
        <voice>1</voice>
        <type>half</type>
        <stem default-y="35">up</stem>
        <staff>1</staff>
        <notations>
          <slur type="start" number="2" bezier-x="52" bezier-y="26" default-x="19" default-y="25" placement="above"></slur>
        </notations>
      </note>
      <note default-x="191">
        <pitch>
          <step>F</step>
          <alter>1</alter>
          <octave>5</octave>
        </pitch>
        <duration>8</duration>
        <voice>1</voice>
        <type>quarter</type>
        <stem default-y="33">up</stem>
        <staff>1</staff>
      </note>
      <backup>
        <duration>24</duration>
      </backup>
      <direction placement="below">
        <direction-type>
          <dynamics default-y="-84" relative-x="5">
            <p/>
          </dynamics>
        </direction-type>
        <staff>1</staff>
        <sound dynamics="56"></sound>
      </direction>
      <note default-x="28">
        <pitch>
          <step>G</step>
          <alter>1</alter>
          <octave>4</octave>
        </pitch>
        <duration>8</duration>
        <voice>2</voice>
        <type>quarter</type>
        <stem default-y="-63">down</stem>
        <staff>1</staff>
      </note>
      <note default-x="102">
        <pitch>
          <step>G</step>
          <alter>1</alter>
          <octave>4</octave>
        </pitch>
        <duration>8</duration>
        <voice>2</voice>
        <type>quarter</type>
        <stem default-y="-66">down</stem>
        <staff>1</staff>
      </note>
      <note default-x="101">
        <chord/>
        <pitch>
          <step>B</step>
          <octave>4</octave>
        </pitch>
        <duration>8</duration>
        <voice>2</voice>
        <type>quarter</type>
        <stem default-y="-66">down</stem>
        <staff>1</staff>
      </note>
      <note default-x="178">
        <pitch>
          <step>A</step>
          <octave>4</octave>
        </pitch>
        <duration>8</duration>
        <voice>2</voice>
        <type>quarter</type>
        <stem default-y="-60">down</stem>
        <staff>1</staff>
      </note>
      <note default-x="189">
        <chord/>
        <pitch>
          <step>B</step>
          <octave>4</octave>
        </pitch>
        <duration>8</duration>
        <voice>2</voice>
        <type>quarter</type>
        <stem default-y="-60">down</stem>
        <staff>1</staff>
      </note>
      <backup>
        <duration>24</duration>
      </backup>
      <note default-x="29">
        <pitch>
          <step>B</step>
          <octave>2</octave>
        </pitch>
        <duration>4</duration>
        <voice>3</voice>
        <type>eighth</type>
        <stem default-y="-70">down</stem>
        <staff>2</staff>
        <beam number="1">begin</beam>
      </note>
      <note default-x="66">
        <pitch>
          <step>B</step>
          <octave>3</octave>
        </pitch>
        <duration>4</duration>
        <voice>3</voice>
        <type>eighth</type>
        <stem default-y="-63">down</stem>
        <staff>2</staff>
        <beam number="1">continue</beam>
      </note>
      <note default-x="103">
        <pitch>
          <step>C</step>
          <alter>1</alter>
          <octave>4</octave>
        </pitch>
        <duration>4</duration>
        <voice>3</voice>
        <type>eighth</type>
        <stem default-y="-54">down</stem>
        <staff>2</staff>
        <beam number="1">continue</beam>
      </note>
      <note default-x="140">
        <pitch>
          <step>B</step>
          <octave>3</octave>
        </pitch>
        <duration>4</duration>
        <voice>3</voice>
        <type>eighth</type>
        <stem default-y="-46">down</stem>
        <staff>2</staff>
        <beam number="1">end</beam>
      </note>
    </measure>
    <!--=======================================================-->
    <measure number="8" width="239">
      <note default-x="35">
        <pitch>
          <step>E</step>
          <octave>5</octave>
        </pitch>
        <duration>16</duration>
        <voice>1</voice>
        <type>half</type>
        <stem default-y="30">up</stem>
        <staff>1</staff>
        <notations>
          <fermata type="upright" default-y="32"></fermata>
          <slur type="stop" number="2" bezier-x="-52" bezier-y="27" default-x="5" default-y="24"></slur>
        </notations>
      </note>
      <note default-x="162">
        <pitch>
          <step>B</step>
          <octave>5</octave>
        </pitch>
        <duration>6</duration>
        <voice>1</voice>
        <type>eighth</type>
        <dot/>
        <stem default-y="52">up</stem>
        <staff>1</staff>
        <beam number="1">begin</beam>
      </note>
      <note default-x="198">
        <pitch>
          <step>G</step>
          <alter>1</alter>
          <octave>5</octave>
        </pitch>
        <duration>4</duration>
        <voice>1</voice>
        <type>eighth</type>
        <stem default-y="43">up</stem>
        <staff>1</staff>
        <beam number="1">end</beam>
      </note>
      <backup>
        <duration>26</duration>
      </backup>
      <note default-x="34">
        <pitch>
          <step>G</step>
          <alter>1</alter>
          <octave>4</octave>
        </pitch>
        <duration>16</duration>
        <voice>2</voice>
        <type>half</type>
        <stem default-y="-71">down</stem>
        <staff>1</staff>
      </note>
      <backup>
        <duration>16</duration>
      </backup>
      <note default-x="31">
        <pitch>
          <step>E</step>
          <octave>3</octave>
        </pitch>
        <duration>16</duration>
        <voice>3</voice>
        <type>half</type>
        <stem default-y="21">up</stem>
        <staff>2</staff>
      </note>
      <backup>
        <duration>16</duration>
      </backup>
      <note default-x="31">
        <pitch>
          <step>E</step>
          <octave>3</octave>
        </pitch>
        <duration>4</duration>
        <voice>4</voice>
        <type>eighth</type>
        <stem default-y="-48">down</stem>
        <staff>2</staff>
        <beam number="1">begin</beam>
      </note>
      <note default-x="72">
        <pitch>
          <step>G</step>
          <alter>1</alter>
          <octave>3</octave>
        </pitch>
        <duration>4</duration>
        <voice>4</voice>
        <type>eighth</type>
        <stem default-y="-43">down</stem>
        <staff>2</staff>
        <beam number="1">end</beam>
      </note>
      <note default-x="106">
        <pitch>
          <step>E</step>
          <octave>4</octave>
        </pitch>
        <duration>12</duration>
        <voice>4</voice>
        <type>quarter</type>
        <dot/>
        <stem default-y="-22">down</stem>
        <staff>2</staff>
        <notations>
          <fermata type="upright" default-y="39"></fermata>
        </notations>
      </note>
    </measure>
    <!--=======================================================-->
    <measure number="9" width="338">
      <print new-system="yes">
        <system-layout>
          <system-margins>
            <left-margin>14</left-margin>
            <right-margin>36</right-margin>
          </system-margins>
          <system-distance>102</system-distance>
        </system-layout>
        <staff-layout number="2">
          <staff-distance>75</staff-distance>
        </staff-layout>
      </print>
      <attributes>
        <staff-details print-object="yes"></staff-details>
      </attributes>
      <note default-x="114">
        <pitch>
          <step>F</step>
          <alter>1</alter>
          <octave>5</octave>
        </pitch>
        <duration>8</duration>
        <tie type="start"></tie>
        <voice>1</voice>
        <type>quarter</type>
        <stem default-y="-37">down</stem>
        <staff>1</staff>
        <notations>
          <tied type="start" orientation="over"></tied>
        </notations>
      </note>
      <note default-x="184">
        <pitch>
          <step>B</step>
          <octave>5</octave>
        </pitch>
        <duration>12</duration>
        <voice>1</voice>
        <type>quarter</type>
        <dot/>
        <stem default-y="-24">down</stem>
        <staff>1</staff>
      </note>
      <note default-x="247">
        <pitch>
          <step>G</step>
          <alter>1</alter>
          <octave>5</octave>
        </pitch>
        <duration>6</duration>
        <voice>1</voice>
        <type>eighth</type>
        <dot/>
        <stem default-y="-33">down</stem>
        <staff>1</staff>
        <beam number="1">begin</beam>
      </note>
      <note default-x="293">
        <pitch>
          <step>F</step>
          <alter>1</alter>
          <octave>5</octave>
        </pitch>
        <duration>2</duration>
        <voice>1</voice>
        <type>16th</type>
        <stem default-y="-36">down</stem>
        <staff>1</staff>
        <beam number="1">end</beam>
        <beam number="2">backward hook</beam>
      </note>
      <backup>
        <duration>28</duration>
      </backup>
      <note default-x="113">
        <pitch>
          <step>B</step>
          <octave>4</octave>
        </pitch>
        <duration>16</duration>
        <voice>2</voice>
        <type>half</type>
        <stem default-y="13">up</stem>
        <staff>2</staff>
        <notations>
          <slur type="start" number="2" bezier-x="34" bezier-y="30" default-x="18" default-y="19" placement="above"></slur>
        </notations>
      </note>
      <backup>
        <duration>16</duration>
      </backup>
      <note default-x="113">
        <pitch>
          <step>B</step>
          <octave>4</octave>
        </pitch>
        <duration>4</duration>
        <voice>3</voice>
        <type>eighth</type>
        <stem default-y="-58">down</stem>
        <staff>2</staff>
        <beam number="1">begin</beam>
      </note>
      <note default-x="148">
        <pitch>
          <step>F</step>
          <alter>1</alter>
          <octave>5</octave>
        </pitch>
        <duration>4</duration>
        <voice>3</voice>
        <type>eighth</type>
        <stem default-y="-52">down</stem>
        <staff>2</staff>
        <beam number="1">continue</beam>
      </note>
      <note default-x="214">
        <pitch>
          <step>F</step>
          <alter>1</alter>
          <octave>5</octave>
        </pitch>
        <duration>4</duration>
        <voice>3</voice>
        <type>eighth</type>
        <stem default-y="-42">down</stem>
        <staff>2</staff>
        <beam number="1">end</beam>
      </note>
      <note default-x="248">
        <pitch>
          <step>D</step>
          <octave>6</octave>
        </pitch>
        <duration>8</duration>
        <voice>3</voice>
        <type>quarter</type>
        <stem default-y="-22">down</stem>
        <staff>2</staff>
        <notations>
          <slur type="stop" number="2" bezier-x="-38" bezier-y="19" default-x="7" default-y="39"></slur>
        </notations>
      </note>
    </measure>
    <!--=======================================================-->
    <measure number="10" width="281">
      <note default-x="24">
        <pitch>
          <step>F</step>
          <alter>1</alter>
          <octave>5</octave>
        </pitch>
        <duration>8</duration>
        <tie type="stop"></tie>
        <voice>1</voice>
        <type>quarter</type>
        <stem default-y="-35">down</stem>
        <staff>1</staff>
        <notations>
          <tied type="stop"></tied>
        </notations>
      </note>
      <forward>
        <duration>8</duration>
        <voice>1</voice>
        <staff>1</staff>
      </forward>
      <note default-x="128">
        <pitch>
          <step>B</step>
          <octave>5</octave>
        </pitch>
        <duration>3</duration>
        <voice>1</voice>
        <type>16th</type>
        <dot/>
        <stem default-y="-32">down</stem>
        <staff>1</staff>
        <beam number="1">begin</beam>
        <beam number="2">begin</beam>
        <notations>
          <slur type="start" number="2" bezier-x="37" bezier-y="14" default-x="12" default-y="25" placement="above"></slur>
        </notations>
      </note>
      <note default-x="152">
        <pitch>
          <step>F</step>
          <alter>1</alter>
          <octave>5</octave>
        </pitch>
        <duration>2</duration>
        <voice>1</voice>
        <type>16th</type>
        <stem default-y="-35">down</stem>
        <staff>1</staff>
        <beam number="1">end</beam>
        <beam number="2">end</beam>
      </note>
      <note default-x="179">
        <pitch>
          <step>E</step>
          <octave>5</octave>
        </pitch>
        <duration>4</duration>
        <voice>1</voice>
        <type>eighth</type>
        <stem default-y="-47">down</stem>
        <staff>1</staff>
        <beam number="1">begin</beam>
      </note>
      <note default-x="208">
        <pitch>
          <step>C</step>
          <alter>1</alter>
          <octave>5</octave>
        </pitch>
        <duration>4</duration>
        <voice>1</voice>
        <type>eighth</type>
        <stem default-y="-53">down</stem>
        <staff>1</staff>
        <beam number="1">continue</beam>
      </note>
      <note default-x="235">
        <pitch>
          <step>B</step>
          <octave>4</octave>
        </pitch>
        <duration>4</duration>
        <voice>1</voice>
        <type>eighth</type>
        <stem default-y="-59">down</stem>
        <staff>1</staff>
        <beam number="1">end</beam>
        <notations>
          <slur type="stop" number="2" bezier-x="-27" bezier-y="32" default-x="9" default-y="-5"></slur>
        </notations>
      </note>
      <backup>
        <duration>33</duration>
      </backup>
      <note default-x="28">
        <pitch>
          <step>B</step>
          <octave>4</octave>
        </pitch>
        <duration>16</duration>
        <voice>2</voice>
        <type>half</type>
        <stem default-y="19">up</stem>
        <staff>2</staff>
      </note>
      <backup>
        <duration>16</duration>
      </backup>
      <note default-x="28">
        <pitch>
          <step>B</step>
          <octave>4</octave>
        </pitch>
        <duration>4</duration>
        <voice>3</voice>
        <type>eighth</type>
        <stem default-y="-58">down</stem>
        <staff>2</staff>
        <beam number="1">begin</beam>
        <notations>
          <slur type="start" number="2" bezier-x="18" bezier-y="22" default-x="13" default-y="18" placement="above"></slur>
        </notations>
      </note>
      <note default-x="59">
        <pitch>
          <step>F</step>
          <alter>1</alter>
          <octave>5</octave>
        </pitch>
        <duration>4</duration>
        <voice>3</voice>
        <type>eighth</type>
        <stem default-y="-47">down</stem>
        <staff>2</staff>
        <beam number="1">end</beam>
      </note>
      <note default-x="96">
        <pitch>
          <step>D</step>
          <octave>6</octave>
        </pitch>
        <duration>8</duration>
        <voice>3</voice>
        <type>quarter</type>
        <stem default-y="-22">down</stem>
        <staff>2</staff>
        <notations>
          <fermata type="upright" default-y="45"></fermata>
          <slur type="stop" number="2" bezier-x="-28" bezier-y="6" default-x="4" default-y="40"></slur>
        </notations>
      </note>
    </measure>
    <!--=======================================================-->
    <measure number="11" width="226">
      <direction placement="below">
        <direction-type>
          <wedge type="crescendo" spread="0" default-x="3" default-y="-75"></wedge>
        </direction-type>
        <staff>1</staff>
      </direction>
      <note default-x="22">
        <pitch>
          <step>A</step>
          <octave>4</octave>
        </pitch>
        <duration>16</duration>
        <voice>1</voice>
        <type>half</type>
        <stem default-y="12">up</stem>
        <staff>1</staff>
        <notations>
          <slur type="start" number="2" bezier-x="49" bezier-y="30" default-x="18" default-y="17" placement="above"></slur>
        </notations>
      </note>
      <note default-x="162">
        <pitch>
          <step>A</step>
          <octave>4</octave>
        </pitch>
        <duration>4</duration>
        <voice>1</voice>
        <type>eighth</type>
        <stem default-y="18">up</stem>
        <staff>1</staff>
        <beam number="1">continue</beam>
      </note>
      <direction>
        <direction-type>
          <wedge type="stop" spread="21" default-x="22"></wedge>
        </direction-type>
        <staff>1</staff>
      </direction>
      <note default-x="184">
        <pitch>
          <step>B</step>
          <octave>4</octave>
        </pitch>
        <duration>4</duration>
        <voice>1</voice>
        <type>eighth</type>
        <stem default-y="18">up</stem>
        <staff>1</staff>
        <beam number="1">end</beam>
      </note>
      <backup>
        <duration>28</duration>
      </backup>
      <forward>
        <duration>16</duration>
        <voice>2</voice>
        <staff>1</staff>
      </forward>
      <note default-x="138">
        <pitch>
          <step>F</step>
          <alter>1</alter>
          <octave>4</octave>
        </pitch>
        <duration>8</duration>
        <voice>2</voice>
        <type>quarter</type>
        <stem default-y="-65">down</stem>
        <staff>1</staff>
      </note>
      <backup>
        <duration>24</duration>
      </backup>
      <note default-x="21">
        <rest>
          <display-step>C</display-step>
          <display-octave>5</display-octave>
        </rest>
        <duration>4</duration>
        <voice>3</voice>
        <type>eighth</type>
        <staff>2</staff>
      </note>
      <note default-x="51">
        <pitch>
          <step>D</step>
          <octave>5</octave>
        </pitch>
        <duration>4</duration>
        <voice>3</voice>
        <type>eighth</type>
        <stem default-y="-58">down</stem>
        <staff>2</staff>
        <beam number="1">begin</beam>
      </note>
      <note default-x="80">
        <pitch>
          <step>B</step>
          <octave>5</octave>
        </pitch>
        <duration>4</duration>
        <voice>3</voice>
        <type>eighth</type>
        <stem default-y="-57">down</stem>
        <staff>2</staff>
        <beam number="1">continue</beam>
      </note>
      <note default-x="110">
        <pitch>
          <step>D</step>
          <octave>5</octave>
        </pitch>
        <duration>4</duration>
        <voice>3</voice>
        <type>eighth</type>
        <stem default-y="-58">down</stem>
        <staff>2</staff>
        <beam number="1">continue</beam>
      </note>
      <note default-x="138">
        <pitch>
          <step>B</step>
          <octave>4</octave>
        </pitch>
        <duration>4</duration>
        <voice>3</voice>
        <type>eighth</type>
        <stem default-y="-58">down</stem>
        <staff>2</staff>
        <beam number="1">continue</beam>
      </note>
      <note default-x="167">
        <pitch>
          <step>E</step>
          <octave>5</octave>
        </pitch>
        <duration>4</duration>
        <voice>3</voice>
        <type>eighth</type>
        <stem default-y="-58">down</stem>
        <staff>2</staff>
        <beam number="1">end</beam>
      </note>
    </measure>
    <!--=======================================================-->
    <measure number="12" width="196">
      <note default-x="26">
        <pitch>
          <step>C</step>
          <alter>1</alter>
          <octave>5</octave>
        </pitch>
        <duration>8</duration>
        <voice>1</voice>
        <type>quarter</type>
        <stem default-y="24">up</stem>
        <staff>1</staff>
        <notations>
          <slur type="stop" number="2" bezier-x="-50" bezier-y="25" default-x="10" default-y="27"></slur>
        </notations>
      </note>
      <note default-x="74">
        <pitch>
          <step>A</step>
          <octave>5</octave>
        </pitch>
        <duration>12</duration>
        <voice>1</voice>
        <type>quarter</type>
        <dot/>
        <stem default-y="43">up</stem>
        <staff>1</staff>
        <notations>
          <fermata type="upright" default-y="45"></fermata>
          <slur type="start" number="2" bezier-x="9" bezier-y="9" default-x="12" default-y="17" placement="above"></slur>
        </notations>
      </note>
      <backup>
        <duration>20</duration>
      </backup>
      <forward>
        <duration>8</duration>
        <voice>2</voice>
        <staff>1</staff>
      </forward>
      <direction placement="below">
        <direction-type>
          <dynamics default-y="-69" relative-x="-21">
            <f/>
          </dynamics>
        </direction-type>
        <staff>1</staff>
        <sound dynamics="100"></sound>
      </direction>
      <direction placement="below">
        <direction-type>
          <wedge type="diminuendo" spread="11" default-x="42" default-y="-62"></wedge>
        </direction-type>
        <staff>1</staff>
      </direction>
      <note default-x="75">
        <pitch>
          <step>A</step>
          <octave>4</octave>
        </pitch>
        <duration>8</duration>
        <voice>2</voice>
        <type>quarter</type>
        <stem default-y="-53">down</stem>
        <staff>1</staff>
      </note>
      <note default-x="121">
        <pitch>
          <step>B</step>
          <octave>5</octave>
        </pitch>
        <duration>6</duration>
        <voice>2</voice>
        <type>eighth</type>
        <dot/>
        <stem default-y="48">up</stem>
        <staff>1</staff>
        <beam number="1">begin</beam>
        <notations>
          <slur type="stop" number="2" bezier-x="-12" bezier-y="5" default-x="-1" default-y="23"></slur>
        </notations>
      </note>
      <direction>
        <direction-type>
          <wedge type="stop" spread="0" default-x="19"></wedge>
        </direction-type>
        <staff>1</staff>
      </direction>
      <note default-x="152">
        <pitch>
          <step>G</step>
          <alter>1</alter>
          <octave>5</octave>
        </pitch>
        <duration>4</duration>
        <voice>2</voice>
        <type>eighth</type>
        <stem default-y="41">up</stem>
        <staff>1</staff>
        <beam number="1">end</beam>
      </note>
      <backup>
        <duration>26</duration>
      </backup>
      <note default-x="26">
        <pitch>
          <step>A</step>
          <octave>4</octave>
        </pitch>
        <duration>8</duration>
        <voice>3</voice>
        <type>quarter</type>
        <stem default-y="12">up</stem>
        <staff>2</staff>
      </note>
      <note default-x="73">
        <pitch>
          <step>D</step>
          <octave>5</octave>
        </pitch>
        <duration>8</duration>
        <voice>3</voice>
        <type>quarter</type>
        <stem default-y="-47">down</stem>
        <staff>2</staff>
        <notations>
          <fermata type="upright" default-y="8"></fermata>
        </notations>
      </note>
    </measure>
    <!--=======================================================-->
    <measure number="13" width="360">
      <print new-system="yes">
        <system-layout>
          <system-margins>
            <left-margin>14</left-margin>
            <right-margin>38</right-margin>
          </system-margins>
          <system-distance>102</system-distance>
        </system-layout>
        <staff-layout number="2">
          <staff-distance>76</staff-distance>
        </staff-layout>
      </print>
      <attributes>
        <staff-details print-object="yes"></staff-details>
      </attributes>
      <direction placement="below">
        <direction-type>
          <dynamics default-y="-67" relative-x="-11">
            <p/>
          </dynamics>
        </direction-type>
        <staff>1</staff>
        <sound dynamics="56"></sound>
      </direction>
      <note default-x="116">
        <pitch>
          <step>F</step>
          <alter>1</alter>
          <octave>5</octave>
        </pitch>
        <duration>8</duration>
        <voice>1</voice>
        <type>quarter</type>
        <stem default-y="-34">down</stem>
        <staff>1</staff>
        <notations>
          <slur type="start" number="2" bezier-x="70" bezier-y="29" default-x="12" default-y="10" placement="above"></slur>
        </notations>
      </note>
      <forward>
        <duration>4</duration>
        <voice>1</voice>
        <staff>1</staff>
      </forward>
      <note default-x="234">
        <pitch>
          <step>E</step>
          <octave>5</octave>
        </pitch>
        <duration>8</duration>
        <voice>1</voice>
        <type>quarter</type>
        <stem default-y="-42">down</stem>
        <staff>1</staff>
      </note>
      <note default-x="272">
        <pitch>
          <step>C</step>
          <alter>1</alter>
          <octave>5</octave>
        </pitch>
        <duration>4</duration>
        <voice>1</voice>
        <type>eighth</type>
        <stem default-y="-51">down</stem>
        <staff>1</staff>
        <beam number="1">begin</beam>
      </note>
      <note default-x="311">
        <pitch>
          <step>B</step>
          <octave>4</octave>
        </pitch>
        <duration>4</duration>
        <voice>1</voice>
        <type>eighth</type>
        <stem default-y="-56">down</stem>
        <staff>1</staff>
        <beam number="1">end</beam>
      </note>
      <backup>
        <duration>28</duration>
      </backup>
      <note default-x="117">
        <pitch>
          <step>B</step>
          <octave>4</octave>
        </pitch>
        <duration>4</duration>
        <voice>2</voice>
        <type>eighth</type>
        <stem default-y="43">up</stem>
        <staff>2</staff>
        <beam number="1">begin</beam>
      </note>
      <note default-x="156">
        <pitch>
          <step>F</step>
          <alter>1</alter>
          <octave>5</octave>
        </pitch>
        <duration>4</duration>
        <voice>2</voice>
        <type>eighth</type>
        <stem default-y="49">up</stem>
        <staff>2</staff>
        <beam number="1">continue</beam>
      </note>
      <note default-x="194">
        <pitch>
          <step>B</step>
          <octave>5</octave>
        </pitch>
        <duration>4</duration>
        <voice>2</voice>
        <type>eighth</type>
        <stem default-y="53">up</stem>
        <staff>2</staff>
        <beam number="1">continue</beam>
      </note>
      <note default-x="232">
        <pitch>
          <step>A</step>
          <octave>5</octave>
        </pitch>
        <duration>4</duration>
        <voice>2</voice>
        <type>eighth</type>
        <stem default-y="58">up</stem>
        <staff>2</staff>
        <beam number="1">end</beam>
      </note>
      <note default-x="271">
        <pitch>
          <step>C</step>
          <alter>1</alter>
          <octave>6</octave>
        </pitch>
        <duration>4</duration>
        <voice>2</voice>
        <type>eighth</type>
        <stem default-y="56">up</stem>
        <staff>2</staff>
        <beam number="1">begin</beam>
      </note>
      <note default-x="311">
        <pitch>
          <step>B</step>
          <octave>5</octave>
        </pitch>
        <duration>4</duration>
        <voice>2</voice>
        <type>eighth</type>
        <stem default-y="49">up</stem>
        <staff>2</staff>
        <beam number="1">end</beam>
      </note>
      <backup>
        <duration>24</duration>
      </backup>
      <forward>
        <duration>16</duration>
        <voice>3</voice>
        <staff>2</staff>
      </forward>
      <note default-x="272">
        <pitch>
          <step>C</step>
          <alter>1</alter>
          <octave>5</octave>
        </pitch>
        <duration>8</duration>
        <voice>3</voice>
        <type>quarter</type>
        <stem default-y="-53">down</stem>
        <staff>2</staff>
      </note>
    </measure>
    <!--=======================================================-->
    <measure number="14" width="275">
      <forward>
        <duration>4</duration>
        <voice>1</voice>
        <staff>1</staff>
      </forward>
      <note default-x="72">
        <pitch>
          <step>E</step>
          <octave>5</octave>
        </pitch>
        <duration>12</duration>
        <voice>1</voice>
        <type>quarter</type>
        <dot/>
        <stem default-y="-42">down</stem>
        <staff>1</staff>
        <notations>
          <slur type="stop" number="2" bezier-x="-67" bezier-y="40" default-x="-1" default-y="4"></slur>
        </notations>
      </note>
      <note default-x="188">
        <pitch>
          <step>D</step>
          <octave>5</octave>
        </pitch>
        <duration>4</duration>
        <voice>1</voice>
        <type>eighth</type>
        <stem default-y="-43">down</stem>
        <staff>1</staff>
        <beam number="1">begin</beam>
        <notations>
          <slur type="start" number="2" bezier-x="65" bezier-y="28" default-x="15" default-y="5" placement="above"></slur>
        </notations>
      </note>
      <note default-x="225">
        <pitch>
          <step>C</step>
          <alter>1</alter>
          <octave>5</octave>
        </pitch>
        <duration>4</duration>
        <voice>1</voice>
        <type>eighth</type>
        <stem default-y="-47">down</stem>
        <staff>1</staff>
        <beam number="1">end</beam>
      </note>
      <backup>
        <duration>24</duration>
      </backup>
      <note default-x="34">
        <pitch>
          <step>F</step>
          <alter>1</alter>
          <octave>4</octave>
        </pitch>
        <duration>4</duration>
        <voice>2</voice>
        <type>eighth</type>
        <stem default-y="-72">down</stem>
        <staff>2</staff>
        <beam number="1">begin</beam>
      </note>
      <note default-x="74">
        <pitch>
          <step>C</step>
          <alter>1</alter>
          <octave>5</octave>
        </pitch>
        <duration>4</duration>
        <voice>2</voice>
        <type>eighth</type>
        <stem default-y="-63">down</stem>
        <staff>2</staff>
        <beam number="1">continue</beam>
      </note>
      <note default-x="110">
        <pitch>
          <step>F</step>
          <alter>1</alter>
          <octave>5</octave>
        </pitch>
        <duration>4</duration>
        <voice>2</voice>
        <type>eighth</type>
        <stem default-y="-54">down</stem>
        <staff>2</staff>
        <beam number="1">continue</beam>
      </note>
      <note default-x="149">
        <pitch>
          <step>A</step>
          <octave>5</octave>
        </pitch>
        <duration>4</duration>
        <voice>2</voice>
        <type>eighth</type>
        <stem default-y="-46">down</stem>
        <staff>2</staff>
        <beam number="1">end</beam>
      </note>
      <note default-x="188">
        <pitch>
          <step>D</step>
          <octave>6</octave>
        </pitch>
        <duration>4</duration>
        <voice>2</voice>
        <type>eighth</type>
        <stem default-y="-22">down</stem>
        <staff>2</staff>
        <beam number="1">begin</beam>
      </note>
      <note default-x="225">
        <pitch>
          <step>C</step>
          <alter>1</alter>
          <octave>6</octave>
        </pitch>
        <duration>4</duration>
        <voice>2</voice>
        <type>eighth</type>
        <stem default-y="-26">down</stem>
        <staff>2</staff>
        <beam number="1">end</beam>
      </note>
    </measure>
    <!--=======================================================-->
    <measure number="15" width="279">
      <direction placement="below">
        <direction-type>
          <words default-y="-93" relative-x="-6" font-family="serif" font-size="11" font-weight="bold">PP</words>
        </direction-type>
        <staff>1</staff>
      </direction>
      <note default-x="29">
        <pitch>
          <step>D</step>
          <octave>4</octave>
        </pitch>
        <duration>16</duration>
        <voice>1</voice>
        <type>half</type>
        <stem default-y="18">up</stem>
        <staff>1</staff>
      </note>
      <note default-x="28">
        <chord/>
        <pitch>
          <step>B</step>
          <octave>4</octave>
        </pitch>
        <duration>16</duration>
        <voice>1</voice>
        <type>half</type>
        <stem default-y="18">up</stem>
        <staff>1</staff>
      </note>
      <note default-x="188">
        <pitch>
          <step>C</step>
          <alter>1</alter>
          <octave>4</octave>
        </pitch>
        <duration>8</duration>
        <voice>1</voice>
        <type>quarter</type>
        <stem default-y="8">up</stem>
        <staff>1</staff>
      </note>
      <note default-x="188">
        <chord/>
        <pitch>
          <step>A</step>
          <octave>4</octave>
        </pitch>
        <duration>8</duration>
        <voice>1</voice>
        <type>quarter</type>
        <stem default-y="8">up</stem>
        <staff>1</staff>
      </note>
      <backup>
        <duration>24</duration>
      </backup>
      <note default-x="29">
        <rest>
          <display-step>B</display-step>
          <display-octave>4</display-octave>
        </rest>
        <duration>4</duration>
        <voice>2</voice>
        <type>eighth</type>
        <staff>2</staff>
      </note>
      <note default-x="71">
        <pitch>
          <step>C</step>
          <alter>1</alter>
          <octave>5</octave>
        </pitch>
        <duration>4</duration>
        <voice>2</voice>
        <type>eighth</type>
        <stem default-y="-47">down</stem>
        <staff>2</staff>
        <beam number="1">begin</beam>
        <notations>
          <slur type="start" number="3" bezier-x="49" bezier-y="25" default-x="9" default-y="-4" placement="above"></slur>
        </notations>
      </note>
      <note default-x="109">
        <pitch>
          <step>D</step>
          <octave>5</octave>
        </pitch>
        <duration>4</duration>
        <voice>2</voice>
        <type>eighth</type>
        <stem default-y="-47">down</stem>
        <staff>2</staff>
        <beam number="1">continue</beam>
      </note>
      <note default-x="147">
        <pitch>
          <step>C</step>
          <alter>1</alter>
          <octave>5</octave>
        </pitch>
        <duration>4</duration>
        <voice>2</voice>
        <type>eighth</type>
        <stem default-y="-47">down</stem>
        <staff>2</staff>
        <beam number="1">continue</beam>
      </note>
      <note default-x="189">
        <pitch>
          <step>F</step>
          <alter>1</alter>
          <octave>5</octave>
        </pitch>
        <duration>4</duration>
        <voice>2</voice>
        <type>eighth</type>
        <stem default-y="-47">down</stem>
        <staff>2</staff>
        <beam number="1">continue</beam>
      </note>
      <note default-x="228">
        <pitch>
          <step>C</step>
          <alter>1</alter>
          <octave>5</octave>
        </pitch>
        <duration>4</duration>
        <voice>2</voice>
        <type>eighth</type>
        <stem default-y="-48">down</stem>
        <staff>2</staff>
        <beam number="1">end</beam>
        <notations>
          <slur type="stop" number="3" bezier-x="-48" bezier-y="29" default-x="9" default-y="-5"></slur>
        </notations>
      </note>
    </measure>
    <!--=======================================================-->
    <measure number="16" width="125">
      <note default-x="42">
        <pitch>
          <step>B</step>
          <octave>3</octave>
        </pitch>
        <duration>16</duration>
        <voice>1</voice>
        <type>half</type>
        <stem default-y="8">up</stem>
        <staff>1</staff>
      </note>
      <note default-x="44">
        <chord/>
        <pitch>
          <step>A</step>
          <octave>4</octave>
        </pitch>
        <duration>16</duration>
        <voice>1</voice>
        <type>half</type>
        <stem default-y="8">up</stem>
        <staff>1</staff>
        <notations>
          <slur type="stop" number="2" bezier-x="-60" bezier-y="38" default-x="3" default-y="0"></slur>
        </notations>
      </note>
      <backup>
        <duration>16</duration>
      </backup>
      <note default-x="42">
        <pitch>
          <step>F</step>
          <alter>1</alter>
          <octave>4</octave>
        </pitch>
        <duration>16</duration>
        <voice>2</voice>
        <type>half</type>
        <stem default-y="1">up</stem>
        <staff>2</staff>
      </note>
      <barline location="right">
        <bar-style>light-heavy</bar-style>
      </barline>
    </measure>
  </part>
</score-partwise>