<?xml version="1.0" encoding="UTF-8"?>
<!DOCTYPE score-partwise PUBLIC "-//Recordare//DTD MusicXML 3.0.1 Partwise//EN" "http://www.musicxml.org/dtds/partwise.dtd">
<score-partwise version="3.0.1">
  <work>
    <work-number>Unknuwn.)</work-number>
  </work>
  <movement-number>1</movement-number>
  <movement-title>[Audiveris detected movement]</movement-title>
  <identification>
    <creator type="lyricist">J 100.</creator>
    <rights>*</rights>
    <encoding>
      <software>Audiveris 5.0.0</software>
      <supports type="yes" element="print" attribute="new-system" value="yes"></supports>
      <supports type="yes" element="print" attribute="new-page" value="yes"></supports>
      <software>ProxyMusic 3.0.1.8e1a2c5</software>
      <encoding-date>2017-10-06</encoding-date>
    </encoding>
    <source>/Users/stephenn/Documents/workspace/nlsomr/working/91386684.jpg</source>
    <miscellaneous>
      <miscellaneous-field name="source-file">/Users/stephenn/Documents/workspace/nlsomr/working/91386684.jpg</miscellaneous-field>
      <miscellaneous-field name="source-sheet-1">1 2 3 4 5 6</miscellaneous-field>
    </miscellaneous>
  </identification>
  <defaults>
    <scaling>
      <millimeters>5.4187</millimeters>
      <tenths>40</tenths>
    </scaling>
    <page-layout>
      <page-height>1910</page-height>
      <page-width>1250</page-width>
      <page-margins type="both">
        <left-margin>80</left-margin>
        <right-margin>80</right-margin>
        <top-margin>80</top-margin>
        <bottom-margin>80</bottom-margin>
      </page-margins>
    </page-layout>
    <lyric-font font-family="Serif" font-size="10"></lyric-font>
  </defaults>
  <credit page="1">
    <credit-words default-x="590" default-y="1830" font-family="serif" font-style="italic" font-size="12" font-weight="bold">7</credit-words>
  </credit>
  <credit page="1">
    <credit-words default-x="565" default-y="1799" font-family="serif" font-size="13" font-weight="bold">Air.</credit-words>
  </credit>
  <credit page="1">
    <credit-words default-x="578" default-y="1766" font-family="sans-serif" font-size="7" font-weight="bold">Unknuwn.)</credit-words>
  </credit>
  <credit page="1">
    <credit-type>lyricist</credit-type>
    <credit-words default-x="82" default-y="1690" font-family="serif" font-size="9" font-weight="bold">J 100.</credit-words>
  </credit>
  <credit page="1">
    <credit-words default-x="210" default-y="1688" font-family="serif" font-style="italic" font-size="9" font-weight="bold">’</credit-words>
  </credit>
  <credit page="1">
    <credit-words default-x="834" default-y="321" font-family="sans-serif" font-style="italic" font-size="10">_</credit-words>
  </credit>
  <credit page="1">
    <credit-words default-x="907" default-y="298" font-family="serif" font-style="italic" font-size="12">P</credit-words>
  </credit>
  <credit page="1">
    <credit-words default-x="570" default-y="178" font-family="serif" font-size="26" font-weight="bold">*</credit-words>
  </credit>
  <part-list>
    <score-part id="P1">
      <part-name>Allegretto .</part-name>
      <score-instrument id="P1-I1">
        <instrument-name>Acoustic Grand Piano</instrument-name>
      </score-instrument>
      <midi-instrument id="P1-I1">
        <midi-channel>1</midi-channel>
        <midi-program>1</midi-program>
        <volume>78</volume>
      </midi-instrument>
    </score-part>
  </part-list>
  <!--= = = = = = = = = = = = = = = = = = = = = = = = = = = = =-->
  <part id="P1">
    <!--=======================================================-->
    <measure number="1" width="311">
      <print>
        <system-layout>
          <system-margins>
            <left-margin>139</left-margin>
            <right-margin>44</right-margin>
          </system-margins>
          <top-system-distance>139</top-system-distance>
        </system-layout>
        <staff-layout number="2">
          <staff-distance>72</staff-distance>
        </staff-layout>
        <measure-numbering>system</measure-numbering>
      </print>
      <attributes>
        <divisions>4</divisions>
        <key number="1">
          <fifths>-2</fifths>
        </key>
        <staves>2</staves>
        <clef number="1">
          <sign>G</sign>
          <line>3</line>
        </clef>
        <staff-details print-object="yes"></staff-details>
      </attributes>
      <direction>
        <direction-type>
          <words></words>
        </direction-type>
        <sound tempo="120"></sound>
      </direction>
      <note default-x="107">
        <pitch>
          <step>E</step>
          <alter>-1</alter>
          <octave>5</octave>
        </pitch>
        <duration>16</duration>
        <voice>1</voice>
        <type>whole</type>
        <staff>1</staff>
      </note>
      <note default-x="148">
        <pitch>
          <step>D</step>
          <octave>5</octave>
        </pitch>
        <duration>2</duration>
        <voice>1</voice>
        <type>eighth</type>
        <stem default-y="35">up</stem>
        <staff>1</staff>
        <beam number="1">begin</beam>
      </note>
      <note default-x="187">
        <pitch>
          <step>F</step>
          <octave>5</octave>
        </pitch>
        <duration>2</duration>
        <voice>1</voice>
        <type>eighth</type>
        <stem default-y="34">up</stem>
        <staff>1</staff>
        <beam number="1">continue</beam>
      </note>
      <note default-x="228">
        <pitch>
          <step>C</step>
          <octave>5</octave>
        </pitch>
        <duration>2</duration>
        <voice>1</voice>
        <type>eighth</type>
        <stem default-y="33">up</stem>
        <staff>1</staff>
        <beam number="1">continue</beam>
      </note>
      <note default-x="264">
        <pitch>
          <step>C</step>
          <octave>5</octave>
        </pitch>
        <duration>2</duration>
        <voice>1</voice>
        <type>eighth</type>
        <stem default-y="33">up</stem>
        <staff>1</staff>
        <beam number="1">end</beam>
      </note>
      <backup>
        <duration>24</duration>
      </backup>
      <forward>
        <duration>20</duration>
        <voice>2</voice>
        <staff>1</staff>
      </forward>
      <note default-x="227">
        <pitch>
          <step>F</step>
          <octave>4</octave>
        </pitch>
        <duration>4</duration>
        <tie type="start"></tie>
        <voice>2</voice>
        <type>quarter</type>
        <stem default-y="-69">down</stem>
        <staff>1</staff>
        <notations>
          <tied type="start" orientation="under"></tied>
        </notations>
      </note>
      <backup>
        <duration>24</duration>
      </backup>
      <note default-x="104">
        <pitch>
          <step>E</step>
          <octave>5</octave>
        </pitch>
        <duration>16</duration>
        <voice>3</voice>
        <type>whole</type>
        <staff>2</staff>
        <notations>
          <slur type="continue" number="1" bezier-x2="1" bezier-y2="-6" default-x="1" default-y="-31" placement="below"></slur>
          <slur type="stop" number="1" bezier-x="0" bezier-y="-6" default-x="11" default-y="-30"></slur>
        </notations>
      </note>
      <note default-x="148">
        <pitch>
          <step>G</step>
          <octave>4</octave>
        </pitch>
        <duration>2</duration>
        <voice>3</voice>
        <type>eighth</type>
        <stem default-y="-66">down</stem>
        <staff>2</staff>
        <beam number="1">begin</beam>
        <notations>
          <slur type="start" number="2" bezier-x="31" bezier-y="30" default-x="12" default-y="1" placement="above"></slur>
        </notations>
      </note>
      <note default-x="186">
        <pitch>
          <step>D</step>
          <octave>5</octave>
        </pitch>
        <duration>2</duration>
        <voice>3</voice>
        <type>eighth</type>
        <stem default-y="-60">down</stem>
        <staff>2</staff>
        <beam number="1">continue</beam>
      </note>
      <note default-x="226">
        <pitch>
          <step>C</step>
          <octave>6</octave>
        </pitch>
        <duration>2</duration>
        <voice>3</voice>
        <type>eighth</type>
        <stem default-y="-52">down</stem>
        <staff>2</staff>
        <beam number="1">continue</beam>
      </note>
      <note default-x="264">
        <pitch>
          <step>D</step>
          <octave>5</octave>
        </pitch>
        <duration>2</duration>
        <voice>3</voice>
        <type>eighth</type>
        <stem default-y="-46">down</stem>
        <staff>2</staff>
        <beam number="1">end</beam>
        <notations>
          <slur type="stop" number="2" bezier-x="-30" bezier-y="30" default-x="6" default-y="14"></slur>
        </notations>
      </note>
    </measure>
    <!--=======================================================-->
    <measure number="2" width="204">
      <note default-x="38">
        <pitch>
          <step>D</step>
          <octave>5</octave>
        </pitch>
        <duration>2</duration>
        <voice>1</voice>
        <type>eighth</type>
        <stem default-y="27">up</stem>
        <staff>1</staff>
        <beam number="1">begin</beam>
      </note>
      <note default-x="74">
        <pitch>
          <step>B</step>
          <alter>-1</alter>
          <octave>4</octave>
        </pitch>
        <duration>2</duration>
        <voice>1</voice>
        <type>eighth</type>
        <stem default-y="18">up</stem>
        <staff>1</staff>
        <beam number="1">continue</beam>
      </note>
      <note default-x="111">
        <pitch>
          <step>C</step>
          <octave>5</octave>
        </pitch>
        <duration>2</duration>
        <voice>1</voice>
        <type>eighth</type>
        <stem default-y="27">up</stem>
        <staff>1</staff>
        <beam number="1">continue</beam>
      </note>
      <direction placement="below">
        <direction-type>
          <dynamics default-y="-70" relative-x="-7">
            <p/>
          </dynamics>
        </direction-type>
        <staff>1</staff>
        <sound dynamics="56"></sound>
      </direction>
      <note default-x="149">
        <pitch>
          <step>F</step>
          <octave>4</octave>
        </pitch>
        <duration>2</duration>
        <voice>1</voice>
        <type>eighth</type>
        <stem default-y="26">up</stem>
        <staff>1</staff>
        <beam number="1">end</beam>
      </note>
      <backup>
        <duration>8</duration>
      </backup>
      <direction placement="below">
        <direction-type>
          <words default-y="-74" relative-x="0" font-family="serif" font-style="italic" font-size="9" font-weight="bold">sempre</words>
        </direction-type>
        <staff>1</staff>
      </direction>
      <note default-x="37">
        <pitch>
          <step>F</step>
          <octave>4</octave>
        </pitch>
        <duration>8</duration>
        <tie type="start"></tie>
        <tie type="stop"></tie>
        <voice>2</voice>
        <type>half</type>
        <stem default-y="-64">down</stem>
        <staff>1</staff>
        <notations>
          <tied type="start" orientation="under"></tied>
          <tied type="stop"></tied>
        </notations>
      </note>
      <backup>
        <duration>8</duration>
      </backup>
      <note default-x="36">
        <pitch>
          <step>G</step>
          <octave>4</octave>
        </pitch>
        <duration>2</duration>
        <voice>3</voice>
        <type>eighth</type>
        <stem default-y="-66">down</stem>
        <staff>2</staff>
        <beam number="1">begin</beam>
        <notations>
          <slur type="start" number="2" bezier-x="23" bezier-y="34" default-x="15" default-y="1" placement="above"></slur>
        </notations>
      </note>
      <note default-x="73">
        <pitch>
          <step>D</step>
          <octave>5</octave>
        </pitch>
        <duration>2</duration>
        <voice>3</voice>
        <type>eighth</type>
        <stem default-y="-60">down</stem>
        <staff>2</staff>
        <beam number="1">continue</beam>
      </note>
      <note default-x="112">
        <pitch>
          <step>C</step>
          <octave>6</octave>
        </pitch>
        <duration>2</duration>
        <voice>3</voice>
        <type>eighth</type>
        <stem default-y="-54">down</stem>
        <staff>2</staff>
        <beam number="1">continue</beam>
      </note>
      <note default-x="149">
        <pitch>
          <step>D</step>
          <octave>5</octave>
        </pitch>
        <duration>2</duration>
        <voice>3</voice>
        <type>eighth</type>
        <stem default-y="-48">down</stem>
        <staff>2</staff>
        <beam number="1">end</beam>
        <notations>
          <slur type="stop" number="2" bezier-x="-25" bezier-y="31" default-x="9" default-y="14"></slur>
        </notations>
      </note>
    </measure>
    <!--=======================================================-->
    <measure number="3" width="196">
      <note default-x="29">
        <pitch>
          <step>D</step>
          <octave>5</octave>
        </pitch>
        <duration>2</duration>
        <voice>1</voice>
        <type>eighth</type>
        <stem default-y="34">up</stem>
        <staff>1</staff>
        <beam number="1">begin</beam>
      </note>
      <note default-x="66">
        <pitch>
          <step>F</step>
          <octave>5</octave>
        </pitch>
        <duration>2</duration>
        <voice>1</voice>
        <type>eighth</type>
        <stem default-y="25">up</stem>
        <staff>1</staff>
        <beam number="1">continue</beam>
      </note>
      <note default-x="104">
        <pitch>
          <step>C</step>
          <octave>5</octave>
        </pitch>
        <duration>2</duration>
        <voice>1</voice>
        <type>eighth</type>
        <stem default-y="34">up</stem>
        <staff>1</staff>
        <beam number="1">continue</beam>
      </note>
      <note default-x="143">
        <pitch>
          <step>C</step>
          <octave>5</octave>
        </pitch>
        <duration>2</duration>
        <voice>1</voice>
        <type>eighth</type>
        <stem default-y="32">up</stem>
        <staff>1</staff>
        <beam number="1">end</beam>
      </note>
      <backup>
        <duration>8</duration>
      </backup>
      <note default-x="29">
        <pitch>
          <step>F</step>
          <octave>4</octave>
        </pitch>
        <duration>4</duration>
        <tie type="stop"></tie>
        <voice>2</voice>
        <type>quarter</type>
        <stem default-y="-67">down</stem>
        <staff>1</staff>
        <notations>
          <tied type="stop"></tied>
        </notations>
      </note>
      <note default-x="105">
        <pitch>
          <step>F</step>
          <octave>4</octave>
        </pitch>
        <duration>4</duration>
        <tie type="start"></tie>
        <voice>2</voice>
        <type>quarter</type>
        <stem default-y="-70">down</stem>
        <staff>1</staff>
        <notations>
          <tied type="start" orientation="under"></tied>
        </notations>
      </note>
      <backup>
        <duration>8</duration>
      </backup>
      <note default-x="29">
        <pitch>
          <step>G</step>
          <octave>4</octave>
        </pitch>
        <duration>2</duration>
        <voice>3</voice>
        <type>eighth</type>
        <stem default-y="-68">down</stem>
        <staff>2</staff>
        <beam number="1">begin</beam>
        <notations>
          <slur type="start" number="2" bezier-x="25" bezier-y="38" default-x="6" default-y="-6" placement="above"></slur>
        </notations>
      </note>
      <note default-x="68">
        <pitch>
          <step>D</step>
          <octave>5</octave>
        </pitch>
        <duration>2</duration>
        <voice>3</voice>
        <type>eighth</type>
        <stem default-y="-60">down</stem>
        <staff>2</staff>
        <beam number="1">continue</beam>
      </note>
      <note default-x="106">
        <pitch>
          <step>C</step>
          <octave>6</octave>
        </pitch>
        <duration>2</duration>
        <voice>3</voice>
        <type>eighth</type>
        <stem default-y="-53">down</stem>
        <staff>2</staff>
        <beam number="1">continue</beam>
      </note>
      <note default-x="142">
        <pitch>
          <step>D</step>
          <octave>5</octave>
        </pitch>
        <duration>2</duration>
        <voice>3</voice>
        <type>eighth</type>
        <stem default-y="-46">down</stem>
        <staff>2</staff>
        <beam number="1">end</beam>
        <notations>
          <slur type="stop" number="2" bezier-x="-29" bezier-y="32" default-x="4" default-y="15"></slur>
        </notations>
      </note>
    </measure>
    <!--=======================================================-->
    <measure number="4" width="196">
      <note default-x="36">
        <pitch>
          <step>D</step>
          <octave>5</octave>
        </pitch>
        <duration>2</duration>
        <voice>1</voice>
        <type>eighth</type>
        <stem default-y="28">up</stem>
        <staff>1</staff>
        <beam number="1">begin</beam>
        <notations>
          <slur type="start" number="2" bezier-x="21" bezier-y="-6" default-x="24" default-y="33" placement="above"></slur>
        </notations>
      </note>
      <note default-x="74">
        <pitch>
          <step>B</step>
          <alter>-1</alter>
          <octave>4</octave>
        </pitch>
        <duration>2</duration>
        <voice>1</voice>
        <type>eighth</type>
        <stem default-y="17">up</stem>
        <staff>1</staff>
        <beam number="1">end</beam>
      </note>
      <note default-x="112">
        <pitch>
          <step>C</step>
          <octave>5</octave>
        </pitch>
        <duration>4</duration>
        <voice>1</voice>
        <type>quarter</type>
        <stem default-y="17">up</stem>
        <staff>1</staff>
        <notations>
          <slur type="stop" number="2" bezier-x="-18" bezier-y="12" default-x="8" default-y="5"></slur>
        </notations>
      </note>
      <backup>
        <duration>8</duration>
      </backup>
      <note default-x="36">
        <pitch>
          <step>F</step>
          <octave>4</octave>
        </pitch>
        <duration>8</duration>
        <tie type="start"></tie>
        <tie type="stop"></tie>
        <voice>2</voice>
        <type>half</type>
        <stem default-y="-67">down</stem>
        <staff>1</staff>
        <notations>
          <tied type="start" orientation="under"></tied>
          <tied type="stop"></tied>
        </notations>
      </note>
      <backup>
        <duration>8</duration>
      </backup>
      <note default-x="34">
        <pitch>
          <step>G</step>
          <octave>4</octave>
        </pitch>
        <duration>2</duration>
        <voice>3</voice>
        <type>eighth</type>
        <stem default-y="-67">down</stem>
        <staff>2</staff>
        <beam number="1">begin</beam>
        <notations>
          <slur type="start" number="2" bezier-x="27" bezier-y="34" default-x="10" default-y="-6" placement="above"></slur>
        </notations>
      </note>
      <note default-x="74">
        <pitch>
          <step>D</step>
          <octave>5</octave>
        </pitch>
        <duration>2</duration>
        <voice>3</voice>
        <type>eighth</type>
        <stem default-y="-59">down</stem>
        <staff>2</staff>
        <beam number="1">continue</beam>
      </note>
      <note default-x="112">
        <pitch>
          <step>C</step>
          <octave>6</octave>
        </pitch>
        <duration>2</duration>
        <voice>3</voice>
        <type>eighth</type>
        <stem default-y="-52">down</stem>
        <staff>2</staff>
        <beam number="1">continue</beam>
      </note>
      <note default-x="149">
        <pitch>
          <step>D</step>
          <octave>5</octave>
        </pitch>
        <duration>2</duration>
        <voice>3</voice>
        <type>eighth</type>
        <stem default-y="-45">down</stem>
        <staff>2</staff>
        <beam number="1">end</beam>
        <notations>
          <slur type="stop" number="2" bezier-x="-34" bezier-y="22" default-x="4" default-y="21"></slur>
        </notations>
      </note>
    </measure>
    <!--=======================================================-->
    <measure number="5" width="312">
      <print new-system="yes">
        <system-layout>
          <system-margins>
            <left-margin>6</left-margin>
            <right-margin>48</right-margin>
          </system-margins>
          <system-distance>119</system-distance>
        </system-layout>
        <staff-layout number="2">
          <staff-distance>80</staff-distance>
        </staff-layout>
      </print>
      <attributes>
        <staff-details print-object="yes"></staff-details>
      </attributes>
      <note default-x="108">
        <pitch>
          <step>D</step>
          <octave>5</octave>
        </pitch>
        <duration>2</duration>
        <voice>1</voice>
        <type>eighth</type>
        <stem default-y="29">up</stem>
        <staff>1</staff>
        <beam number="1">begin</beam>
        <notations>
          <slur type="start" number="2" bezier-x="84" bezier-y="39" default-x="17" default-y="34" placement="above"></slur>
        </notations>
      </note>
      <note default-x="157">
        <pitch>
          <step>F</step>
          <octave>5</octave>
        </pitch>
        <duration>2</duration>
        <voice>1</voice>
        <type>eighth</type>
        <stem default-y="29">up</stem>
        <staff>1</staff>
        <beam number="1">continue</beam>
      </note>
      <note default-x="202">
        <pitch>
          <step>C</step>
          <octave>5</octave>
        </pitch>
        <duration>2</duration>
        <voice>1</voice>
        <type>eighth</type>
        <stem default-y="29">up</stem>
        <staff>1</staff>
        <beam number="1">continue</beam>
      </note>
      <note default-x="252">
        <pitch>
          <step>C</step>
          <octave>5</octave>
        </pitch>
        <duration>2</duration>
        <voice>1</voice>
        <type>eighth</type>
        <stem default-y="29">up</stem>
        <staff>1</staff>
        <beam number="1">end</beam>
      </note>
      <backup>
        <duration>8</duration>
      </backup>
      <note default-x="109">
        <pitch>
          <step>F</step>
          <octave>4</octave>
        </pitch>
        <duration>4</duration>
        <tie type="stop"></tie>
        <voice>2</voice>
        <type>quarter</type>
        <stem default-y="-71">down</stem>
        <staff>1</staff>
        <notations>
          <tied type="stop"></tied>
        </notations>
      </note>
      <note default-x="201">
        <pitch>
          <step>F</step>
          <octave>4</octave>
        </pitch>
        <duration>4</duration>
        <tie type="start"></tie>
        <voice>2</voice>
        <type>quarter</type>
        <stem default-y="-69">down</stem>
        <staff>1</staff>
        <notations>
          <tied type="start" orientation="under"></tied>
        </notations>
      </note>
      <backup>
        <duration>8</duration>
      </backup>
      <note default-x="111">
        <pitch>
          <step>G</step>
          <octave>4</octave>
        </pitch>
        <duration>2</duration>
        <voice>3</voice>
        <type>eighth</type>
        <stem default-y="-67">down</stem>
        <staff>2</staff>
        <beam number="1">begin</beam>
        <notations>
          <slur type="start" number="3" bezier-x="31" bezier-y="39" default-x="11" default-y="-10" placement="above"></slur>
        </notations>
      </note>
      <note default-x="157">
        <pitch>
          <step>D</step>
          <octave>5</octave>
        </pitch>
        <duration>2</duration>
        <voice>3</voice>
        <type>eighth</type>
        <stem default-y="-60">down</stem>
        <staff>2</staff>
        <beam number="1">continue</beam>
      </note>
      <note default-x="203">
        <pitch>
          <step>C</step>
          <octave>6</octave>
        </pitch>
        <duration>2</duration>
        <voice>3</voice>
        <type>eighth</type>
        <stem default-y="-54">down</stem>
        <staff>2</staff>
        <beam number="1">continue</beam>
      </note>
      <note default-x="252">
        <pitch>
          <step>D</step>
          <octave>5</octave>
        </pitch>
        <duration>2</duration>
        <voice>3</voice>
        <type>eighth</type>
        <stem default-y="-48">down</stem>
        <staff>2</staff>
        <beam number="1">end</beam>
        <notations>
          <slur type="stop" number="3" bezier-x="-39" bezier-y="28" default-x="8" default-y="19"></slur>
        </notations>
      </note>
    </measure>
    <!--=======================================================-->
    <measure number="6" width="261">
      <note default-x="34">
        <pitch>
          <step>D</step>
          <octave>5</octave>
        </pitch>
        <duration>2</duration>
        <voice>1</voice>
        <type>eighth</type>
        <stem default-y="28">up</stem>
        <staff>1</staff>
        <beam number="1">begin</beam>
      </note>
      <note default-x="82">
        <pitch>
          <step>B</step>
          <alter>-1</alter>
          <octave>4</octave>
        </pitch>
        <duration>2</duration>
        <voice>1</voice>
        <type>eighth</type>
        <stem default-y="27">up</stem>
        <staff>1</staff>
        <beam number="1">continue</beam>
      </note>
      <note default-x="131">
        <pitch>
          <step>C</step>
          <octave>5</octave>
        </pitch>
        <duration>2</duration>
        <voice>1</voice>
        <type>eighth</type>
        <stem default-y="25">up</stem>
        <staff>1</staff>
        <beam number="1">continue</beam>
      </note>
      <note default-x="178">
        <pitch>
          <step>A</step>
          <octave>4</octave>
        </pitch>
        <duration>1</duration>
        <voice>1</voice>
        <type>16th</type>
        <stem default-y="14">up</stem>
        <staff>1</staff>
        <beam number="1">continue</beam>
        <beam number="2">begin</beam>
      </note>
      <note default-x="214">
        <pitch>
          <step>F</step>
          <octave>4</octave>
        </pitch>
        <duration>1</duration>
        <voice>1</voice>
        <type>16th</type>
        <stem default-y="22">up</stem>
        <staff>1</staff>
        <beam number="1">end</beam>
        <beam number="2">end</beam>
      </note>
      <backup>
        <duration>8</duration>
      </backup>
      <note default-x="34">
        <pitch>
          <step>F</step>
          <octave>4</octave>
        </pitch>
        <duration>8</duration>
        <tie type="stop"></tie>
        <voice>2</voice>
        <type>half</type>
        <stem default-y="-70">down</stem>
        <staff>1</staff>
        <notations>
          <tied type="stop"></tied>
        </notations>
      </note>
      <backup>
        <duration>8</duration>
      </backup>
      <note default-x="34">
        <pitch>
          <step>G</step>
          <octave>4</octave>
        </pitch>
        <duration>2</duration>
        <voice>3</voice>
        <type>eighth</type>
        <stem default-y="-62">down</stem>
        <staff>2</staff>
        <beam number="1">begin</beam>
        <notations>
          <slur type="start" number="3" bezier-x="43" bezier-y="45" default-x="8" default-y="-6" placement="above"></slur>
        </notations>
      </note>
      <note default-x="81">
        <pitch>
          <step>D</step>
          <octave>5</octave>
        </pitch>
        <duration>2</duration>
        <voice>3</voice>
        <type>eighth</type>
        <stem default-y="-57">down</stem>
        <staff>2</staff>
        <beam number="1">continue</beam>
      </note>
      <note default-x="132">
        <pitch>
          <step>C</step>
          <octave>6</octave>
        </pitch>
        <duration>2</duration>
        <voice>3</voice>
        <type>eighth</type>
        <stem default-y="-51">down</stem>
        <staff>2</staff>
        <beam number="1">continue</beam>
      </note>
      <note default-x="179">
        <pitch>
          <step>D</step>
          <octave>5</octave>
        </pitch>
        <duration>2</duration>
        <voice>3</voice>
        <type>eighth</type>
        <stem default-y="-45">down</stem>
        <staff>2</staff>
        <beam number="1">end</beam>
        <notations>
          <slur type="stop" number="3" bezier-x="-44" bezier-y="22" default-x="-7" default-y="23"></slur>
        </notations>
      </note>
    </measure>
    <!--=======================================================-->
    <measure number="7" width="234">
      <direction placement="below">
        <direction-type>
          <wedge type="crescendo" spread="0" default-x="-1" default-y="-70"></wedge>
        </direction-type>
        <staff>1</staff>
      </direction>
      <note default-x="30">
        <pitch>
          <step>F</step>
          <octave>4</octave>
        </pitch>
        <duration>2</duration>
        <voice>1</voice>
        <type>eighth</type>
        <stem default-y="39">up</stem>
        <staff>1</staff>
        <beam number="1">begin</beam>
      </note>
      <note default-x="78">
        <pitch>
          <step>E</step>
          <alter>-1</alter>
          <octave>5</octave>
        </pitch>
        <duration>2</duration>
        <voice>1</voice>
        <type>eighth</type>
        <stem default-y="39">up</stem>
        <staff>1</staff>
        <beam number="1">continue</beam>
      </note>
      <note default-x="126">
        <pitch>
          <step>D</step>
          <octave>5</octave>
        </pitch>
        <duration>2</duration>
        <voice>1</voice>
        <type>eighth</type>
        <stem default-y="29">up</stem>
        <staff>1</staff>
        <beam number="1">continue</beam>
      </note>
      <note default-x="174">
        <pitch>
          <step>D</step>
          <octave>5</octave>
        </pitch>
        <duration>2</duration>
        <voice>1</voice>
        <type>eighth</type>
        <stem default-y="36">up</stem>
        <staff>1</staff>
        <beam number="1">end</beam>
        <notations>
          <slur type="stop" number="2" bezier-x="-107" bezier-y="30" default-x="0" default-y="43"></slur>
        </notations>
      </note>
      <backup>
        <duration>8</duration>
      </backup>
      <forward>
        <duration>2</duration>
        <voice>2</voice>
        <staff>1</staff>
      </forward>
      <note default-x="79">
        <pitch>
          <step>G</step>
          <octave>4</octave>
        </pitch>
        <duration>4</duration>
        <voice>2</voice>
        <type>quarter</type>
        <stem default-y="-101">down</stem>
        <staff>1</staff>
      </note>
      <direction>
        <direction-type>
          <wedge type="stop" spread="13" default-x="14"></wedge>
        </direction-type>
        <staff>1</staff>
      </direction>
      <note default-x="175">
        <pitch>
          <step>F</step>
          <octave>4</octave>
        </pitch>
        <duration>4</duration>
        <voice>2</voice>
        <type>quarter</type>
        <stem default-y="-135">down</stem>
        <staff>1</staff>
      </note>
      <backup>
        <duration>10</duration>
      </backup>
      <forward>
        <duration>4</duration>
        <voice>3</voice>
        <staff>1</staff>
      </forward>
      <note default-x="127">
        <pitch>
          <step>F</step>
          <octave>4</octave>
        </pitch>
        <duration>4</duration>
        <voice>3</voice>
        <type>quarter</type>
        <stem default-y="-156">down</stem>
        <staff>1</staff>
      </note>
      <backup>
        <duration>8</duration>
      </backup>
      <note default-x="30">
        <pitch>
          <step>D</step>
          <octave>4</octave>
        </pitch>
        <duration>4</duration>
        <voice>4</voice>
        <type>quarter</type>
        <stem default-y="-73">down</stem>
        <staff>2</staff>
      </note>
    </measure>
    <!--=======================================================-->
    <measure number="8" width="228">
      <direction placement="below">
        <direction-type>
          <wedge type="diminuendo" spread="7" default-x="15" default-y="-52"></wedge>
        </direction-type>
        <staff>1</staff>
      </direction>
      <note default-x="43">
        <pitch>
          <step>C</step>
          <octave>5</octave>
        </pitch>
        <duration>2</duration>
        <voice>1</voice>
        <type>eighth</type>
        <stem default-y="20">up</stem>
        <staff>1</staff>
        <beam number="1">begin</beam>
      </note>
      <direction>
        <direction-type>
          <wedge type="stop" spread="0" default-x="16"></wedge>
        </direction-type>
        <staff>1</staff>
      </direction>
      <note default-x="89">
        <pitch>
          <step>A</step>
          <octave>4</octave>
        </pitch>
        <duration>2</duration>
        <voice>1</voice>
        <type>eighth</type>
        <stem default-y="12">up</stem>
        <staff>1</staff>
        <beam number="1">end</beam>
      </note>
      <note default-x="140">
        <pitch>
          <step>B</step>
          <alter>-1</alter>
          <octave>4</octave>
        </pitch>
        <duration>4</duration>
        <voice>1</voice>
        <type>quarter</type>
        <stem default-y="17">up</stem>
        <staff>1</staff>
      </note>
      <backup>
        <duration>8</duration>
      </backup>
      <note default-x="45">
        <pitch>
          <step>C</step>
          <octave>6</octave>
        </pitch>
        <duration>2</duration>
        <voice>2</voice>
        <type>eighth</type>
        <stem default-y="50">up</stem>
        <staff>2</staff>
        <beam number="1">begin</beam>
        <notations>
          <slur type="start" number="2" bezier-x="14" bezier-y="10" default-x="15" default-y="54" placement="above"></slur>
        </notations>
      </note>
      <note default-x="91">
        <pitch>
          <step>A</step>
          <octave>5</octave>
        </pitch>
        <duration>2</duration>
        <voice>2</voice>
        <type>eighth</type>
        <stem default-y="43">up</stem>
        <staff>2</staff>
        <beam number="1">end</beam>
        <notations>
          <slur type="stop" number="2" bezier-x="-10" bezier-y="14" default-x="13" default-y="47"></slur>
        </notations>
      </note>
      <note default-x="139">
        <pitch>
          <step>B</step>
          <octave>5</octave>
        </pitch>
        <duration>4</duration>
        <voice>2</voice>
        <type>quarter</type>
        <stem default-y="50">up</stem>
        <staff>2</staff>
      </note>
      <backup>
        <duration>8</duration>
      </backup>
      <forward>
        <duration>4</duration>
        <voice>3</voice>
        <staff>2</staff>
      </forward>
      <note default-x="141">
        <pitch>
          <step>G</step>
          <octave>5</octave>
        </pitch>
        <duration>4</duration>
        <voice>3</voice>
        <type>quarter</type>
        <stem default-y="-32">down</stem>
        <staff>2</staff>
      </note>
      <backup>
        <duration>8</duration>
      </backup>
      <note default-x="45">
        <pitch>
          <step>D</step>
          <octave>5</octave>
        </pitch>
        <duration>6</duration>
        <voice>4</voice>
        <type>quarter</type>
        <dot/>
        <stem default-y="-44">down</stem>
        <staff>2</staff>
      </note>
      <barline location="right">
        <bar-style>light-heavy</bar-style>
      </barline>
    </measure>
    <!--=======================================================-->
    <measure number="9" width="340">
      <print new-system="yes">
        <system-layout>
          <system-margins>
            <left-margin>6</left-margin>
            <right-margin>46</right-margin>
          </system-margins>
          <system-distance>101</system-distance>
        </system-layout>
        <staff-layout number="2">
          <staff-distance>53</staff-distance>
        </staff-layout>
      </print>
      <attributes>
        <staff-details print-object="yes"></staff-details>
      </attributes>
      <note default-x="109">
        <pitch>
          <step>C</step>
          <octave>5</octave>
        </pitch>
        <duration>2</duration>
        <voice>1</voice>
        <type>eighth</type>
        <stem default-y="28">up</stem>
        <staff>1</staff>
        <beam number="1">begin</beam>
        <notations>
          <slur type="start" number="2" bezier-x="46" bezier-y="-26" default-x="15" default-y="-33" placement="below"></slur>
        </notations>
      </note>
      <note default-x="157">
        <pitch>
          <step>C</step>
          <octave>5</octave>
        </pitch>
        <duration>2</duration>
        <voice>1</voice>
        <type>eighth</type>
        <stem default-y="28">up</stem>
        <staff>1</staff>
        <beam number="1">continue</beam>
      </note>
      <note default-x="209">
        <pitch>
          <step>F</step>
          <octave>4</octave>
        </pitch>
        <duration>2</duration>
        <voice>1</voice>
        <type>eighth</type>
        <stem default-y="28">up</stem>
        <staff>1</staff>
        <beam number="1">continue</beam>
      </note>
      <note default-x="291">
        <pitch>
          <step>G</step>
          <octave>4</octave>
        </pitch>
        <duration>1</duration>
        <voice>1</voice>
        <type>16th</type>
        <stem default-y="27">up</stem>
        <staff>1</staff>
        <beam number="1">end</beam>
        <beam number="2">backward hook</beam>
        <notations>
          <slur type="stop" number="2" bezier-x="-52" bezier-y="-11" default-x="1" default-y="-44"></slur>
        </notations>
      </note>
      <backup>
        <duration>7</duration>
      </backup>
      <note default-x="108">
        <pitch>
          <step>D</step>
          <octave>4</octave>
        </pitch>
        <duration>2</duration>
        <voice>2</voice>
        <type>eighth</type>
        <stem default-y="-81">down</stem>
        <staff>2</staff>
        <beam number="1">begin</beam>
        <notations>
          <slur type="start" number="2" bezier-x="28" bezier-y="42" default-x="10" default-y="-20" placement="above"></slur>
        </notations>
      </note>
      <note default-x="158">
        <pitch>
          <step>D</step>
          <octave>5</octave>
        </pitch>
        <duration>2</duration>
        <voice>2</voice>
        <type>eighth</type>
        <stem default-y="-74">down</stem>
        <staff>2</staff>
        <beam number="1">continue</beam>
      </note>
      <note default-x="209">
        <pitch>
          <step>C</step>
          <octave>6</octave>
        </pitch>
        <duration>2</duration>
        <voice>2</voice>
        <type>eighth</type>
        <stem default-y="-66">down</stem>
        <staff>2</staff>
        <beam number="1">continue</beam>
      </note>
      <note default-x="258">
        <pitch>
          <step>D</step>
          <octave>5</octave>
        </pitch>
        <duration>2</duration>
        <voice>2</voice>
        <type>eighth</type>
        <stem default-y="-60">down</stem>
        <staff>2</staff>
        <beam number="1">end</beam>
        <notations>
          <slur type="stop" number="2" bezier-x="-43" bezier-y="23" default-x="-1" default-y="23"></slur>
        </notations>
      </note>
    </measure>
    <!--=======================================================-->
    <measure number="10" width="234">
      <note default-x="34">
        <pitch>
          <step>A</step>
          <octave>4</octave>
        </pitch>
        <duration>2</duration>
        <voice>1</voice>
        <type>eighth</type>
        <stem default-y="25">up</stem>
        <staff>1</staff>
        <beam number="1">begin</beam>
      </note>
      <note default-x="86">
        <pitch>
          <step>C</step>
          <octave>5</octave>
        </pitch>
        <duration>2</duration>
        <voice>1</voice>
        <type>eighth</type>
        <stem default-y="25">up</stem>
        <staff>1</staff>
        <beam number="1">continue</beam>
      </note>
      <note default-x="132">
        <pitch>
          <step>B</step>
          <alter>-1</alter>
          <octave>4</octave>
        </pitch>
        <duration>2</duration>
        <voice>1</voice>
        <type>eighth</type>
        <stem default-y="24">up</stem>
        <staff>1</staff>
        <beam number="1">continue</beam>
      </note>
      <note default-x="180">
        <pitch>
          <step>B</step>
          <alter>-1</alter>
          <octave>4</octave>
        </pitch>
        <duration>2</duration>
        <voice>1</voice>
        <type>eighth</type>
        <stem default-y="23">up</stem>
        <staff>1</staff>
        <beam number="1">end</beam>
      </note>
      <backup>
        <duration>8</duration>
      </backup>
      <note default-x="35">
        <pitch>
          <step>C</step>
          <octave>6</octave>
        </pitch>
        <duration>2</duration>
        <voice>2</voice>
        <type>eighth</type>
        <stem default-y="-46">down</stem>
        <staff>2</staff>
        <beam number="1">begin</beam>
      </note>
      <note default-x="86">
        <pitch>
          <step>D</step>
          <octave>5</octave>
        </pitch>
        <duration>2</duration>
        <voice>2</voice>
        <type>eighth</type>
        <stem default-y="-46">down</stem>
        <staff>2</staff>
        <beam number="1">continue</beam>
      </note>
      <note default-x="132">
        <pitch>
          <step>B</step>
          <octave>5</octave>
        </pitch>
        <duration>2</duration>
        <voice>2</voice>
        <type>eighth</type>
        <stem default-y="-37">down</stem>
        <staff>2</staff>
        <beam number="1">continue</beam>
      </note>
      <note default-x="181">
        <pitch>
          <step>D</step>
          <octave>5</octave>
        </pitch>
        <duration>2</duration>
        <voice>2</voice>
        <type>eighth</type>
        <stem default-y="-46">down</stem>
        <staff>2</staff>
        <beam number="1">end</beam>
      </note>
    </measure>
    <!--=======================================================-->
    <measure number="11" width="258">
      <note default-x="31">
        <pitch>
          <step>C</step>
          <octave>5</octave>
        </pitch>
        <duration>2</duration>
        <voice>1</voice>
        <type>eighth</type>
        <stem default-y="23">up</stem>
        <staff>1</staff>
        <beam number="1">begin</beam>
        <notations>
          <slur type="start" number="2" bezier-x="41" bezier-y="-24" default-x="15" default-y="-33" placement="below"></slur>
        </notations>
      </note>
      <note default-x="80">
        <pitch>
          <step>C</step>
          <octave>5</octave>
        </pitch>
        <duration>2</duration>
        <voice>1</voice>
        <type>eighth</type>
        <stem default-y="22">up</stem>
        <staff>1</staff>
        <beam number="1">continue</beam>
      </note>
      <note default-x="129">
        <pitch>
          <step>F</step>
          <octave>4</octave>
        </pitch>
        <duration>4</duration>
        <voice>1</voice>
        <type>quarter</type>
        <stem default-y="-3">up</stem>
        <staff>1</staff>
      </note>
      <backup>
        <duration>8</duration>
      </backup>
      <note default-x="32">
        <pitch>
          <step>D</step>
          <octave>4</octave>
        </pitch>
        <duration>2</duration>
        <voice>2</voice>
        <type>eighth</type>
        <stem default-y="-83">down</stem>
        <staff>2</staff>
        <beam number="1">begin</beam>
      </note>
      <note default-x="78">
        <pitch>
          <step>D</step>
          <octave>5</octave>
        </pitch>
        <duration>2</duration>
        <voice>2</voice>
        <type>eighth</type>
        <stem default-y="-75">down</stem>
        <staff>2</staff>
        <beam number="1">continue</beam>
      </note>
      <note default-x="128">
        <pitch>
          <step>C</step>
          <octave>6</octave>
        </pitch>
        <duration>2</duration>
        <voice>2</voice>
        <type>eighth</type>
        <stem default-y="-66">down</stem>
        <staff>2</staff>
        <beam number="1">continue</beam>
      </note>
    </measure>
    <!--=======================================================-->
    <measure number="12" width="206">
      <note default-x="32">
        <pitch>
          <step>A</step>
          <octave>4</octave>
        </pitch>
        <duration>2</duration>
        <voice>1</voice>
        <type>eighth</type>
        <stem default-y="14">up</stem>
        <staff>1</staff>
        <beam number="1">begin</beam>
        <notations>
          <slur type="start" number="3" bezier-x="29" bezier-y="-16" default-x="8" default-y="-35" placement="below"></slur>
        </notations>
      </note>
      <note default-x="81">
        <pitch>
          <step>C</step>
          <octave>5</octave>
        </pitch>
        <duration>2</duration>
        <voice>1</voice>
        <type>eighth</type>
        <stem default-y="25">up</stem>
        <staff>1</staff>
        <beam number="1">end</beam>
      </note>
      <note default-x="131">
        <pitch>
          <step>B</step>
          <alter>-1</alter>
          <octave>4</octave>
        </pitch>
        <duration>4</duration>
        <voice>1</voice>
        <type>quarter</type>
        <stem default-y="20">up</stem>
        <staff>1</staff>
        <notations>
          <slur type="stop" number="3" bezier-x="-32" bezier-y="-9" default-x="3" default-y="-36"></slur>
        </notations>
      </note>
      <backup>
        <duration>8</duration>
      </backup>
      <note default-x="32">
        <pitch>
          <step>C</step>
          <octave>6</octave>
        </pitch>
        <duration>2</duration>
        <voice>2</voice>
        <type>eighth</type>
        <stem default-y="-32">down</stem>
        <staff>2</staff>
        <beam number="1">begin</beam>
        <notations>
          <slur type="start" number="3" bezier-x="26" bezier-y="5" default-x="21" default-y="35" placement="above"></slur>
        </notations>
      </note>
      <note default-x="81">
        <pitch>
          <step>D</step>
          <octave>5</octave>
        </pitch>
        <duration>2</duration>
        <tie type="start"></tie>
        <voice>2</voice>
        <type>eighth</type>
        <stem default-y="-45">down</stem>
        <staff>2</staff>
        <beam number="1">end</beam>
        <notations>
          <tied type="start" orientation="under"></tied>
        </notations>
      </note>
      <note default-x="130">
        <pitch>
          <step>D</step>
          <octave>5</octave>
        </pitch>
        <duration>4</duration>
        <tie type="stop"></tie>
        <voice>2</voice>
        <type>quarter</type>
        <stem default-y="-44">down</stem>
        <staff>2</staff>
        <notations>
          <tied type="stop"></tied>
        </notations>
      </note>
      <note default-x="130">
        <chord/>
        <pitch>
          <step>B</step>
          <octave>5</octave>
        </pitch>
        <duration>4</duration>
        <voice>2</voice>
        <type>quarter</type>
        <stem default-y="-44">down</stem>
        <staff>2</staff>
        <notations>
          <slur type="stop" number="3" bezier-x="-26" bezier-y="7" default-x="3" default-y="30"></slur>
        </notations>
      </note>
    </measure>
    <!--=======================================================-->
    <measure number="13" width="335">
      <print new-system="yes">
        <system-layout>
          <system-margins>
            <left-margin>6</left-margin>
            <right-margin>49</right-margin>
          </system-margins>
          <system-distance>92</system-distance>
        </system-layout>
        <staff-layout number="2">
          <staff-distance>57</staff-distance>
        </staff-layout>
      </print>
      <attributes>
        <key>
          <fifths>-2</fifths>
        </key>
        <clef number="2">
          <sign>F</sign>
          <line>4</line>
        </clef>
        <staff-details print-object="yes"></staff-details>
      </attributes>
      <note default-x="109">
        <pitch>
          <step>C</step>
          <octave>5</octave>
        </pitch>
        <duration>2</duration>
        <voice>1</voice>
        <type>eighth</type>
        <stem default-y="27">up</stem>
        <staff>1</staff>
        <beam number="1">begin</beam>
        <notations>
          <slur type="start" number="3" bezier-x="39" bezier-y="-30" default-x="9" default-y="-26" placement="below"></slur>
        </notations>
      </note>
      <note default-x="158">
        <pitch>
          <step>C</step>
          <octave>5</octave>
        </pitch>
        <duration>2</duration>
        <voice>1</voice>
        <type>eighth</type>
        <stem default-y="23">up</stem>
        <staff>1</staff>
        <beam number="1">continue</beam>
      </note>
      <note default-x="207">
        <pitch>
          <step>F</step>
          <octave>4</octave>
        </pitch>
        <duration>2</duration>
        <voice>1</voice>
        <type>eighth</type>
        <stem default-y="20">up</stem>
        <staff>1</staff>
        <beam number="1">continue</beam>
      </note>
      <note default-x="287">
        <pitch>
          <step>G</step>
          <octave>4</octave>
        </pitch>
        <duration>1</duration>
        <voice>1</voice>
        <type>16th</type>
        <stem default-y="13">up</stem>
        <staff>1</staff>
        <beam number="1">end</beam>
        <beam number="2">backward hook</beam>
        <notations>
          <slur type="stop" number="3" bezier-x="-50" bezier-y="-14" default-x="2" default-y="-44"></slur>
        </notations>
      </note>
      <backup>
        <duration>7</duration>
      </backup>
      <note default-x="109">
        <pitch>
          <step>F</step>
          <octave>2</octave>
        </pitch>
        <duration>2</duration>
        <voice>2</voice>
        <type>eighth</type>
        <stem default-y="-81">down</stem>
        <staff>2</staff>
        <beam number="1">begin</beam>
      </note>
      <note default-x="159">
        <pitch>
          <step>F</step>
          <octave>3</octave>
        </pitch>
        <duration>2</duration>
        <voice>2</voice>
        <type>eighth</type>
        <stem default-y="-73">down</stem>
        <staff>2</staff>
        <beam number="1">continue</beam>
      </note>
      <note default-x="207">
        <pitch>
          <step>E</step>
          <alter>-1</alter>
          <octave>4</octave>
        </pitch>
        <duration>2</duration>
        <voice>2</voice>
        <type>eighth</type>
        <stem default-y="-64">down</stem>
        <staff>2</staff>
        <beam number="1">continue</beam>
      </note>
      <note default-x="254">
        <pitch>
          <step>F</step>
          <octave>3</octave>
        </pitch>
        <duration>2</duration>
        <voice>2</voice>
        <type>eighth</type>
        <stem default-y="-57">down</stem>
        <staff>2</staff>
        <beam number="1">end</beam>
      </note>
    </measure>
    <!--=======================================================-->
    <measure number="14" width="237">
      <note default-x="35">
        <pitch>
          <step>A</step>
          <octave>4</octave>
        </pitch>
        <duration>2</duration>
        <voice>1</voice>
        <type>eighth</type>
        <stem default-y="23">up</stem>
        <staff>1</staff>
        <beam number="1">begin</beam>
        <notations>
          <slur type="start" number="3" bezier-x="28" bezier-y="-14" default-x="17" default-y="-34" placement="below"></slur>
        </notations>
      </note>
      <note default-x="84">
        <pitch>
          <step>C</step>
          <octave>5</octave>
        </pitch>
        <duration>2</duration>
        <voice>1</voice>
        <type>eighth</type>
        <stem default-y="25">up</stem>
        <staff>1</staff>
        <beam number="1">continue</beam>
      </note>
      <note default-x="132">
        <pitch>
          <step>B</step>
          <alter>-1</alter>
          <octave>4</octave>
        </pitch>
        <duration>2</duration>
        <voice>1</voice>
        <type>eighth</type>
        <stem default-y="25">up</stem>
        <staff>1</staff>
        <beam number="1">continue</beam>
        <notations>
          <slur type="stop" number="3" bezier-x="-30" bezier-y="-6" default-x="7" default-y="-43"></slur>
        </notations>
      </note>
      <note default-x="180">
        <pitch>
          <step>B</step>
          <alter>-1</alter>
          <octave>4</octave>
        </pitch>
        <duration>2</duration>
        <voice>1</voice>
        <type>eighth</type>
        <stem default-y="25">up</stem>
        <staff>1</staff>
        <beam number="1">end</beam>
      </note>
      <backup>
        <duration>8</duration>
      </backup>
      <note default-x="36">
        <pitch>
          <step>E</step>
          <alter>-1</alter>
          <octave>4</octave>
        </pitch>
        <duration>2</duration>
        <voice>2</voice>
        <type>eighth</type>
        <stem default-y="-45">down</stem>
        <staff>2</staff>
        <beam number="1">begin</beam>
      </note>
      <note default-x="84">
        <pitch>
          <step>F</step>
          <octave>3</octave>
        </pitch>
        <duration>2</duration>
        <voice>2</voice>
        <type>eighth</type>
        <stem default-y="-46">down</stem>
        <staff>2</staff>
        <beam number="1">continue</beam>
      </note>
      <note default-x="132">
        <pitch>
          <step>D</step>
          <octave>4</octave>
        </pitch>
        <duration>2</duration>
        <voice>2</voice>
        <type>eighth</type>
        <stem default-y="-45">down</stem>
        <staff>2</staff>
        <beam number="1">continue</beam>
      </note>
      <note default-x="179">
        <pitch>
          <step>F</step>
          <octave>3</octave>
        </pitch>
        <duration>3</duration>
        <voice>2</voice>
        <type>eighth</type>
        <dot/>
        <stem default-y="-45">down</stem>
        <staff>2</staff>
        <beam number="1">end</beam>
      </note>
    </measure>
    <!--=======================================================-->
    <measure number="15" width="252">
      <note default-x="27">
        <pitch>
          <step>C</step>
          <octave>5</octave>
        </pitch>
        <duration>2</duration>
        <voice>1</voice>
        <type>eighth</type>
        <stem default-y="24">up</stem>
        <staff>1</staff>
        <beam number="1">begin</beam>
        <notations>
          <slur type="start" number="3" bezier-x="46" bezier-y="-24" default-x="14" default-y="-33" placement="below"></slur>
        </notations>
      </note>
      <note default-x="78">
        <pitch>
          <step>C</step>
          <octave>5</octave>
        </pitch>
        <duration>2</duration>
        <voice>1</voice>
        <type>eighth</type>
        <stem default-y="24">up</stem>
        <staff>1</staff>
        <beam number="1">continue</beam>
      </note>
      <note default-x="126">
        <pitch>
          <step>F</step>
          <octave>4</octave>
        </pitch>
        <duration>2</duration>
        <voice>1</voice>
        <type>eighth</type>
        <stem default-y="23">up</stem>
        <staff>1</staff>
        <beam number="1">continue</beam>
      </note>
      <note default-x="204">
        <pitch>
          <step>G</step>
          <octave>4</octave>
        </pitch>
        <duration>1</duration>
        <voice>1</voice>
        <type>16th</type>
        <stem default-y="22">up</stem>
        <staff>1</staff>
        <beam number="1">end</beam>
        <beam number="2">backward hook</beam>
        <notations>
          <slur type="stop" number="3" bezier-x="-51" bezier-y="-11" default-x="0" default-y="-45"></slur>
        </notations>
      </note>
      <backup>
        <duration>7</duration>
      </backup>
      <note default-x="26">
        <pitch>
          <step>F</step>
          <octave>2</octave>
        </pitch>
        <duration>2</duration>
        <voice>2</voice>
        <type>eighth</type>
        <stem default-y="-81">down</stem>
        <staff>2</staff>
        <beam number="1">begin</beam>
        <notations>
          <slur type="start" number="3" bezier-x="28" bezier-y="39" default-x="14" default-y="-9" placement="above"></slur>
        </notations>
      </note>
      <note default-x="78">
        <pitch>
          <step>F</step>
          <octave>3</octave>
        </pitch>
        <duration>2</duration>
        <voice>2</voice>
        <type>eighth</type>
        <stem default-y="-67">down</stem>
        <staff>2</staff>
        <beam number="1">continue</beam>
      </note>
      <note default-x="125">
        <pitch>
          <step>E</step>
          <alter>-1</alter>
          <octave>4</octave>
        </pitch>
        <duration>2</duration>
        <voice>2</voice>
        <type>eighth</type>
        <stem default-y="-57">down</stem>
        <staff>2</staff>
        <beam number="1">continue</beam>
      </note>
      <note default-x="171">
        <pitch>
          <step>F</step>
          <octave>3</octave>
        </pitch>
        <duration>2</duration>
        <voice>2</voice>
        <type>eighth</type>
        <stem default-y="-47">down</stem>
        <staff>2</staff>
        <beam number="1">end</beam>
        <notations>
          <slur type="stop" number="3" bezier-x="-33" bezier-y="33" default-x="5" default-y="14"></slur>
        </notations>
      </note>
    </measure>
    <!--=======================================================-->
    <measure number="16" width="212">
      <note default-x="35">
        <pitch>
          <step>A</step>
          <octave>4</octave>
        </pitch>
        <duration>2</duration>
        <voice>1</voice>
        <type>eighth</type>
        <stem default-y="12">up</stem>
        <staff>1</staff>
        <beam number="1">begin</beam>
      </note>
      <note default-x="83">
        <pitch>
          <step>C</step>
          <octave>5</octave>
        </pitch>
        <duration>2</duration>
        <voice>1</voice>
        <type>eighth</type>
        <stem default-y="23">up</stem>
        <staff>1</staff>
        <beam number="1">end</beam>
      </note>
      <note default-x="134">
        <pitch>
          <step>B</step>
          <alter>-1</alter>
          <octave>4</octave>
        </pitch>
        <duration>4</duration>
        <voice>1</voice>
        <type>quarter</type>
        <stem default-y="19">up</stem>
        <staff>1</staff>
      </note>
      <backup>
        <duration>8</duration>
      </backup>
      <note default-x="37">
        <pitch>
          <step>E</step>
          <alter>-1</alter>
          <octave>4</octave>
        </pitch>
        <duration>2</duration>
        <voice>2</voice>
        <type>eighth</type>
        <stem default-y="-32">down</stem>
        <staff>2</staff>
        <beam number="1">begin</beam>
      </note>
      <note default-x="84">
        <pitch>
          <step>F</step>
          <octave>3</octave>
        </pitch>
        <duration>2</duration>
        <voice>2</voice>
        <type>eighth</type>
        <stem default-y="-45">down</stem>
        <staff>2</staff>
        <beam number="1">end</beam>
      </note>
      <note default-x="134">
        <pitch>
          <step>B</step>
          <alter>-1</alter>
          <octave>3</octave>
        </pitch>
        <duration>4</duration>
        <voice>2</voice>
        <type>quarter</type>
        <stem default-y="-32">down</stem>
        <staff>2</staff>
      </note>
      <note default-x="132">
        <chord/>
        <pitch>
          <step>D</step>
          <octave>4</octave>
        </pitch>
        <duration>4</duration>
        <voice>2</voice>
        <type>quarter</type>
        <stem default-y="-32">down</stem>
        <staff>2</staff>
      </note>
      <barline location="right">
        <bar-style>light-heavy</bar-style>
      </barline>
    </measure>
    <!--=======================================================-->
    <measure number="17" width="316">
      <print new-system="yes">
        <system-layout>
          <system-margins>
            <left-margin>6</left-margin>
            <right-margin>48</right-margin>
          </system-margins>
          <system-distance>119</system-distance>
        </system-layout>
        <staff-layout number="2">
          <staff-distance>82</staff-distance>
        </staff-layout>
      </print>
      <attributes>
        <staff-details print-object="yes"></staff-details>
      </attributes>
      <note default-x="108">
        <pitch>
          <step>D</step>
          <octave>5</octave>
        </pitch>
        <duration>2</duration>
        <voice>1</voice>
        <type>eighth</type>
        <stem default-y="31">up</stem>
        <staff>1</staff>
        <beam number="1">begin</beam>
      </note>
      <note default-x="159">
        <pitch>
          <step>F</step>
          <octave>5</octave>
        </pitch>
        <duration>2</duration>
        <voice>1</voice>
        <type>eighth</type>
        <stem default-y="31">up</stem>
        <staff>1</staff>
        <beam number="1">continue</beam>
        <notations>
          <slur type="start" number="3" bezier-x="138" bezier-y="20" default-x="11" default-y="47" placement="above"></slur>
        </notations>
      </note>
      <note default-x="213">
        <pitch>
          <step>C</step>
          <octave>5</octave>
        </pitch>
        <duration>2</duration>
        <voice>1</voice>
        <type>eighth</type>
        <stem default-y="31">up</stem>
        <staff>1</staff>
        <beam number="1">continue</beam>
      </note>
      <note default-x="263">
        <pitch>
          <step>C</step>
          <octave>5</octave>
        </pitch>
        <duration>2</duration>
        <voice>1</voice>
        <type>eighth</type>
        <stem default-y="32">up</stem>
        <staff>1</staff>
        <beam number="1">end</beam>
      </note>
      <backup>
        <duration>8</duration>
      </backup>
      <forward>
        <duration>4</duration>
        <voice>2</voice>
        <staff>1</staff>
      </forward>
      <note default-x="212">
        <pitch>
          <step>F</step>
          <octave>4</octave>
        </pitch>
        <duration>4</duration>
        <tie type="start"></tie>
        <voice>2</voice>
        <type>quarter</type>
        <stem default-y="-72">down</stem>
        <staff>1</staff>
        <notations>
          <tied type="start" orientation="under"></tied>
        </notations>
      </note>
      <backup>
        <duration>8</duration>
      </backup>
      <note default-x="109">
        <pitch>
          <step>G</step>
          <octave>4</octave>
        </pitch>
        <duration>2</duration>
        <voice>3</voice>
        <type>eighth</type>
        <stem default-y="-68">down</stem>
        <staff>2</staff>
        <beam number="1">begin</beam>
        <notations>
          <slur type="start" number="4" bezier-x="39" bezier-y="46" default-x="11" default-y="-7" placement="above"></slur>
        </notations>
      </note>
      <note default-x="160">
        <pitch>
          <step>D</step>
          <octave>5</octave>
        </pitch>
        <duration>2</duration>
        <voice>3</voice>
        <type>eighth</type>
        <stem default-y="-61">down</stem>
        <staff>2</staff>
        <beam number="1">continue</beam>
      </note>
      <note default-x="213">
        <pitch>
          <step>C</step>
          <octave>6</octave>
        </pitch>
        <duration>2</duration>
        <voice>3</voice>
        <type>eighth</type>
        <stem default-y="-54">down</stem>
        <staff>2</staff>
        <beam number="1">continue</beam>
      </note>
      <note default-x="264">
        <pitch>
          <step>D</step>
          <octave>5</octave>
        </pitch>
        <duration>2</duration>
        <voice>3</voice>
        <type>eighth</type>
        <stem default-y="-48">down</stem>
        <staff>2</staff>
        <beam number="1">end</beam>
        <notations>
          <slur type="stop" number="4" bezier-x="-43" bezier-y="22" default-x="-1" default-y="21"></slur>
        </notations>
      </note>
    </measure>
    <!--=======================================================-->
    <measure number="18" width="239">
      <note default-x="32">
        <pitch>
          <step>D</step>
          <octave>5</octave>
        </pitch>
        <duration>2</duration>
        <voice>1</voice>
        <type>eighth</type>
        <stem default-y="29">up</stem>
        <staff>1</staff>
        <beam number="1">begin</beam>
      </note>
      <note default-x="87">
        <pitch>
          <step>B</step>
          <alter>-1</alter>
          <octave>4</octave>
        </pitch>
        <duration>2</duration>
        <voice>1</voice>
        <type>eighth</type>
        <stem default-y="29">up</stem>
        <staff>1</staff>
        <beam number="1">continue</beam>
      </note>
      <note default-x="135">
        <pitch>
          <step>C</step>
          <octave>5</octave>
        </pitch>
        <duration>2</duration>
        <voice>1</voice>
        <type>eighth</type>
        <stem default-y="29">up</stem>
        <staff>1</staff>
        <beam number="1">continue</beam>
      </note>
      <note default-x="186">
        <pitch>
          <step>F</step>
          <octave>4</octave>
        </pitch>
        <duration>2</duration>
        <voice>1</voice>
        <type>eighth</type>
        <stem default-y="29">up</stem>
        <staff>1</staff>
        <beam number="1">end</beam>
      </note>
      <backup>
        <duration>8</duration>
      </backup>
      <note default-x="33">
        <pitch>
          <step>F</step>
          <octave>4</octave>
        </pitch>
        <duration>8</duration>
        <tie type="start"></tie>
        <tie type="stop"></tie>
        <voice>2</voice>
        <type>half</type>
        <stem default-y="-69">down</stem>
        <staff>1</staff>
        <notations>
          <tied type="start" orientation="under"></tied>
          <tied type="stop"></tied>
        </notations>
      </note>
      <backup>
        <duration>8</duration>
      </backup>
      <note default-x="33">
        <pitch>
          <step>G</step>
          <octave>4</octave>
        </pitch>
        <duration>2</duration>
        <voice>3</voice>
        <type>eighth</type>
        <stem default-y="-67">down</stem>
        <staff>2</staff>
        <beam number="1">begin</beam>
        <notations>
          <slur type="start" number="4" bezier-x="38" bezier-y="40" default-x="11" default-y="-5" placement="above"></slur>
        </notations>
      </note>
      <note default-x="86">
        <pitch>
          <step>D</step>
          <octave>5</octave>
        </pitch>
        <duration>2</duration>
        <voice>3</voice>
        <type>eighth</type>
        <stem default-y="-59">down</stem>
        <staff>2</staff>
        <beam number="1">continue</beam>
      </note>
      <note default-x="137">
        <pitch>
          <step>C</step>
          <octave>6</octave>
        </pitch>
        <duration>2</duration>
        <voice>3</voice>
        <type>eighth</type>
        <stem default-y="-53">down</stem>
        <staff>2</staff>
        <beam number="1">continue</beam>
      </note>
      <note default-x="186">
        <pitch>
          <step>D</step>
          <octave>5</octave>
        </pitch>
        <duration>2</duration>
        <voice>3</voice>
        <type>eighth</type>
        <stem default-y="-47">down</stem>
        <staff>2</staff>
        <beam number="1">end</beam>
        <notations>
          <slur type="stop" number="4" bezier-x="-44" bezier-y="26" default-x="3" default-y="21"></slur>
        </notations>
      </note>
    </measure>
    <!--=======================================================-->
    <measure number="19" width="244">
      <note default-x="35">
        <pitch>
          <step>D</step>
          <octave>5</octave>
        </pitch>
        <duration>2</duration>
        <voice>1</voice>
        <type>eighth</type>
        <stem default-y="39">up</stem>
        <staff>1</staff>
        <beam number="1">begin</beam>
      </note>
      <note default-x="87">
        <pitch>
          <step>F</step>
          <octave>5</octave>
        </pitch>
        <duration>2</duration>
        <voice>1</voice>
        <type>eighth</type>
        <stem default-y="39">up</stem>
        <staff>1</staff>
        <beam number="1">continue</beam>
      </note>
      <note default-x="139">
        <pitch>
          <step>C</step>
          <octave>5</octave>
        </pitch>
        <duration>2</duration>
        <voice>1</voice>
        <type>eighth</type>
        <stem default-y="38">up</stem>
        <staff>1</staff>
        <beam number="1">continue</beam>
      </note>
      <note default-x="188">
        <pitch>
          <step>C</step>
          <octave>5</octave>
        </pitch>
        <duration>2</duration>
        <voice>1</voice>
        <type>eighth</type>
        <stem default-y="39">up</stem>
        <staff>1</staff>
        <beam number="1">end</beam>
      </note>
      <backup>
        <duration>8</duration>
      </backup>
      <note default-x="35">
        <pitch>
          <step>F</step>
          <octave>4</octave>
        </pitch>
        <duration>4</duration>
        <tie type="stop"></tie>
        <voice>2</voice>
        <type>quarter</type>
        <stem default-y="-68">down</stem>
        <staff>1</staff>
        <notations>
          <tied type="stop"></tied>
        </notations>
      </note>
      <note default-x="140">
        <pitch>
          <step>F</step>
          <octave>4</octave>
        </pitch>
        <duration>4</duration>
        <tie type="start"></tie>
        <voice>2</voice>
        <type>quarter</type>
        <stem default-y="-68">down</stem>
        <staff>1</staff>
        <notations>
          <tied type="start" orientation="under"></tied>
        </notations>
      </note>
      <backup>
        <duration>8</duration>
      </backup>
      <note default-x="35">
        <pitch>
          <step>G</step>
          <octave>4</octave>
        </pitch>
        <duration>2</duration>
        <voice>3</voice>
        <type>eighth</type>
        <stem default-y="-68">down</stem>
        <staff>2</staff>
        <beam number="1">begin</beam>
        <notations>
          <slur type="start" number="4" bezier-x="36" bezier-y="34" default-x="20" default-y="1" placement="above"></slur>
        </notations>
      </note>
      <note default-x="88">
        <pitch>
          <step>D</step>
          <octave>5</octave>
        </pitch>
        <duration>2</duration>
        <voice>3</voice>
        <type>eighth</type>
        <stem default-y="-60">down</stem>
        <staff>2</staff>
        <beam number="1">continue</beam>
      </note>
      <note default-x="142">
        <pitch>
          <step>C</step>
          <octave>6</octave>
        </pitch>
        <duration>2</duration>
        <voice>3</voice>
        <type>eighth</type>
        <stem default-y="-42">down</stem>
        <staff>2</staff>
        <beam number="1">continue</beam>
      </note>
      <note default-x="191">
        <pitch>
          <step>D</step>
          <octave>5</octave>
        </pitch>
        <duration>2</duration>
        <voice>3</voice>
        <type>eighth</type>
        <stem default-y="-45">down</stem>
        <staff>2</staff>
        <beam number="1">end</beam>
        <notations>
          <slur type="stop" number="4" bezier-x="-41" bezier-y="22" default-x="-2" default-y="25"></slur>
        </notations>
      </note>
    </measure>
    <!--=======================================================-->
    <measure number="20" width="238">
      <note default-x="35">
        <pitch>
          <step>D</step>
          <octave>5</octave>
        </pitch>
        <duration>2</duration>
        <voice>1</voice>
        <type>eighth</type>
        <stem default-y="30">up</stem>
        <staff>1</staff>
        <beam number="1">begin</beam>
      </note>
      <note default-x="89">
        <pitch>
          <step>B</step>
          <alter>-1</alter>
          <octave>4</octave>
        </pitch>
        <duration>2</duration>
        <voice>1</voice>
        <type>eighth</type>
        <stem default-y="19">up</stem>
        <staff>1</staff>
        <beam number="1">end</beam>
      </note>
      <note default-x="139">
        <pitch>
          <step>C</step>
          <octave>5</octave>
        </pitch>
        <duration>4</duration>
        <voice>1</voice>
        <type>quarter</type>
        <stem default-y="19">up</stem>
        <staff>1</staff>
        <notations>
          <slur type="stop" number="3" bezier-x="-126" bezier-y="82" default-x="-2" default-y="4"></slur>
        </notations>
      </note>
      <backup>
        <duration>8</duration>
      </backup>
      <note default-x="34">
        <pitch>
          <step>F</step>
          <octave>4</octave>
        </pitch>
        <duration>8</duration>
        <tie type="start"></tie>
        <tie type="stop"></tie>
        <voice>2</voice>
        <type>half</type>
        <stem default-y="-68">down</stem>
        <staff>1</staff>
        <notations>
          <tied type="start" orientation="under"></tied>
          <tied type="stop"></tied>
        </notations>
      </note>
      <backup>
        <duration>8</duration>
      </backup>
      <note default-x="36">
        <pitch>
          <step>G</step>
          <octave>4</octave>
        </pitch>
        <duration>2</duration>
        <voice>3</voice>
        <type>eighth</type>
        <stem default-y="-67">down</stem>
        <staff>2</staff>
        <beam number="1">begin</beam>
        <notations>
          <slur type="start" number="3" bezier-x="32" bezier-y="42" default-x="9" default-y="-9" placement="above"></slur>
        </notations>
      </note>
      <note default-x="90">
        <pitch>
          <step>D</step>
          <octave>5</octave>
        </pitch>
        <duration>2</duration>
        <voice>3</voice>
        <type>eighth</type>
        <stem default-y="-49">down</stem>
        <staff>2</staff>
        <beam number="1">continue</beam>
      </note>
      <note default-x="141">
        <pitch>
          <step>C</step>
          <octave>6</octave>
        </pitch>
        <duration>2</duration>
        <voice>3</voice>
        <type>eighth</type>
        <stem default-y="-52">down</stem>
        <staff>2</staff>
        <beam number="1">continue</beam>
      </note>
      <note default-x="191">
        <pitch>
          <step>D</step>
          <octave>5</octave>
        </pitch>
        <duration>2</duration>
        <voice>3</voice>
        <type>eighth</type>
        <stem default-y="-45">down</stem>
        <staff>2</staff>
        <beam number="1">end</beam>
        <notations>
          <slur type="stop" number="3" bezier-x="-41" bezier-y="30" default-x="4" default-y="18"></slur>
          <slur type="start" number="3" bezier-x="4" bezier-y="-7" default-x="-2" default-y="-60" placement="below"></slur>
          <slur type="continue" number="3" bezier-x="-7" bezier-y="-5" default-x="18" default-y="-65"></slur>
        </notations>
      </note>
    </measure>
    <!--=======================================================-->
    <measure number="21" width="309">
      <print new-system="yes">
        <system-layout>
          <system-margins>
            <left-margin>5</left-margin>
            <right-margin>49</right-margin>
          </system-margins>
          <system-distance>117</system-distance>
        </system-layout>
        <staff-layout number="2">
          <staff-distance>81</staff-distance>
        </staff-layout>
      </print>
      <attributes>
        <key>
          <fifths>-1</fifths>
        </key>
        <clef number="2">
          <sign>F</sign>
          <line>3</line>
        </clef>
        <staff-details print-object="yes"></staff-details>
      </attributes>
      <note default-x="111">
        <pitch>
          <step>D</step>
          <octave>5</octave>
        </pitch>
        <duration>2</duration>
        <voice>1</voice>
        <type>eighth</type>
        <stem default-y="32">up</stem>
        <staff>1</staff>
        <beam number="1">begin</beam>
        <notations>
          <slur type="start" number="4" bezier-x="104" bezier-y="33" default-x="18" default-y="36" placement="above"></slur>
        </notations>
      </note>
      <note default-x="161">
        <pitch>
          <step>F</step>
          <octave>5</octave>
        </pitch>
        <duration>2</duration>
        <voice>1</voice>
        <type>eighth</type>
        <stem default-y="23">up</stem>
        <staff>1</staff>
        <beam number="1">continue</beam>
      </note>
      <note default-x="207">
        <pitch>
          <step>C</step>
          <octave>5</octave>
        </pitch>
        <duration>2</duration>
        <voice>1</voice>
        <type>eighth</type>
        <stem default-y="32">up</stem>
        <staff>1</staff>
        <beam number="1">continue</beam>
      </note>
      <note default-x="253">
        <pitch>
          <step>C</step>
          <octave>5</octave>
        </pitch>
        <duration>2</duration>
        <voice>1</voice>
        <type>eighth</type>
        <stem default-y="31">up</stem>
        <staff>1</staff>
        <beam number="1">end</beam>
      </note>
      <backup>
        <duration>8</duration>
      </backup>
      <direction placement="below">
        <direction-type>
          <words default-y="-75" relative-x="2" font-family="serif" font-style="italic" font-size="8" font-weight="bold">sampre</words>
        </direction-type>
        <staff>1</staff>
      </direction>
      <note default-x="112">
        <pitch>
          <step>F</step>
          <octave>4</octave>
        </pitch>
        <duration>4</duration>
        <tie type="stop"></tie>
        <voice>2</voice>
        <type>quarter</type>
        <stem default-y="-68">down</stem>
        <staff>1</staff>
        <notations>
          <tied type="stop"></tied>
        </notations>
      </note>
      <note default-x="207">
        <pitch>
          <step>F</step>
          <octave>4</octave>
        </pitch>
        <duration>4</duration>
        <tie type="start"></tie>
        <voice>2</voice>
        <type>quarter</type>
        <stem default-y="-68">down</stem>
        <staff>1</staff>
        <notations>
          <tied type="start" orientation="under"></tied>
        </notations>
      </note>
      <backup>
        <duration>8</duration>
      </backup>
      <note default-x="111">
        <pitch>
          <step>B</step>
          <alter>-1</alter>
          <octave>2</octave>
        </pitch>
        <duration>2</duration>
        <voice>3</voice>
        <type>eighth</type>
        <stem default-y="-64">down</stem>
        <staff>2</staff>
        <beam number="1">begin</beam>
        <notations>
          <slur type="start" number="5" bezier-x="32" bezier-y="45" default-x="7" default-y="-15" placement="above"></slur>
          <slur type="continue" number="3" bezier-x2="6" bezier-y2="-2" default-x="-13" default-y="-89" placement="below"></slur>
          <slur type="stop" number="3" bezier-x="-3" bezier-y="-6" default-x="3" default-y="-81"></slur>
        </notations>
      </note>
      <note default-x="161">
        <pitch>
          <step>F</step>
          <octave>3</octave>
        </pitch>
        <duration>2</duration>
        <voice>3</voice>
        <type>eighth</type>
        <stem default-y="-57">down</stem>
        <staff>2</staff>
        <beam number="1">continue</beam>
      </note>
      <note default-x="208">
        <pitch>
          <step>E</step>
          <octave>4</octave>
        </pitch>
        <duration>2</duration>
        <voice>3</voice>
        <type>eighth</type>
        <stem default-y="-50">down</stem>
        <staff>2</staff>
        <beam number="1">continue</beam>
      </note>
      <note default-x="258">
        <pitch>
          <step>F</step>
          <octave>3</octave>
        </pitch>
        <duration>2</duration>
        <voice>3</voice>
        <type>eighth</type>
        <stem default-y="-45">down</stem>
        <staff>2</staff>
        <beam number="1">end</beam>
        <notations>
          <slur type="stop" number="5" bezier-x="-47" bezier-y="23" default-x="3" default-y="22"></slur>
        </notations>
      </note>
    </measure>
    <!--=======================================================-->
    <measure number="22" width="258">
      <note default-x="36">
        <pitch>
          <step>D</step>
          <octave>5</octave>
        </pitch>
        <duration>2</duration>
        <voice>1</voice>
        <type>eighth</type>
        <stem default-y="28">up</stem>
        <staff>1</staff>
        <beam number="1">begin</beam>
      </note>
      <note default-x="84">
        <pitch>
          <step>B</step>
          <alter>-1</alter>
          <octave>4</octave>
        </pitch>
        <duration>2</duration>
        <voice>1</voice>
        <type>eighth</type>
        <stem default-y="27">up</stem>
        <staff>1</staff>
        <beam number="1">continue</beam>
      </note>
      <note default-x="128">
        <pitch>
          <step>C</step>
          <octave>5</octave>
        </pitch>
        <duration>2</duration>
        <voice>1</voice>
        <type>eighth</type>
        <stem default-y="25">up</stem>
        <staff>1</staff>
        <beam number="1">continue</beam>
      </note>
      <note default-x="177">
        <pitch>
          <step>A</step>
          <octave>4</octave>
        </pitch>
        <duration>1</duration>
        <voice>1</voice>
        <type>16th</type>
        <stem default-y="14">up</stem>
        <staff>1</staff>
        <beam number="1">continue</beam>
        <beam number="2">begin</beam>
      </note>
      <note default-x="211">
        <pitch>
          <step>F</step>
          <octave>4</octave>
        </pitch>
        <duration>1</duration>
        <voice>1</voice>
        <type>16th</type>
        <stem default-y="20">up</stem>
        <staff>1</staff>
        <beam number="1">end</beam>
        <beam number="2">end</beam>
      </note>
      <backup>
        <duration>8</duration>
      </backup>
      <direction placement="below">
        <direction-type>
          <words default-y="-76" relative-x="14" font-family="serif" font-style="italic" font-size="10">dim.</words>
        </direction-type>
        <staff>1</staff>
      </direction>
      <note default-x="36">
        <pitch>
          <step>F</step>
          <octave>4</octave>
        </pitch>
        <duration>8</duration>
        <tie type="stop"></tie>
        <voice>2</voice>
        <type>half</type>
        <stem default-y="-70">down</stem>
        <staff>1</staff>
        <notations>
          <tied type="stop"></tied>
        </notations>
      </note>
      <backup>
        <duration>8</duration>
      </backup>
      <note default-x="38">
        <pitch>
          <step>B</step>
          <alter>-1</alter>
          <octave>2</octave>
        </pitch>
        <duration>2</duration>
        <voice>3</voice>
        <type>eighth</type>
        <stem default-y="-67">down</stem>
        <staff>2</staff>
        <beam number="1">begin</beam>
        <notations>
          <slur type="start" number="3" bezier-x="32" bezier-y="39" default-x="6" default-y="-9" placement="above"></slur>
        </notations>
      </note>
      <note default-x="84">
        <pitch>
          <step>F</step>
          <octave>3</octave>
        </pitch>
        <duration>2</duration>
        <voice>3</voice>
        <type>eighth</type>
        <stem default-y="-51">down</stem>
        <staff>2</staff>
        <beam number="1">continue</beam>
      </note>
      <note default-x="129">
        <pitch>
          <step>E</step>
          <octave>4</octave>
        </pitch>
        <duration>2</duration>
        <voice>3</voice>
        <type>eighth</type>
        <stem default-y="-44">down</stem>
        <staff>2</staff>
        <beam number="1">continue</beam>
      </note>
      <note default-x="178">
        <pitch>
          <step>F</step>
          <octave>3</octave>
        </pitch>
        <duration>2</duration>
        <voice>3</voice>
        <type>eighth</type>
        <stem default-y="-47">down</stem>
        <staff>2</staff>
        <beam number="1">end</beam>
        <notations>
          <slur type="stop" number="3" bezier-x="-42" bezier-y="22" default-x="1" default-y="23"></slur>
        </notations>
      </note>
    </measure>
    <!--=======================================================-->
    <measure number="23" width="244">
      <direction placement="below">
        <direction-type>
          <wedge type="crescendo" spread="0" default-x="3" default-y="-67"></wedge>
        </direction-type>
        <staff>1</staff>
      </direction>
      <note default-x="41">
        <pitch>
          <step>F</step>
          <octave>4</octave>
        </pitch>
        <duration>2</duration>
        <voice>1</voice>
        <type>eighth</type>
        <stem default-y="31">up</stem>
        <staff>1</staff>
        <beam number="1">begin</beam>
      </note>
      <note default-x="90">
        <pitch>
          <step>E</step>
          <octave>5</octave>
        </pitch>
        <duration>2</duration>
        <voice>1</voice>
        <type>eighth</type>
        <stem default-y="30">up</stem>
        <staff>1</staff>
        <beam number="1">continue</beam>
      </note>
      <note default-x="134">
        <pitch>
          <step>D</step>
          <octave>5</octave>
        </pitch>
        <duration>2</duration>
        <voice>1</voice>
        <type>eighth</type>
        <stem default-y="28">up</stem>
        <staff>1</staff>
        <beam number="1">continue</beam>
      </note>
      <note default-x="181">
        <pitch>
          <step>D</step>
          <octave>5</octave>
        </pitch>
        <duration>2</duration>
        <voice>1</voice>
        <type>eighth</type>
        <stem default-y="28">up</stem>
        <staff>1</staff>
        <beam number="1">end</beam>
        <notations>
          <slur type="stop" number="4" bezier-x="-104" bezier-y="36" default-x="9" default-y="31"></slur>
        </notations>
      </note>
      <backup>
        <duration>8</duration>
      </backup>
      <forward>
        <duration>2</duration>
        <voice>2</voice>
        <staff>1</staff>
      </forward>
      <note default-x="90">
        <pitch>
          <step>G</step>
          <octave>4</octave>
        </pitch>
        <duration>4</duration>
        <voice>2</voice>
        <type>quarter</type>
        <stem default-y="-188">down</stem>
        <staff>1</staff>
      </note>
      <direction>
        <direction-type>
          <wedge type="stop" spread="17" default-x="13"></wedge>
        </direction-type>
        <staff>1</staff>
      </direction>
      <note default-x="182">
        <pitch>
          <step>F</step>
          <octave>4</octave>
        </pitch>
        <duration>4</duration>
        <voice>2</voice>
        <type>quarter</type>
        <stem default-y="-66">down</stem>
        <staff>1</staff>
      </note>
      <backup>
        <duration>10</duration>
      </backup>
      <note default-x="42">
        <pitch>
          <step>F</step>
          <octave>2</octave>
        </pitch>
        <duration>4</duration>
        <voice>3</voice>
        <type>quarter</type>
        <stem default-y="-77">down</stem>
        <staff>2</staff>
      </note>
    </measure>
    <!--=======================================================-->
    <measure number="24" width="226">
      <direction placement="below">
        <direction-type>
          <wedge type="diminuendo" spread="8" default-x="9" default-y="-53"></wedge>
        </direction-type>
        <staff>1</staff>
      </direction>
      <note default-x="42">
        <pitch>
          <step>C</step>
          <octave>5</octave>
        </pitch>
        <duration>2</duration>
        <voice>1</voice>
        <type>eighth</type>
        <stem default-y="18">up</stem>
        <staff>1</staff>
        <beam number="1">begin</beam>
        <notations>
          <slur type="start" number="3" bezier-x="16" bezier-y="-12" default-x="1" default-y="-25" placement="below"></slur>
        </notations>
      </note>
      <direction>
        <direction-type>
          <wedge type="stop" spread="0" default-x="19"></wedge>
        </direction-type>
        <staff>1</staff>
      </direction>
      <note default-x="91">
        <pitch>
          <step>A</step>
          <octave>4</octave>
        </pitch>
        <duration>2</duration>
        <voice>1</voice>
        <type>eighth</type>
        <stem default-y="10">up</stem>
        <staff>1</staff>
        <beam number="1">end</beam>
        <notations>
          <slur type="stop" number="3" bezier-x="-19" bezier-y="-5" default-x="7" default-y="-36"></slur>
        </notations>
      </note>
      <note default-x="135">
        <pitch>
          <step>B</step>
          <alter>-1</alter>
          <octave>4</octave>
        </pitch>
        <duration>4</duration>
        <voice>1</voice>
        <type>quarter</type>
        <stem default-y="22">up</stem>
        <staff>1</staff>
      </note>
      <backup>
        <duration>8</duration>
      </backup>
      <note default-x="42">
        <pitch>
          <step>E</step>
          <octave>4</octave>
        </pitch>
        <duration>2</duration>
        <voice>2</voice>
        <type>eighth</type>
        <stem default-y="48">up</stem>
        <staff>2</staff>
        <beam number="1">begin</beam>
        <notations>
          <slur type="start" number="3" bezier-x="19" bezier-y="5" default-x="11" default-y="53" placement="above"></slur>
        </notations>
      </note>
      <note default-x="91">
        <pitch>
          <step>C</step>
          <octave>4</octave>
        </pitch>
        <duration>2</duration>
        <voice>2</voice>
        <type>eighth</type>
        <stem default-y="40">up</stem>
        <staff>2</staff>
        <beam number="1">end</beam>
        <notations>
          <slur type="stop" number="3" bezier-x="-15" bezier-y="12" default-x="16" default-y="41"></slur>
        </notations>
      </note>
      <note default-x="137">
        <pitch>
          <step>D</step>
          <octave>4</octave>
        </pitch>
        <duration>4</duration>
        <voice>2</voice>
        <type>quarter</type>
        <stem default-y="49">up</stem>
        <staff>2</staff>
      </note>
      <backup>
        <duration>8</duration>
      </backup>
      <note default-x="43">
        <pitch>
          <step>F</step>
          <octave>3</octave>
        </pitch>
        <duration>4</duration>
        <voice>3</voice>
        <type>quarter</type>
        <stem default-y="-46">down</stem>
        <staff>2</staff>
      </note>
      <note default-x="138">
        <pitch>
          <step>B</step>
          <alter>-1</alter>
          <octave>2</octave>
        </pitch>
        <duration>4</duration>
        <voice>3</voice>
        <type>quarter</type>
        <stem default-y="-61">down</stem>
        <staff>2</staff>
      </note>
      <barline location="right">
        <bar-style>light-heavy</bar-style>
      </barline>
    </measure>
  </part>
</score-partwise>