<?xml version="1.0" encoding="UTF-8"?>
<!DOCTYPE score-partwise PUBLIC "-//Recordare//DTD MusicXML 3.0.1 Partwise//EN" "http://www.musicxml.org/dtds/partwise.dtd">
<score-partwise version="3.0.1">
  <movement-number>2</movement-number>
  <movement-title>[Audiveris detected movement]</movement-title>
  <identification>
    <encoding>
      <software>Audiveris 5.0.0</software>
      <supports type="yes" element="print" attribute="new-system" value="yes"></supports>
      <supports type="yes" element="print" attribute="new-page" value="yes"></supports>
      <software>ProxyMusic 3.0.1.8e1a2c5</software>
      <encoding-date>2017-10-06</encoding-date>
    </encoding>
    <source>/Users/stephenn/Documents/workspace/nlsomr/working/91387548.jpg</source>
    <miscellaneous>
      <miscellaneous-field name="source-file">/Users/stephenn/Documents/workspace/nlsomr/working/91387548.jpg</miscellaneous-field>
      <miscellaneous-field name="source-sheet-1">2 3 4 5</miscellaneous-field>
    </miscellaneous>
  </identification>
  <defaults>
    <scaling>
      <millimeters>5.4187</millimeters>
      <tenths>40</tenths>
    </scaling>
    <page-layout>
      <page-height>1910</page-height>
      <page-width>1250</page-width>
      <page-margins type="both">
        <left-margin>80</left-margin>
        <right-margin>80</right-margin>
        <top-margin>80</top-margin>
        <bottom-margin>80</bottom-margin>
      </page-margins>
    </page-layout>
    <lyric-font font-family="Serif" font-size="10"></lyric-font>
  </defaults>
  <part-list>
    <score-part id="P1">
      <part-name>Marcia.</part-name>
      <score-instrument id="P1-I1">
        <instrument-name>Acoustic Grand Piano</instrument-name>
      </score-instrument>
      <midi-instrument id="P1-I1">
        <midi-channel>1</midi-channel>
        <midi-program>1</midi-program>
        <volume>78</volume>
      </midi-instrument>
    </score-part>
  </part-list>
  <!--= = = = = = = = = = = = = = = = = = = = = = = = = = = = =-->
  <part id="P1">
    <!--=======================================================-->
    <measure number="1" width="180">
      <print>
        <system-layout>
          <system-margins>
            <left-margin>92</left-margin>
            <right-margin>47</right-margin>
          </system-margins>
          <top-system-distance>501</top-system-distance>
        </system-layout>
        <staff-layout number="2">
          <staff-distance>86</staff-distance>
        </staff-layout>
        <measure-numbering>system</measure-numbering>
      </print>
      <attributes>
        <divisions>2</divisions>
        <key>
          <fifths>1</fifths>
        </key>
        <time>
          <beats>6</beats>
          <beat-type>8</beat-type>
        </time>
        <staves>2</staves>
        <clef number="1">
          <sign>G</sign>
          <line>3</line>
        </clef>
        <clef number="2">
          <sign>F</sign>
          <line>4</line>
        </clef>
        <staff-details print-object="yes"></staff-details>
      </attributes>
      <direction>
        <direction-type>
          <words></words>
        </direction-type>
        <sound tempo="120"></sound>
      </direction>
      <note default-x="138">
        <pitch>
          <step>D</step>
          <octave>5</octave>
        </pitch>
        <duration>2</duration>
        <voice>1</voice>
        <type>quarter</type>
        <stem default-y="-50">down</stem>
        <staff>1</staff>
      </note>
      <backup>
        <duration>2</duration>
      </backup>
      <note default-x="139">
        <rest>
          <display-step>D</display-step>
          <display-octave>3</display-octave>
        </rest>
        <duration>1</duration>
        <voice>2</voice>
        <type>eighth</type>
        <staff>2</staff>
      </note>
    </measure>
    <!--=======================================================-->
    <measure number="2" width="186">
      <note default-x="23">
        <pitch>
          <step>B</step>
          <octave>4</octave>
        </pitch>
        <duration>2</duration>
        <voice>1</voice>
        <type>quarter</type>
        <stem default-y="22">up</stem>
        <staff>1</staff>
      </note>
      <note default-x="68">
        <pitch>
          <step>A</step>
          <octave>4</octave>
        </pitch>
        <duration>2</duration>
        <voice>1</voice>
        <type>quarter</type>
        <stem default-y="13">up</stem>
        <staff>1</staff>
      </note>
      <note default-x="98">
        <pitch>
          <step>G</step>
          <octave>4</octave>
        </pitch>
        <duration>2</duration>
        <voice>1</voice>
        <type>quarter</type>
        <stem default-y="6">up</stem>
        <staff>1</staff>
      </note>
      <direction placement="above">
        <direction-type>
          <words default-y="82" relative-x="2" font-family="serif" font-size="13" font-weight="bold">March Tune.</words>
        </direction-type>
        <staff>1</staff>
      </direction>
      <note default-x="142">
        <pitch>
          <step>A</step>
          <octave>4</octave>
        </pitch>
        <duration>2</duration>
        <voice>1</voice>
        <type>quarter</type>
        <stem default-y="13">up</stem>
        <staff>1</staff>
      </note>
      <backup>
        <duration>8</duration>
      </backup>
      <direction placement="below">
        <direction-type>
          <words default-y="-104" relative-x="1" font-family="serif" font-style="italic" font-size="9" font-weight="bold">:empre f</words>
        </direction-type>
        <staff>1</staff>
      </direction>
      <note default-x="22">
        <pitch>
          <step>A</step>
          <octave>3</octave>
        </pitch>
        <duration>2</duration>
        <voice>2</voice>
        <type>quarter</type>
        <stem default-y="-89">down</stem>
        <staff>1</staff>
      </note>
      <forward>
        <duration>2</duration>
        <voice>2</voice>
        <staff>1</staff>
      </forward>
      <note default-x="98">
        <pitch>
          <step>B</step>
          <octave>3</octave>
        </pitch>
        <duration>2</duration>
        <voice>2</voice>
        <type>quarter</type>
        <stem default-y="-91">down</stem>
        <staff>1</staff>
      </note>
      <backup>
        <duration>6</duration>
      </backup>
      <note default-x="24">
        <pitch>
          <step>G</step>
          <octave>2</octave>
        </pitch>
        <duration>2</duration>
        <voice>3</voice>
        <type>quarter</type>
        <stem default-y="18">up</stem>
        <staff>2</staff>
      </note>
      <note default-x="23">
        <chord/>
        <pitch>
          <step>D</step>
          <octave>3</octave>
        </pitch>
        <duration>2</duration>
        <voice>3</voice>
        <type>quarter</type>
        <stem default-y="18">up</stem>
        <staff>2</staff>
      </note>
      <forward>
        <duration>2</duration>
        <voice>3</voice>
        <staff>2</staff>
      </forward>
      <note default-x="97">
        <pitch>
          <step>C</step>
          <octave>2</octave>
        </pitch>
        <duration>2</duration>
        <voice>3</voice>
        <type>quarter</type>
        <stem default-y="12">up</stem>
        <staff>2</staff>
      </note>
      <note default-x="98">
        <chord/>
        <pitch>
          <step>D</step>
          <octave>3</octave>
        </pitch>
        <duration>2</duration>
        <voice>3</voice>
        <type>quarter</type>
        <stem default-y="12">up</stem>
        <staff>2</staff>
      </note>
    </measure>
    <!--=======================================================-->
    <measure number="3" width="211">
      <note default-x="26">
        <pitch>
          <step>B</step>
          <octave>4</octave>
        </pitch>
        <duration>1</duration>
        <voice>1</voice>
        <type>eighth</type>
        <stem default-y="26">up</stem>
        <staff>1</staff>
        <beam number="1">begin</beam>
      </note>
      <note default-x="52">
        <pitch>
          <step>D</step>
          <octave>5</octave>
        </pitch>
        <duration>1</duration>
        <voice>1</voice>
        <type>eighth</type>
        <stem default-y="26">up</stem>
        <staff>1</staff>
        <beam number="1">continue</beam>
      </note>
      <note default-x="82">
        <pitch>
          <step>D</step>
          <octave>5</octave>
        </pitch>
        <duration>1</duration>
        <voice>1</voice>
        <type>eighth</type>
        <stem default-y="27">up</stem>
        <staff>1</staff>
        <beam number="1">end</beam>
      </note>
      <note default-x="111">
        <pitch>
          <step>D</step>
          <octave>5</octave>
        </pitch>
        <duration>1</duration>
        <voice>1</voice>
        <type>eighth</type>
        <stem default-y="27">up</stem>
        <staff>1</staff>
        <beam number="1">begin</beam>
      </note>
      <note default-x="137">
        <pitch>
          <step>B</step>
          <octave>4</octave>
        </pitch>
        <duration>1</duration>
        <voice>1</voice>
        <type>eighth</type>
        <stem default-y="19">up</stem>
        <staff>1</staff>
        <beam number="1">continue</beam>
      </note>
      <note default-x="168">
        <pitch>
          <step>A</step>
          <octave>4</octave>
        </pitch>
        <duration>1</duration>
        <voice>1</voice>
        <type>eighth</type>
        <stem default-y="12">up</stem>
        <staff>1</staff>
        <beam number="1">end</beam>
      </note>
      <backup>
        <duration>6</duration>
      </backup>
      <direction placement="below">
        <direction-type>
          <words default-y="-94" relative-x="-9" font-family="serif" font-style="italic" font-size="9" font-weight="bold">ed energico</words>
        </direction-type>
        <staff>1</staff>
      </direction>
      <note default-x="26">
        <pitch>
          <step>D</step>
          <octave>4</octave>
        </pitch>
        <duration>2</duration>
        <voice>2</voice>
        <type>quarter</type>
        <stem default-y="-79">down</stem>
        <staff>1</staff>
      </note>
      <forward>
        <duration>1</duration>
        <voice>2</voice>
        <staff>1</staff>
      </forward>
      <note default-x="111">
        <pitch>
          <step>D</step>
          <octave>4</octave>
        </pitch>
        <duration>2</duration>
        <voice>2</voice>
        <type>quarter</type>
        <stem default-y="-74">down</stem>
        <staff>1</staff>
      </note>
      <backup>
        <duration>5</duration>
      </backup>
      <note default-x="29">
        <pitch>
          <step>G</step>
          <octave>2</octave>
        </pitch>
        <duration>2</duration>
        <voice>3</voice>
        <type>quarter</type>
        <stem default-y="17">up</stem>
        <staff>2</staff>
      </note>
      <note default-x="29">
        <chord/>
        <pitch>
          <step>D</step>
          <octave>3</octave>
        </pitch>
        <duration>2</duration>
        <voice>3</voice>
        <type>quarter</type>
        <stem default-y="17">up</stem>
        <staff>2</staff>
      </note>
      <forward>
        <duration>1</duration>
        <voice>3</voice>
        <staff>2</staff>
      </forward>
      <note default-x="115">
        <pitch>
          <step>D</step>
          <octave>2</octave>
        </pitch>
        <duration>2</duration>
        <voice>3</voice>
        <type>quarter</type>
        <stem default-y="15">up</stem>
        <staff>2</staff>
      </note>
      <note default-x="114">
        <chord/>
        <pitch>
          <step>D</step>
          <octave>3</octave>
        </pitch>
        <duration>2</duration>
        <voice>3</voice>
        <type>quarter</type>
        <stem default-y="15">up</stem>
        <staff>2</staff>
      </note>
    </measure>
    <!--=======================================================-->
    <measure number="4" width="186">
      <note default-x="23">
        <pitch>
          <step>B</step>
          <octave>4</octave>
        </pitch>
        <duration>2</duration>
        <voice>1</voice>
        <type>quarter</type>
        <stem default-y="15">up</stem>
        <staff>1</staff>
      </note>
      <note default-x="68">
        <pitch>
          <step>A</step>
          <octave>4</octave>
        </pitch>
        <duration>2</duration>
        <voice>1</voice>
        <type>quarter</type>
        <stem default-y="16">up</stem>
        <staff>1</staff>
      </note>
      <note default-x="139">
        <pitch>
          <step>A</step>
          <octave>4</octave>
        </pitch>
        <duration>2</duration>
        <voice>1</voice>
        <type>quarter</type>
        <stem default-y="14">up</stem>
        <staff>1</staff>
      </note>
      <backup>
        <duration>6</duration>
      </backup>
      <forward>
        <duration>3</duration>
        <voice>2</voice>
        <staff>1</staff>
      </forward>
      <note default-x="99">
        <pitch>
          <step>G</step>
          <octave>4</octave>
        </pitch>
        <duration>2</duration>
        <voice>2</voice>
        <type>quarter</type>
        <stem default-y="5">up</stem>
        <staff>1</staff>
      </note>
      <backup>
        <duration>5</duration>
      </backup>
      <note default-x="25">
        <pitch>
          <step>B</step>
          <octave>3</octave>
        </pitch>
        <duration>3</duration>
        <voice>3</voice>
        <type>quarter</type>
        <dot/>
        <stem default-y="-97">down</stem>
        <staff>1</staff>
      </note>
      <note default-x="99">
        <pitch>
          <step>B</step>
          <octave>3</octave>
        </pitch>
        <duration>2</duration>
        <voice>3</voice>
        <type>quarter</type>
        <stem default-y="-97">down</stem>
        <staff>1</staff>
      </note>
      <backup>
        <duration>5</duration>
      </backup>
      <note default-x="25">
        <pitch>
          <step>G</step>
          <octave>2</octave>
        </pitch>
        <duration>2</duration>
        <voice>4</voice>
        <type>quarter</type>
        <stem default-y="17">up</stem>
        <staff>2</staff>
      </note>
      <note default-x="25">
        <chord/>
        <pitch>
          <step>D</step>
          <octave>3</octave>
        </pitch>
        <duration>2</duration>
        <voice>4</voice>
        <type>quarter</type>
        <stem default-y="17">up</stem>
        <staff>2</staff>
      </note>
      <forward>
        <duration>1</duration>
        <voice>4</voice>
        <staff>2</staff>
      </forward>
      <note default-x="101">
        <pitch>
          <step>E</step>
          <octave>2</octave>
        </pitch>
        <duration>2</duration>
        <voice>4</voice>
        <type>quarter</type>
        <stem default-y="22">up</stem>
        <staff>2</staff>
      </note>
      <note default-x="100">
        <chord/>
        <pitch>
          <step>E</step>
          <octave>3</octave>
        </pitch>
        <duration>2</duration>
        <voice>4</voice>
        <type>quarter</type>
        <stem default-y="22">up</stem>
        <staff>2</staff>
      </note>
    </measure>
    <!--=======================================================-->
    <measure number="5" width="189">
      <note default-x="21">
        <pitch>
          <step>B</step>
          <octave>4</octave>
        </pitch>
        <duration>1</duration>
        <voice>1</voice>
        <type>eighth</type>
        <stem default-y="31">up</stem>
        <staff>1</staff>
        <beam number="1">begin</beam>
      </note>
      <note default-x="53">
        <pitch>
          <step>E</step>
          <octave>5</octave>
        </pitch>
        <duration>1</duration>
        <voice>1</voice>
        <type>eighth</type>
        <stem default-y="31">up</stem>
        <staff>1</staff>
        <beam number="1">continue</beam>
      </note>
      <note default-x="79">
        <pitch>
          <step>E</step>
          <octave>5</octave>
        </pitch>
        <duration>1</duration>
        <voice>1</voice>
        <type>eighth</type>
        <stem default-y="31">up</stem>
        <staff>1</staff>
        <beam number="1">end</beam>
      </note>
      <note default-x="107">
        <pitch>
          <step>E</step>
          <octave>5</octave>
        </pitch>
        <duration>2</duration>
        <voice>1</voice>
        <type>quarter</type>
        <stem default-y="32">up</stem>
        <staff>1</staff>
      </note>
      <note default-x="154">
        <pitch>
          <step>D</step>
          <octave>5</octave>
        </pitch>
        <duration>2</duration>
        <voice>1</voice>
        <type>quarter</type>
        <stem default-y="31">up</stem>
        <staff>1</staff>
      </note>
      <backup>
        <duration>7</duration>
      </backup>
      <note default-x="22">
        <pitch>
          <step>E</step>
          <octave>4</octave>
        </pitch>
        <duration>2</duration>
        <voice>2</voice>
        <type>quarter</type>
        <stem default-y="-74">down</stem>
        <staff>1</staff>
      </note>
      <forward>
        <duration>1</duration>
        <voice>2</voice>
        <staff>1</staff>
      </forward>
      <note default-x="109">
        <pitch>
          <step>E</step>
          <octave>4</octave>
        </pitch>
        <duration>2</duration>
        <voice>2</voice>
        <type>quarter</type>
        <stem default-y="-77">down</stem>
        <staff>1</staff>
      </note>
      <backup>
        <duration>5</duration>
      </backup>
      <note default-x="22">
        <pitch>
          <step>A</step>
          <octave>1</octave>
        </pitch>
        <duration>2</duration>
        <voice>3</voice>
        <type>quarter</type>
        <stem default-y="4">up</stem>
        <staff>2</staff>
      </note>
      <note default-x="22">
        <chord/>
        <pitch>
          <step>B</step>
          <octave>2</octave>
        </pitch>
        <duration>2</duration>
        <voice>3</voice>
        <type>quarter</type>
        <stem default-y="4">up</stem>
        <staff>2</staff>
      </note>
    </measure>
    <!--=======================================================-->
    <measure number="6" width="294">
      <print new-system="yes">
        <system-layout>
          <system-margins>
            <left-margin>8</left-margin>
            <right-margin>49</right-margin>
          </system-margins>
          <system-distance>137</system-distance>
        </system-layout>
        <staff-layout number="2">
          <staff-distance>86</staff-distance>
        </staff-layout>
      </print>
      <attributes>
        <staff-details print-object="yes"></staff-details>
      </attributes>
      <note default-x="94">
        <pitch>
          <step>B</step>
          <octave>4</octave>
        </pitch>
        <duration>2</duration>
        <voice>1</voice>
        <type>quarter</type>
        <stem default-y="18">up</stem>
        <staff>1</staff>
      </note>
      <note default-x="150">
        <pitch>
          <step>A</step>
          <octave>4</octave>
        </pitch>
        <duration>2</duration>
        <voice>1</voice>
        <type>quarter</type>
        <stem default-y="12">up</stem>
        <staff>1</staff>
      </note>
      <note default-x="187">
        <pitch>
          <step>G</step>
          <octave>4</octave>
        </pitch>
        <duration>2</duration>
        <voice>1</voice>
        <type>quarter</type>
        <stem default-y="4">up</stem>
        <staff>1</staff>
      </note>
      <note default-x="243">
        <pitch>
          <step>A</step>
          <octave>4</octave>
        </pitch>
        <duration>2</duration>
        <voice>1</voice>
        <type>quarter</type>
        <stem default-y="13">up</stem>
        <staff>1</staff>
      </note>
      <backup>
        <duration>8</duration>
      </backup>
      <note default-x="94">
        <pitch>
          <step>A</step>
          <octave>3</octave>
        </pitch>
        <duration>2</duration>
        <voice>2</voice>
        <type>quarter</type>
        <stem default-y="-99">down</stem>
        <staff>1</staff>
      </note>
      <forward>
        <duration>2</duration>
        <voice>2</voice>
        <staff>1</staff>
      </forward>
      <note default-x="188">
        <pitch>
          <step>A</step>
          <octave>3</octave>
        </pitch>
        <duration>3</duration>
        <voice>2</voice>
        <type>quarter</type>
        <dot/>
        <stem default-y="-93">down</stem>
        <staff>1</staff>
      </note>
      <backup>
        <duration>7</duration>
      </backup>
      <note default-x="91">
        <pitch>
          <step>G</step>
          <octave>2</octave>
        </pitch>
        <duration>2</duration>
        <voice>3</voice>
        <type>quarter</type>
        <stem default-y="20">up</stem>
        <staff>2</staff>
      </note>
      <note default-x="91">
        <chord/>
        <pitch>
          <step>D</step>
          <octave>3</octave>
        </pitch>
        <duration>2</duration>
        <voice>3</voice>
        <type>quarter</type>
        <stem default-y="20">up</stem>
        <staff>2</staff>
      </note>
      <forward>
        <duration>2</duration>
        <voice>3</voice>
        <staff>2</staff>
      </forward>
      <note default-x="188">
        <pitch>
          <step>C</step>
          <octave>2</octave>
        </pitch>
        <duration>2</duration>
        <voice>3</voice>
        <type>quarter</type>
        <stem default-y="20">up</stem>
        <staff>2</staff>
      </note>
      <note default-x="188">
        <chord/>
        <pitch>
          <step>D</step>
          <octave>3</octave>
        </pitch>
        <duration>2</duration>
        <voice>3</voice>
        <type>quarter</type>
        <stem default-y="20">up</stem>
        <staff>2</staff>
      </note>
    </measure>
    <!--=======================================================-->
    <measure number="7" width="268">
      <note default-x="30">
        <pitch>
          <step>B</step>
          <octave>4</octave>
        </pitch>
        <duration>1</duration>
        <voice>1</voice>
        <type>eighth</type>
        <stem default-y="28">up</stem>
        <staff>1</staff>
        <beam number="1">begin</beam>
      </note>
      <note default-x="68">
        <pitch>
          <step>D</step>
          <octave>5</octave>
        </pitch>
        <duration>1</duration>
        <voice>1</voice>
        <type>eighth</type>
        <stem default-y="28">up</stem>
        <staff>1</staff>
        <beam number="1">continue</beam>
      </note>
      <note default-x="104">
        <pitch>
          <step>D</step>
          <octave>5</octave>
        </pitch>
        <duration>1</duration>
        <voice>1</voice>
        <type>eighth</type>
        <stem default-y="29">up</stem>
        <staff>1</staff>
        <beam number="1">end</beam>
      </note>
      <note default-x="142">
        <pitch>
          <step>D</step>
          <octave>5</octave>
        </pitch>
        <duration>1</duration>
        <voice>1</voice>
        <type>eighth</type>
        <stem default-y="28">up</stem>
        <staff>1</staff>
        <beam number="1">begin</beam>
      </note>
      <note default-x="178">
        <pitch>
          <step>B</step>
          <octave>4</octave>
        </pitch>
        <duration>1</duration>
        <voice>1</voice>
        <type>eighth</type>
        <stem default-y="22">up</stem>
        <staff>1</staff>
        <beam number="1">continue</beam>
      </note>
      <note default-x="215">
        <pitch>
          <step>A</step>
          <octave>4</octave>
        </pitch>
        <duration>1</duration>
        <voice>1</voice>
        <type>eighth</type>
        <stem default-y="16">up</stem>
        <staff>1</staff>
        <beam number="1">end</beam>
      </note>
      <backup>
        <duration>6</duration>
      </backup>
      <note default-x="28">
        <pitch>
          <step>D</step>
          <octave>4</octave>
        </pitch>
        <duration>2</duration>
        <voice>2</voice>
        <type>quarter</type>
        <stem default-y="-83">down</stem>
        <staff>1</staff>
      </note>
      <forward>
        <duration>1</duration>
        <voice>2</voice>
        <staff>1</staff>
      </forward>
      <note default-x="143">
        <pitch>
          <step>D</step>
          <octave>4</octave>
        </pitch>
        <duration>2</duration>
        <voice>2</voice>
        <type>quarter</type>
        <stem default-y="-83">down</stem>
        <staff>1</staff>
      </note>
      <backup>
        <duration>5</duration>
      </backup>
      <note default-x="31">
        <pitch>
          <step>G</step>
          <octave>2</octave>
        </pitch>
        <duration>2</duration>
        <voice>3</voice>
        <type>quarter</type>
        <stem default-y="20">up</stem>
        <staff>2</staff>
      </note>
      <note default-x="31">
        <chord/>
        <pitch>
          <step>D</step>
          <octave>3</octave>
        </pitch>
        <duration>2</duration>
        <voice>3</voice>
        <type>quarter</type>
        <stem default-y="20">up</stem>
        <staff>2</staff>
      </note>
      <forward>
        <duration>1</duration>
        <voice>3</voice>
        <staff>2</staff>
      </forward>
      <note default-x="145">
        <pitch>
          <step>D</step>
          <octave>2</octave>
        </pitch>
        <duration>2</duration>
        <voice>3</voice>
        <type>quarter</type>
        <stem default-y="19">up</stem>
        <staff>2</staff>
      </note>
      <note default-x="144">
        <chord/>
        <pitch>
          <step>D</step>
          <octave>3</octave>
        </pitch>
        <duration>2</duration>
        <voice>3</voice>
        <type>quarter</type>
        <stem default-y="19">up</stem>
        <staff>2</staff>
      </note>
    </measure>
    <!--=======================================================-->
    <measure number="8" width="248">
      <note default-x="28">
        <pitch>
          <step>B</step>
          <octave>4</octave>
        </pitch>
        <duration>2</duration>
        <voice>1</voice>
        <type>quarter</type>
        <stem default-y="20">up</stem>
        <staff>1</staff>
      </note>
      <note default-x="90">
        <pitch>
          <step>A</step>
          <octave>4</octave>
        </pitch>
        <duration>2</duration>
        <voice>1</voice>
        <type>quarter</type>
        <stem default-y="12">up</stem>
        <staff>1</staff>
      </note>
      <note default-x="130">
        <pitch>
          <step>G</step>
          <octave>4</octave>
        </pitch>
        <duration>2</duration>
        <voice>1</voice>
        <type>quarter</type>
        <stem default-y="7">up</stem>
        <staff>1</staff>
      </note>
      <note default-x="191">
        <pitch>
          <step>A</step>
          <octave>4</octave>
        </pitch>
        <duration>2</duration>
        <voice>1</voice>
        <type>quarter</type>
        <stem default-y="14">up</stem>
        <staff>1</staff>
      </note>
      <backup>
        <duration>8</duration>
      </backup>
      <note default-x="29">
        <pitch>
          <step>B</step>
          <octave>3</octave>
        </pitch>
        <duration>2</duration>
        <voice>2</voice>
        <type>quarter</type>
        <stem default-y="-91">down</stem>
        <staff>1</staff>
      </note>
      <forward>
        <duration>2</duration>
        <voice>2</voice>
        <staff>1</staff>
      </forward>
      <note default-x="130">
        <pitch>
          <step>A</step>
          <octave>3</octave>
        </pitch>
        <duration>2</duration>
        <voice>2</voice>
        <type>quarter</type>
        <stem default-y="-92">down</stem>
        <staff>1</staff>
      </note>
      <backup>
        <duration>6</duration>
      </backup>
      <note default-x="31">
        <pitch>
          <step>G</step>
          <octave>2</octave>
        </pitch>
        <duration>2</duration>
        <voice>3</voice>
        <type>quarter</type>
        <stem default-y="19">up</stem>
        <staff>2</staff>
      </note>
      <note default-x="31">
        <chord/>
        <pitch>
          <step>D</step>
          <octave>3</octave>
        </pitch>
        <duration>2</duration>
        <voice>3</voice>
        <type>quarter</type>
        <stem default-y="19">up</stem>
        <staff>2</staff>
      </note>
      <forward>
        <duration>2</duration>
        <voice>3</voice>
        <staff>2</staff>
      </forward>
      <note default-x="132">
        <pitch>
          <step>E</step>
          <octave>2</octave>
        </pitch>
        <duration>2</duration>
        <voice>3</voice>
        <type>quarter</type>
        <stem default-y="20">up</stem>
        <staff>2</staff>
      </note>
      <note default-x="131">
        <chord/>
        <pitch>
          <step>E</step>
          <octave>3</octave>
        </pitch>
        <duration>2</duration>
        <voice>3</voice>
        <type>quarter</type>
        <stem default-y="20">up</stem>
        <staff>2</staff>
      </note>
    </measure>
    <!--=======================================================-->
    <measure number="9" width="224">
      <note default-x="32">
        <pitch>
          <step>B</step>
          <octave>4</octave>
        </pitch>
        <duration>1</duration>
        <voice>1</voice>
        <type>eighth</type>
        <stem default-y="32">up</stem>
        <staff>1</staff>
        <beam number="1">begin</beam>
      </note>
      <note default-x="72">
        <pitch>
          <step>E</step>
          <octave>5</octave>
        </pitch>
        <duration>1</duration>
        <voice>1</voice>
        <type>eighth</type>
        <stem default-y="31">up</stem>
        <staff>1</staff>
        <beam number="1">continue</beam>
      </note>
      <note default-x="110">
        <pitch>
          <step>E</step>
          <octave>5</octave>
        </pitch>
        <duration>1</duration>
        <voice>1</voice>
        <type>eighth</type>
        <stem default-y="31">up</stem>
        <staff>1</staff>
        <beam number="1">end</beam>
      </note>
      <note default-x="151">
        <pitch>
          <step>E</step>
          <octave>5</octave>
        </pitch>
        <duration>2</duration>
        <voice>1</voice>
        <type>quarter</type>
        <stem default-y="29">up</stem>
        <staff>1</staff>
      </note>
      <backup>
        <duration>5</duration>
      </backup>
      <note default-x="31">
        <pitch>
          <step>E</step>
          <octave>4</octave>
        </pitch>
        <duration>2</duration>
        <voice>2</voice>
        <type>quarter</type>
        <stem default-y="-73">down</stem>
        <staff>1</staff>
      </note>
      <forward>
        <duration>1</duration>
        <voice>2</voice>
        <staff>1</staff>
      </forward>
      <note default-x="151">
        <pitch>
          <step>E</step>
          <octave>4</octave>
        </pitch>
        <duration>2</duration>
        <voice>2</voice>
        <type>quarter</type>
        <stem default-y="-76">down</stem>
        <staff>1</staff>
      </note>
      <backup>
        <duration>5</duration>
      </backup>
      <note default-x="32">
        <pitch>
          <step>A</step>
          <octave>1</octave>
        </pitch>
        <duration>2</duration>
        <voice>3</voice>
        <type>quarter</type>
        <stem default-y="5">up</stem>
        <staff>2</staff>
      </note>
      <note default-x="33">
        <chord/>
        <pitch>
          <step>B</step>
          <octave>2</octave>
        </pitch>
        <duration>2</duration>
        <voice>3</voice>
        <type>quarter</type>
        <stem default-y="5">up</stem>
        <staff>2</staff>
      </note>
      <forward>
        <duration>1</duration>
        <voice>3</voice>
        <staff>2</staff>
      </forward>
      <note default-x="153">
        <pitch>
          <step>E</step>
          <octave>2</octave>
        </pitch>
        <duration>2</duration>
        <voice>3</voice>
        <type>quarter</type>
        <stem default-y="-9">up</stem>
        <staff>2</staff>
      </note>
      <barline location="right">
        <bar-style>light-heavy</bar-style>
      </barline>
    </measure>
    <!--=======================================================-->
    <measure number="10" width="137">
      <print new-system="yes">
        <system-layout>
          <system-margins>
            <left-margin>7</left-margin>
            <right-margin>50</right-margin>
          </system-margins>
          <system-distance>137</system-distance>
        </system-layout>
        <staff-layout number="2">
          <staff-distance>86</staff-distance>
        </staff-layout>
      </print>
      <attributes>
        <staff-details print-object="yes"></staff-details>
      </attributes>
      <note default-x="94">
        <pitch>
          <step>D</step>
          <octave>5</octave>
        </pitch>
        <duration>2</duration>
        <voice>1</voice>
        <type>quarter</type>
        <stem default-y="29">up</stem>
        <staff>1</staff>
      </note>
    </measure>
    <!--=======================================================-->
    <measure number="11" width="216">
      <note default-x="24">
        <pitch>
          <step>B</step>
          <octave>4</octave>
        </pitch>
        <duration>1</duration>
        <voice>1</voice>
        <type>eighth</type>
        <stem default-y="41">up</stem>
        <staff>1</staff>
        <beam number="1">begin</beam>
      </note>
      <note default-x="54">
        <pitch>
          <step>G</step>
          <octave>5</octave>
        </pitch>
        <duration>1</duration>
        <voice>1</voice>
        <type>eighth</type>
        <stem default-y="41">up</stem>
        <staff>1</staff>
        <beam number="1">continue</beam>
      </note>
      <note default-x="86">
        <pitch>
          <step>G</step>
          <octave>5</octave>
        </pitch>
        <duration>1</duration>
        <voice>1</voice>
        <type>eighth</type>
        <stem default-y="42">up</stem>
        <staff>1</staff>
        <beam number="1">end</beam>
      </note>
      <note default-x="112">
        <pitch>
          <step>G</step>
          <octave>5</octave>
        </pitch>
        <duration>1</duration>
        <voice>1</voice>
        <type>eighth</type>
        <stem default-y="43">up</stem>
        <staff>1</staff>
        <beam number="1">begin</beam>
      </note>
      <note default-x="141">
        <pitch>
          <step>F</step>
          <alter>1</alter>
          <octave>5</octave>
        </pitch>
        <duration>1</duration>
        <voice>1</voice>
        <type>eighth</type>
        <stem default-y="42">up</stem>
        <staff>1</staff>
        <beam number="1">continue</beam>
      </note>
      <note default-x="171">
        <pitch>
          <step>G</step>
          <octave>5</octave>
        </pitch>
        <duration>1</duration>
        <voice>1</voice>
        <type>eighth</type>
        <stem default-y="42">up</stem>
        <staff>1</staff>
        <beam number="1">end</beam>
      </note>
      <backup>
        <duration>6</duration>
      </backup>
      <direction placement="below">
        <direction-type>
          <words default-y="-84" relative-x="-1" font-family="serif" font-style="italic" font-size="9" font-weight="bold">crés</words>
        </direction-type>
        <staff>1</staff>
      </direction>
      <note default-x="24">
        <pitch>
          <step>G</step>
          <octave>4</octave>
        </pitch>
        <duration>2</duration>
        <tie type="start"></tie>
        <voice>2</voice>
        <type>quarter</type>
        <stem default-y="-68">down</stem>
        <staff>1</staff>
        <notations>
          <tied type="start" orientation="under"></tied>
        </notations>
      </note>
      <forward>
        <duration>1</duration>
        <voice>2</voice>
        <staff>1</staff>
      </forward>
      <note default-x="115">
        <pitch>
          <step>G</step>
          <octave>4</octave>
        </pitch>
        <duration>2</duration>
        <tie type="stop"></tie>
        <voice>2</voice>
        <type>quarter</type>
        <stem default-y="-71">down</stem>
        <staff>1</staff>
        <notations>
          <tied type="stop"></tied>
        </notations>
      </note>
      <backup>
        <duration>5</duration>
      </backup>
      <note default-x="26">
        <pitch>
          <step>E</step>
          <octave>4</octave>
        </pitch>
        <duration>2</duration>
        <voice>3</voice>
        <type>quarter</type>
        <stem default-y="11">up</stem>
        <staff>2</staff>
      </note>
      <note default-x="26">
        <chord/>
        <pitch>
          <step>B</step>
          <octave>4</octave>
        </pitch>
        <duration>2</duration>
        <voice>3</voice>
        <type>quarter</type>
        <stem default-y="11">up</stem>
        <staff>2</staff>
      </note>
      <forward>
        <duration>1</duration>
        <voice>3</voice>
        <staff>2</staff>
      </forward>
      <note default-x="114">
        <pitch>
          <step>B</step>
          <octave>4</octave>
        </pitch>
        <duration>2</duration>
        <voice>3</voice>
        <type>quarter</type>
        <stem default-y="-59">down</stem>
        <staff>2</staff>
      </note>
      <note default-x="113">
        <chord/>
        <pitch>
          <step>G</step>
          <octave>5</octave>
        </pitch>
        <duration>2</duration>
        <voice>3</voice>
        <type>quarter</type>
        <stem default-y="-59">down</stem>
        <staff>2</staff>
      </note>
      <note default-x="114">
        <chord/>
        <pitch>
          <step>B</step>
          <octave>5</octave>
        </pitch>
        <duration>2</duration>
        <voice>3</voice>
        <type>quarter</type>
        <stem default-y="-59">down</stem>
        <staff>2</staff>
      </note>
    </measure>
    <!--=======================================================-->
    <measure number="12" width="231">
      <note default-x="24">
        <pitch>
          <step>B</step>
          <octave>4</octave>
        </pitch>
        <duration>1</duration>
        <voice>1</voice>
        <type>eighth</type>
        <stem default-y="29">up</stem>
        <staff>1</staff>
        <beam number="1">begin</beam>
      </note>
      <note default-x="57">
        <pitch>
          <step>D</step>
          <octave>5</octave>
        </pitch>
        <duration>1</duration>
        <voice>1</voice>
        <type>eighth</type>
        <stem default-y="29">up</stem>
        <staff>1</staff>
        <beam number="1">continue</beam>
      </note>
      <note default-x="89">
        <pitch>
          <step>D</step>
          <octave>5</octave>
        </pitch>
        <duration>1</duration>
        <voice>1</voice>
        <type>eighth</type>
        <stem default-y="29">up</stem>
        <staff>1</staff>
        <beam number="1">end</beam>
        <notations>
          <slur type="stop" number="1" bezier-x="-20" bezier-y="-12" default-x="14" default-y="-44"></slur>
        </notations>
      </note>
      <note default-x="121">
        <pitch>
          <step>D</step>
          <octave>5</octave>
        </pitch>
        <duration>1</duration>
        <voice>1</voice>
        <type>eighth</type>
        <stem default-y="28">up</stem>
        <staff>1</staff>
        <beam number="1">begin</beam>
      </note>
      <note default-x="154">
        <pitch>
          <step>B</step>
          <octave>4</octave>
        </pitch>
        <duration>1</duration>
        <voice>1</voice>
        <type>eighth</type>
        <stem default-y="21">up</stem>
        <staff>1</staff>
        <beam number="1">continue</beam>
      </note>
      <note default-x="183">
        <pitch>
          <step>A</step>
          <octave>4</octave>
        </pitch>
        <duration>1</duration>
        <voice>1</voice>
        <type>eighth</type>
        <stem default-y="17">up</stem>
        <staff>1</staff>
        <beam number="1">end</beam>
      </note>
      <backup>
        <duration>6</duration>
      </backup>
      <note default-x="26">
        <pitch>
          <step>G</step>
          <octave>4</octave>
        </pitch>
        <duration>2</duration>
        <voice>2</voice>
        <type>quarter</type>
        <stem default-y="-70">down</stem>
        <staff>1</staff>
        <notations>
          <slur type="start" number="1" bezier-x="18" bezier-y="-15" default-x="14" default-y="-41" placement="below"></slur>
        </notations>
      </note>
      <forward>
        <duration>1</duration>
        <voice>2</voice>
        <staff>1</staff>
      </forward>
      <direction placement="below">
        <direction-type>
          <words default-y="-83" relative-x="2" font-family="serif" font-style="italic" font-size="9" font-weight="bold">sen .</words>
        </direction-type>
        <staff>1</staff>
      </direction>
      <note default-x="121">
        <pitch>
          <step>G</step>
          <octave>4</octave>
        </pitch>
        <duration>2</duration>
        <voice>2</voice>
        <type>quarter</type>
        <stem default-y="-68">down</stem>
        <staff>1</staff>
      </note>
      <backup>
        <duration>5</duration>
      </backup>
      <note default-x="27">
        <pitch>
          <step>E</step>
          <octave>4</octave>
        </pitch>
        <duration>2</duration>
        <voice>3</voice>
        <type>quarter</type>
        <stem default-y="13">up</stem>
        <staff>2</staff>
      </note>
      <note default-x="27">
        <chord/>
        <pitch>
          <step>B</step>
          <octave>4</octave>
        </pitch>
        <duration>2</duration>
        <voice>3</voice>
        <type>quarter</type>
        <stem default-y="13">up</stem>
        <staff>2</staff>
      </note>
      <forward>
        <duration>1</duration>
        <voice>3</voice>
        <staff>2</staff>
      </forward>
      <note default-x="121">
        <pitch>
          <step>B</step>
          <octave>4</octave>
        </pitch>
        <duration>2</duration>
        <voice>3</voice>
        <type>quarter</type>
        <stem default-y="-64">down</stem>
        <staff>2</staff>
      </note>
      <note default-x="122">
        <chord/>
        <pitch>
          <step>G</step>
          <octave>5</octave>
        </pitch>
        <duration>2</duration>
        <voice>3</voice>
        <type>quarter</type>
        <stem default-y="-64">down</stem>
        <staff>2</staff>
      </note>
      <note default-x="121">
        <chord/>
        <pitch>
          <step>B</step>
          <octave>5</octave>
        </pitch>
        <duration>2</duration>
        <voice>3</voice>
        <type>quarter</type>
        <stem default-y="-64">down</stem>
        <staff>2</staff>
      </note>
    </measure>
    <!--=======================================================-->
    <measure number="13" width="229">
      <note default-x="27">
        <pitch>
          <step>G</step>
          <octave>4</octave>
        </pitch>
        <duration>1</duration>
        <voice>1</voice>
        <type>eighth</type>
        <stem default-y="40">up</stem>
        <staff>1</staff>
        <beam number="1">begin</beam>
      </note>
      <note default-x="26">
        <chord/>
        <pitch>
          <step>B</step>
          <octave>4</octave>
        </pitch>
        <duration>1</duration>
        <voice>1</voice>
        <type>eighth</type>
        <stem default-y="40">up</stem>
        <staff>1</staff>
        <beam number="1">begin</beam>
      </note>
      <note default-x="56">
        <pitch>
          <step>G</step>
          <octave>5</octave>
        </pitch>
        <duration>1</duration>
        <voice>1</voice>
        <type>eighth</type>
        <stem default-y="40">up</stem>
        <staff>1</staff>
        <beam number="1">continue</beam>
      </note>
      <note default-x="88">
        <pitch>
          <step>G</step>
          <octave>5</octave>
        </pitch>
        <duration>1</duration>
        <voice>1</voice>
        <type>eighth</type>
        <stem default-y="40">up</stem>
        <staff>1</staff>
        <beam number="1">end</beam>
      </note>
      <note default-x="121">
        <pitch>
          <step>G</step>
          <octave>5</octave>
        </pitch>
        <duration>1</duration>
        <voice>1</voice>
        <type>eighth</type>
        <stem default-y="43">up</stem>
        <staff>1</staff>
        <beam number="1">begin</beam>
      </note>
      <note default-x="153">
        <pitch>
          <step>F</step>
          <alter>1</alter>
          <octave>5</octave>
        </pitch>
        <duration>1</duration>
        <voice>1</voice>
        <type>eighth</type>
        <stem default-y="42">up</stem>
        <staff>1</staff>
        <beam number="1">continue</beam>
      </note>
      <note default-x="184">
        <pitch>
          <step>G</step>
          <octave>5</octave>
        </pitch>
        <duration>1</duration>
        <voice>1</voice>
        <type>eighth</type>
        <stem default-y="42">up</stem>
        <staff>1</staff>
        <beam number="1">end</beam>
      </note>
      <backup>
        <duration>6</duration>
      </backup>
      <forward>
        <duration>3</duration>
        <voice>2</voice>
        <staff>1</staff>
      </forward>
      <note default-x="121">
        <pitch>
          <step>G</step>
          <octave>4</octave>
        </pitch>
        <duration>2</duration>
        <voice>2</voice>
        <type>quarter</type>
        <stem default-y="-66">down</stem>
        <staff>1</staff>
      </note>
      <backup>
        <duration>5</duration>
      </backup>
      <note default-x="28">
        <pitch>
          <step>E</step>
          <octave>4</octave>
        </pitch>
        <duration>2</duration>
        <voice>3</voice>
        <type>quarter</type>
        <stem default-y="14">up</stem>
        <staff>2</staff>
      </note>
      <note default-x="27">
        <chord/>
        <pitch>
          <step>B</step>
          <octave>4</octave>
        </pitch>
        <duration>2</duration>
        <voice>3</voice>
        <type>quarter</type>
        <stem default-y="14">up</stem>
        <staff>2</staff>
      </note>
      <forward>
        <duration>1</duration>
        <voice>3</voice>
        <staff>2</staff>
      </forward>
      <note default-x="122">
        <pitch>
          <step>B</step>
          <octave>4</octave>
        </pitch>
        <duration>3</duration>
        <voice>3</voice>
        <type>quarter</type>
        <dot/>
        <stem default-y="-62">down</stem>
        <staff>2</staff>
      </note>
      <note default-x="122">
        <chord/>
        <pitch>
          <step>G</step>
          <octave>5</octave>
        </pitch>
        <duration>3</duration>
        <voice>3</voice>
        <type>quarter</type>
        <dot/>
        <stem default-y="-62">down</stem>
        <staff>2</staff>
      </note>
      <note default-x="123">
        <chord/>
        <pitch>
          <step>B</step>
          <octave>5</octave>
        </pitch>
        <duration>3</duration>
        <voice>3</voice>
        <type>quarter</type>
        <dot/>
        <stem default-y="-62">down</stem>
        <staff>2</staff>
      </note>
    </measure>
    <!--=======================================================-->
    <measure number="14" width="222">
      <note default-x="24">
        <pitch>
          <step>B</step>
          <octave>4</octave>
        </pitch>
        <duration>1</duration>
        <voice>1</voice>
        <type>eighth</type>
        <stem default-y="31">up</stem>
        <staff>1</staff>
        <beam number="1">begin</beam>
      </note>
      <note default-x="56">
        <pitch>
          <step>E</step>
          <octave>5</octave>
        </pitch>
        <duration>1</duration>
        <voice>1</voice>
        <type>eighth</type>
        <stem default-y="31">up</stem>
        <staff>1</staff>
        <beam number="1">continue</beam>
      </note>
      <note default-x="90">
        <pitch>
          <step>E</step>
          <octave>5</octave>
        </pitch>
        <duration>1</duration>
        <voice>1</voice>
        <type>eighth</type>
        <stem default-y="31">up</stem>
        <staff>1</staff>
        <beam number="1">end</beam>
      </note>
      <note default-x="121">
        <pitch>
          <step>E</step>
          <octave>5</octave>
        </pitch>
        <duration>2</duration>
        <voice>1</voice>
        <type>quarter</type>
        <stem default-y="34">up</stem>
        <staff>1</staff>
      </note>
      <note default-x="171">
        <pitch>
          <step>D</step>
          <octave>5</octave>
        </pitch>
        <duration>2</duration>
        <voice>1</voice>
        <type>quarter</type>
        <stem default-y="29">up</stem>
        <staff>1</staff>
      </note>
      <backup>
        <duration>7</duration>
      </backup>
      <direction placement="below">
        <direction-type>
          <words default-y="-84" relative-x="1" font-family="serif" font-style="italic" font-size="9" font-weight="bold">do</words>
        </direction-type>
        <staff>1</staff>
      </direction>
      <note default-x="26">
        <pitch>
          <step>G</step>
          <octave>4</octave>
        </pitch>
        <duration>3</duration>
        <voice>2</voice>
        <type>quarter</type>
        <dot/>
        <stem default-y="-65">down</stem>
        <staff>1</staff>
      </note>
      <note default-x="121">
        <pitch>
          <step>G</step>
          <octave>4</octave>
        </pitch>
        <duration>2</duration>
        <voice>2</voice>
        <type>quarter</type>
        <stem default-y="-66">down</stem>
        <staff>1</staff>
      </note>
      <backup>
        <duration>5</duration>
      </backup>
      <note default-x="29">
        <pitch>
          <step>C</step>
          <octave>4</octave>
        </pitch>
        <duration>2</duration>
        <voice>3</voice>
        <type>quarter</type>
        <stem default-y="6">up</stem>
        <staff>2</staff>
      </note>
      <note default-x="27">
        <chord/>
        <pitch>
          <step>G</step>
          <octave>4</octave>
        </pitch>
        <duration>2</duration>
        <voice>3</voice>
        <type>quarter</type>
        <stem default-y="6">up</stem>
        <staff>2</staff>
      </note>
      <forward>
        <duration>1</duration>
        <voice>3</voice>
        <staff>2</staff>
      </forward>
      <note default-x="122">
        <pitch>
          <step>E</step>
          <octave>5</octave>
        </pitch>
        <duration>2</duration>
        <voice>3</voice>
        <type>quarter</type>
        <stem default-y="-42">down</stem>
        <staff>2</staff>
      </note>
      <note default-x="121">
        <chord/>
        <pitch>
          <step>G</step>
          <octave>5</octave>
        </pitch>
        <duration>2</duration>
        <voice>3</voice>
        <type>quarter</type>
        <stem default-y="-42">down</stem>
        <staff>2</staff>
      </note>
      <note default-x="121">
        <chord/>
        <pitch>
          <step>C</step>
          <octave>6</octave>
        </pitch>
        <duration>2</duration>
        <voice>3</voice>
        <type>quarter</type>
        <stem default-y="-42">down</stem>
        <staff>2</staff>
      </note>
    </measure>
    <!--=======================================================-->
    <measure number="15" width="323">
      <print new-system="yes">
        <system-layout>
          <system-margins>
            <left-margin>7</left-margin>
            <right-margin>49</right-margin>
          </system-margins>
          <system-distance>136</system-distance>
        </system-layout>
        <staff-layout number="2">
          <staff-distance>86</staff-distance>
        </staff-layout>
      </print>
      <attributes>
        <staff-details print-object="yes"></staff-details>
      </attributes>
      <note default-x="92">
        <pitch>
          <step>B</step>
          <octave>4</octave>
        </pitch>
        <duration>1</duration>
        <voice>1</voice>
        <type>eighth</type>
        <stem default-y="42">up</stem>
        <staff>1</staff>
        <beam number="1">begin</beam>
      </note>
      <note default-x="128">
        <pitch>
          <step>G</step>
          <octave>5</octave>
        </pitch>
        <duration>1</duration>
        <voice>1</voice>
        <type>eighth</type>
        <stem default-y="41">up</stem>
        <staff>1</staff>
        <beam number="1">continue</beam>
      </note>
      <note default-x="167">
        <pitch>
          <step>G</step>
          <octave>5</octave>
        </pitch>
        <duration>1</duration>
        <voice>1</voice>
        <type>eighth</type>
        <stem default-y="41">up</stem>
        <staff>1</staff>
        <beam number="1">end</beam>
      </note>
      <note default-x="202">
        <pitch>
          <step>G</step>
          <octave>5</octave>
        </pitch>
        <duration>1</duration>
        <voice>1</voice>
        <type>eighth</type>
        <stem default-y="44">up</stem>
        <staff>1</staff>
        <beam number="1">begin</beam>
      </note>
      <note default-x="238">
        <pitch>
          <step>F</step>
          <alter>1</alter>
          <octave>5</octave>
        </pitch>
        <duration>1</duration>
        <voice>1</voice>
        <type>eighth</type>
        <stem default-y="44">up</stem>
        <staff>1</staff>
        <beam number="1">continue</beam>
      </note>
      <note default-x="274">
        <pitch>
          <step>G</step>
          <octave>5</octave>
        </pitch>
        <duration>1</duration>
        <voice>1</voice>
        <type>eighth</type>
        <stem default-y="45">up</stem>
        <staff>1</staff>
        <beam number="1">end</beam>
      </note>
      <backup>
        <duration>6</duration>
      </backup>
      <direction placement="below">
        <direction-type>
          <dynamics default-y="-88" relative-x="-3">
            <f/>
          </dynamics>
        </direction-type>
        <staff>1</staff>
        <sound dynamics="100"></sound>
      </direction>
      <note default-x="92">
        <pitch>
          <step>G</step>
          <octave>4</octave>
        </pitch>
        <duration>2</duration>
        <voice>2</voice>
        <type>quarter</type>
        <stem default-y="-69">down</stem>
        <staff>1</staff>
      </note>
      <forward>
        <duration>1</duration>
        <voice>2</voice>
        <staff>1</staff>
      </forward>
      <note default-x="202">
        <pitch>
          <step>G</step>
          <octave>4</octave>
        </pitch>
        <duration>2</duration>
        <voice>2</voice>
        <type>quarter</type>
        <stem default-y="-66">down</stem>
        <staff>1</staff>
      </note>
      <backup>
        <duration>5</duration>
      </backup>
      <forward>
        <duration>3</duration>
        <voice>3</voice>
        <staff>2</staff>
      </forward>
      <note default-x="203">
        <pitch>
          <step>B</step>
          <octave>4</octave>
        </pitch>
        <duration>2</duration>
        <voice>3</voice>
        <type>quarter</type>
        <stem default-y="-56">down</stem>
        <staff>2</staff>
      </note>
      <note default-x="202">
        <chord/>
        <pitch>
          <step>G</step>
          <octave>5</octave>
        </pitch>
        <duration>2</duration>
        <voice>3</voice>
        <type>quarter</type>
        <stem default-y="-56">down</stem>
        <staff>2</staff>
      </note>
      <note default-x="202">
        <chord/>
        <pitch>
          <step>B</step>
          <octave>5</octave>
        </pitch>
        <duration>2</duration>
        <voice>3</voice>
        <type>quarter</type>
        <stem default-y="-56">down</stem>
        <staff>2</staff>
      </note>
    </measure>
    <!--=======================================================-->
    <measure number="16" width="262">
      <note default-x="35">
        <pitch>
          <step>B</step>
          <octave>4</octave>
        </pitch>
        <duration>1</duration>
        <voice>1</voice>
        <type>eighth</type>
        <stem default-y="29">up</stem>
        <staff>1</staff>
        <beam number="1">begin</beam>
      </note>
      <note default-x="69">
        <pitch>
          <step>D</step>
          <octave>5</octave>
        </pitch>
        <duration>1</duration>
        <voice>1</voice>
        <type>eighth</type>
        <stem default-y="29">up</stem>
        <staff>1</staff>
        <beam number="1">continue</beam>
      </note>
      <note default-x="104">
        <pitch>
          <step>D</step>
          <octave>5</octave>
        </pitch>
        <duration>1</duration>
        <voice>1</voice>
        <type>eighth</type>
        <stem default-y="29">up</stem>
        <staff>1</staff>
        <beam number="1">end</beam>
      </note>
      <note default-x="142">
        <pitch>
          <step>D</step>
          <octave>5</octave>
        </pitch>
        <duration>1</duration>
        <voice>1</voice>
        <type>eighth</type>
        <stem default-y="30">up</stem>
        <staff>1</staff>
        <beam number="1">begin</beam>
      </note>
      <note default-x="176">
        <pitch>
          <step>B</step>
          <octave>4</octave>
        </pitch>
        <duration>1</duration>
        <voice>1</voice>
        <type>eighth</type>
        <stem default-y="22">up</stem>
        <staff>1</staff>
        <beam number="1">continue</beam>
      </note>
      <note default-x="212">
        <pitch>
          <step>A</step>
          <octave>4</octave>
        </pitch>
        <duration>1</duration>
        <voice>1</voice>
        <type>eighth</type>
        <stem default-y="16">up</stem>
        <staff>1</staff>
        <beam number="1">end</beam>
      </note>
      <backup>
        <duration>6</duration>
      </backup>
      <note default-x="34">
        <pitch>
          <step>D</step>
          <octave>4</octave>
        </pitch>
        <duration>2</duration>
        <voice>2</voice>
        <type>quarter</type>
        <stem default-y="-83">down</stem>
        <staff>1</staff>
      </note>
      <forward>
        <duration>1</duration>
        <voice>2</voice>
        <staff>1</staff>
      </forward>
      <note default-x="141">
        <pitch>
          <step>D</step>
          <octave>4</octave>
        </pitch>
        <duration>2</duration>
        <voice>2</voice>
        <type>quarter</type>
        <stem default-y="-83">down</stem>
        <staff>1</staff>
      </note>
      <backup>
        <duration>5</duration>
      </backup>
      <note default-x="36">
        <pitch>
          <step>D</step>
          <octave>3</octave>
        </pitch>
        <duration>2</duration>
        <voice>3</voice>
        <type>quarter</type>
        <stem default-y="-3">up</stem>
        <staff>2</staff>
      </note>
      <note default-x="36">
        <chord/>
        <pitch>
          <step>B</step>
          <octave>3</octave>
        </pitch>
        <duration>2</duration>
        <voice>3</voice>
        <type>quarter</type>
        <stem default-y="-3">up</stem>
        <staff>2</staff>
      </note>
      <note default-x="36">
        <chord/>
        <pitch>
          <step>E</step>
          <octave>4</octave>
        </pitch>
        <duration>2</duration>
        <voice>3</voice>
        <type>quarter</type>
        <stem default-y="-3">up</stem>
        <staff>2</staff>
      </note>
      <forward>
        <duration>1</duration>
        <voice>3</voice>
        <staff>2</staff>
      </forward>
      <note default-x="142">
        <pitch>
          <step>B</step>
          <octave>4</octave>
        </pitch>
        <duration>2</duration>
        <voice>3</voice>
        <type>quarter</type>
        <stem default-y="-58">down</stem>
        <staff>2</staff>
      </note>
      <note default-x="143">
        <chord/>
        <pitch>
          <step>E</step>
          <octave>5</octave>
        </pitch>
        <duration>2</duration>
        <voice>3</voice>
        <type>quarter</type>
        <stem default-y="-58">down</stem>
        <staff>2</staff>
      </note>
      <note default-x="143">
        <chord/>
        <pitch>
          <step>G</step>
          <octave>5</octave>
        </pitch>
        <duration>2</duration>
        <voice>3</voice>
        <type>quarter</type>
        <stem default-y="-58">down</stem>
        <staff>2</staff>
      </note>
    </measure>
    <!--=======================================================-->
    <measure number="17" width="227">
      <note default-x="31">
        <pitch>
          <step>B</step>
          <octave>4</octave>
        </pitch>
        <duration>2</duration>
        <voice>1</voice>
        <type>quarter</type>
        <stem default-y="22">up</stem>
        <staff>1</staff>
      </note>
      <note default-x="86">
        <pitch>
          <step>A</step>
          <octave>4</octave>
        </pitch>
        <duration>2</duration>
        <voice>1</voice>
        <type>quarter</type>
        <stem default-y="13">up</stem>
        <staff>1</staff>
      </note>
      <note default-x="122">
        <pitch>
          <step>G</step>
          <octave>4</octave>
        </pitch>
        <duration>2</duration>
        <voice>1</voice>
        <type>quarter</type>
        <stem default-y="4">up</stem>
        <staff>1</staff>
      </note>
      <note default-x="176">
        <pitch>
          <step>A</step>
          <octave>4</octave>
        </pitch>
        <duration>2</duration>
        <voice>1</voice>
        <type>quarter</type>
        <stem default-y="14">up</stem>
        <staff>1</staff>
      </note>
      <backup>
        <duration>8</duration>
      </backup>
      <note default-x="32">
        <pitch>
          <step>A</step>
          <octave>3</octave>
        </pitch>
        <duration>2</duration>
        <voice>2</voice>
        <type>quarter</type>
        <stem default-y="-91">down</stem>
        <staff>1</staff>
      </note>
      <forward>
        <duration>2</duration>
        <voice>2</voice>
        <staff>1</staff>
      </forward>
      <note default-x="122">
        <pitch>
          <step>B</step>
          <octave>3</octave>
        </pitch>
        <duration>2</duration>
        <voice>2</voice>
        <type>quarter</type>
        <stem default-y="-92">down</stem>
        <staff>1</staff>
      </note>
      <backup>
        <duration>6</duration>
      </backup>
      <note default-x="34">
        <pitch>
          <step>E</step>
          <octave>4</octave>
        </pitch>
        <duration>2</duration>
        <voice>3</voice>
        <type>quarter</type>
        <stem default-y="28">up</stem>
        <staff>2</staff>
      </note>
      <note default-x="34">
        <chord/>
        <pitch>
          <step>G</step>
          <octave>4</octave>
        </pitch>
        <duration>2</duration>
        <voice>3</voice>
        <type>quarter</type>
        <stem default-y="28">up</stem>
        <staff>2</staff>
      </note>
      <note default-x="34">
        <chord/>
        <pitch>
          <step>E</step>
          <octave>5</octave>
        </pitch>
        <duration>2</duration>
        <voice>3</voice>
        <type>quarter</type>
        <stem default-y="28">up</stem>
        <staff>2</staff>
      </note>
      <forward>
        <duration>2</duration>
        <voice>3</voice>
        <staff>2</staff>
      </forward>
      <note default-x="122">
        <pitch>
          <step>C</step>
          <octave>4</octave>
        </pitch>
        <duration>2</duration>
        <voice>3</voice>
        <type>quarter</type>
        <stem default-y="23">up</stem>
        <staff>2</staff>
      </note>
      <note default-x="123">
        <chord/>
        <pitch>
          <step>G</step>
          <octave>4</octave>
        </pitch>
        <duration>2</duration>
        <voice>3</voice>
        <type>quarter</type>
        <stem default-y="23">up</stem>
        <staff>2</staff>
      </note>
      <note default-x="122">
        <chord/>
        <pitch>
          <step>C</step>
          <octave>5</octave>
        </pitch>
        <duration>2</duration>
        <voice>3</voice>
        <type>quarter</type>
        <stem default-y="23">up</stem>
        <staff>2</staff>
      </note>
    </measure>
    <!--=======================================================-->
    <measure number="18" width="222">
      <note default-x="31">
        <pitch>
          <step>B</step>
          <octave>4</octave>
        </pitch>
        <duration>1</duration>
        <voice>1</voice>
        <type>eighth</type>
        <stem default-y="30">up</stem>
        <staff>1</staff>
        <beam number="1">begin</beam>
      </note>
      <note default-x="68">
        <pitch>
          <step>E</step>
          <octave>5</octave>
        </pitch>
        <duration>1</duration>
        <voice>1</voice>
        <type>eighth</type>
        <stem default-y="30">up</stem>
        <staff>1</staff>
        <beam number="1">continue</beam>
      </note>
      <note default-x="104">
        <pitch>
          <step>E</step>
          <octave>5</octave>
        </pitch>
        <duration>1</duration>
        <voice>1</voice>
        <type>eighth</type>
        <stem default-y="29">up</stem>
        <staff>1</staff>
        <beam number="1">end</beam>
      </note>
      <note default-x="141">
        <pitch>
          <step>E</step>
          <octave>5</octave>
        </pitch>
        <duration>2</duration>
        <voice>1</voice>
        <type>quarter</type>
        <stem default-y="31">up</stem>
        <staff>1</staff>
      </note>
      <backup>
        <duration>5</duration>
      </backup>
      <note default-x="32">
        <pitch>
          <step>E</step>
          <octave>4</octave>
        </pitch>
        <duration>2</duration>
        <voice>2</voice>
        <type>quarter</type>
        <stem default-y="-79">down</stem>
        <staff>1</staff>
      </note>
      <forward>
        <duration>1</duration>
        <voice>2</voice>
        <staff>1</staff>
      </forward>
      <note default-x="141">
        <pitch>
          <step>E</step>
          <octave>4</octave>
        </pitch>
        <duration>2</duration>
        <voice>2</voice>
        <type>quarter</type>
        <stem default-y="-74">down</stem>
        <staff>1</staff>
      </note>
      <note default-x="141">
        <chord/>
        <pitch>
          <step>G</step>
          <octave>4</octave>
        </pitch>
        <duration>2</duration>
        <voice>2</voice>
        <type>quarter</type>
        <stem default-y="-74">down</stem>
        <staff>1</staff>
      </note>
      <backup>
        <duration>5</duration>
      </backup>
      <note default-x="33">
        <pitch>
          <step>G</step>
          <octave>3</octave>
        </pitch>
        <duration>2</duration>
        <voice>3</voice>
        <type>quarter</type>
        <stem default-y="5">up</stem>
        <staff>2</staff>
      </note>
      <note default-x="33">
        <chord/>
        <pitch>
          <step>B</step>
          <octave>3</octave>
        </pitch>
        <duration>2</duration>
        <voice>3</voice>
        <type>quarter</type>
        <stem default-y="5">up</stem>
        <staff>2</staff>
      </note>
      <note default-x="33">
        <chord/>
        <pitch>
          <step>G</step>
          <octave>4</octave>
        </pitch>
        <duration>2</duration>
        <voice>3</voice>
        <type>quarter</type>
        <stem default-y="5">up</stem>
        <staff>2</staff>
      </note>
      <forward>
        <duration>1</duration>
        <voice>3</voice>
        <staff>2</staff>
      </forward>
      <note default-x="142">
        <pitch>
          <step>B</step>
          <octave>2</octave>
        </pitch>
        <duration>2</duration>
        <voice>3</voice>
        <type>quarter</type>
        <stem default-y="-13">up</stem>
        <staff>2</staff>
      </note>
      <note default-x="141">
        <chord/>
        <pitch>
          <step>F</step>
          <alter>1</alter>
          <octave>3</octave>
        </pitch>
        <duration>2</duration>
        <voice>3</voice>
        <type>quarter</type>
        <stem default-y="-13">up</stem>
        <staff>2</staff>
      </note>
      <note default-x="142">
        <chord/>
        <pitch>
          <step>A</step>
          <octave>3</octave>
        </pitch>
        <duration>2</duration>
        <voice>3</voice>
        <type>quarter</type>
        <stem default-y="-13">up</stem>
        <staff>2</staff>
      </note>
      <note default-x="144">
        <chord/>
        <pitch>
          <step>C</step>
          <octave>4</octave>
        </pitch>
        <duration>2</duration>
        <voice>3</voice>
        <type>quarter</type>
        <stem default-y="-13">up</stem>
        <staff>2</staff>
      </note>
      <barline location="right">
        <bar-style>light-heavy</bar-style>
      </barline>
    </measure>
  </part>
</score-partwise>