<?xml version="1.0" encoding="UTF-8"?>
<!DOCTYPE score-partwise PUBLIC "-//Recordare//DTD MusicXML 3.0.1 Partwise//EN" "http://www.musicxml.org/dtds/partwise.dtd">
<score-partwise version="3.0.1">
  <movement-number>2</movement-number>
  <movement-title>[Audiveris detected movement]</movement-title>
  <identification>
    <encoding>
      <software>Audiveris 5.0.0</software>
      <supports type="yes" element="print" attribute="new-system" value="yes"></supports>
      <supports type="yes" element="print" attribute="new-page" value="yes"></supports>
      <software>ProxyMusic 3.0.1.8e1a2c5</software>
      <encoding-date>2017-10-06</encoding-date>
    </encoding>
    <source>/Users/stephenn/Documents/workspace/nlsomr/working/91387692.jpg</source>
    <miscellaneous>
      <miscellaneous-field name="source-file">/Users/stephenn/Documents/workspace/nlsomr/working/91387692.jpg</miscellaneous-field>
      <miscellaneous-field name="source-sheet-1">3 4 5 6</miscellaneous-field>
    </miscellaneous>
  </identification>
  <defaults>
    <scaling>
      <millimeters>5.4187</millimeters>
      <tenths>40</tenths>
    </scaling>
    <page-layout>
      <page-height>1910</page-height>
      <page-width>1250</page-width>
      <page-margins type="both">
        <left-margin>80</left-margin>
        <right-margin>80</right-margin>
        <top-margin>80</top-margin>
        <bottom-margin>80</bottom-margin>
      </page-margins>
    </page-layout>
    <lyric-font font-family="Serif" font-size="10"></lyric-font>
  </defaults>
  <part-list>
    <score-part id="P1">
      <part-name>Dolcezza.</part-name>
      <score-instrument id="P1-I1">
        <instrument-name>Acoustic Grand Piano</instrument-name>
      </score-instrument>
      <midi-instrument id="P1-I1">
        <midi-channel>1</midi-channel>
        <midi-program>1</midi-program>
        <volume>78</volume>
      </midi-instrument>
    </score-part>
  </part-list>
  <!--= = = = = = = = = = = = = = = = = = = = = = = = = = = = =-->
  <part id="P1">
    <!--=======================================================-->
    <measure number="0" implicit="yes" width="220">
      <print>
        <system-layout>
          <system-margins>
            <left-margin>128</left-margin>
            <right-margin>47</right-margin>
          </system-margins>
          <top-system-distance>688</top-system-distance>
        </system-layout>
        <staff-layout number="2">
          <staff-distance>69</staff-distance>
        </staff-layout>
        <measure-numbering>system</measure-numbering>
      </print>
      <attributes>
        <divisions>4</divisions>
        <key>
          <fifths>1</fifths>
        </key>
        <time>
          <beats>3</beats>
          <beat-type>4</beat-type>
        </time>
        <staves>2</staves>
        <clef number="1">
          <sign>G</sign>
          <line>3</line>
        </clef>
        <clef number="2">
          <sign>F</sign>
          <line>4</line>
        </clef>
        <staff-details print-object="yes"></staff-details>
      </attributes>
      <direction>
        <direction-type>
          <words></words>
        </direction-type>
        <sound tempo="120"></sound>
      </direction>
      <direction placement="below">
        <direction-type>
          <dynamics default-y="-75" relative-x="-1">
            <p/>
          </dynamics>
        </direction-type>
        <staff>1</staff>
        <sound dynamics="56"></sound>
      </direction>
      <note default-x="128">
        <pitch>
          <step>G</step>
          <octave>4</octave>
        </pitch>
        <duration>2</duration>
        <voice>1</voice>
        <type>eighth</type>
        <stem default-y="10">up</stem>
        <staff>1</staff>
        <beam number="1">begin</beam>
        <notations>
          <slur type="start" number="1" bezier-x="22" bezier-y="-7" default-x="3" default-y="-45" placement="below"></slur>
        </notations>
      </note>
      <note default-x="154">
        <pitch>
          <step>A</step>
          <octave>4</octave>
        </pitch>
        <duration>2</duration>
        <voice>1</voice>
        <type>eighth</type>
        <stem default-y="15">up</stem>
        <staff>1</staff>
        <beam number="1">continue</beam>
      </note>
      <direction placement="above">
        <direction-type>
          <words default-y="81" relative-x="-12" font-family="serif" font-size="14" font-weight="bold">With her Dog and her Gun.</words>
        </direction-type>
        <staff>1</staff>
      </direction>
      <note default-x="183">
        <pitch>
          <step>B</step>
          <octave>4</octave>
        </pitch>
        <duration>2</duration>
        <voice>1</voice>
        <type>eighth</type>
        <stem default-y="21">up</stem>
        <staff>1</staff>
        <beam number="1">end</beam>
        <notations>
          <slur type="stop" number="1" bezier-x="-16" bezier-y="-17" default-x="8" default-y="-31"></slur>
        </notations>
      </note>
    </measure>
    <!--=======================================================-->
    <measure number="1" width="178">
      <note default-x="22">
        <pitch>
          <step>C</step>
          <octave>5</octave>
        </pitch>
        <duration>4</duration>
        <voice>1</voice>
        <type>quarter</type>
        <stem default-y="-51">down</stem>
        <staff>1</staff>
        <notations>
          <slur type="start" number="1" bezier-x="37" bezier-y="20" default-x="8" default-y="-4" placement="above"></slur>
        </notations>
      </note>
      <note default-x="59">
        <pitch>
          <step>B</step>
          <octave>4</octave>
        </pitch>
        <duration>2</duration>
        <voice>1</voice>
        <type>eighth</type>
        <stem default-y="-61">down</stem>
        <staff>1</staff>
        <beam number="1">begin</beam>
      </note>
      <note default-x="85">
        <pitch>
          <step>C</step>
          <octave>5</octave>
        </pitch>
        <duration>2</duration>
        <voice>1</voice>
        <type>eighth</type>
        <stem default-y="-59">down</stem>
        <staff>1</staff>
        <beam number="1">continue</beam>
      </note>
      <note default-x="111">
        <pitch>
          <step>D</step>
          <octave>5</octave>
        </pitch>
        <duration>2</duration>
        <voice>1</voice>
        <type>eighth</type>
        <stem default-y="-58">down</stem>
        <staff>1</staff>
        <beam number="1">continue</beam>
      </note>
      <note default-x="137">
        <pitch>
          <step>B</step>
          <octave>4</octave>
        </pitch>
        <duration>3</duration>
        <voice>1</voice>
        <type>eighth</type>
        <dot/>
        <stem default-y="-59">down</stem>
        <staff>1</staff>
        <beam number="1">end</beam>
        <notations>
          <slur type="stop" number="1" bezier-x="-35" bezier-y="25" default-x="16" default-y="-7"></slur>
        </notations>
      </note>
      <backup>
        <duration>13</duration>
      </backup>
      <note default-x="22">
        <pitch>
          <step>D</step>
          <octave>4</octave>
        </pitch>
        <duration>8</duration>
        <voice>2</voice>
        <type>half</type>
        <stem default-y="49">up</stem>
        <staff>2</staff>
      </note>
      <note default-x="112">
        <pitch>
          <step>B</step>
          <octave>2</octave>
        </pitch>
        <duration>6</duration>
        <voice>2</voice>
        <type>quarter</type>
        <dot/>
        <stem default-y="-65">down</stem>
        <staff>2</staff>
      </note>
      <backup>
        <duration>14</duration>
      </backup>
      <note default-x="22">
        <pitch>
          <step>F</step>
          <alter>1</alter>
          <octave>3</octave>
        </pitch>
        <duration>4</duration>
        <voice>3</voice>
        <type>quarter</type>
        <stem default-y="-47">down</stem>
        <staff>2</staff>
      </note>
      <note default-x="61">
        <pitch>
          <step>G</step>
          <octave>3</octave>
        </pitch>
        <duration>4</duration>
        <tie type="start"></tie>
        <voice>3</voice>
        <type>quarter</type>
        <stem default-y="-42">down</stem>
        <staff>2</staff>
        <notations>
          <tied type="start" orientation="over"></tied>
        </notations>
      </note>
      <note default-x="112">
        <pitch>
          <step>G</step>
          <octave>3</octave>
        </pitch>
        <duration>4</duration>
        <tie type="stop"></tie>
        <voice>3</voice>
        <type>quarter</type>
        <stem default-y="29">up</stem>
        <staff>2</staff>
        <notations>
          <tied type="stop"></tied>
        </notations>
      </note>
    </measure>
    <!--=======================================================-->
    <measure number="2" width="207">
      <note default-x="21">
        <pitch>
          <step>G</step>
          <octave>4</octave>
        </pitch>
        <duration>4</duration>
        <voice>1</voice>
        <type>quarter</type>
        <stem default-y="5">up</stem>
        <staff>1</staff>
        <notations>
          <slur type="start" number="1" bezier-x="39" bezier-y="32" default-x="11" default-y="8" placement="above"></slur>
          <slur type="start" number="2" bezier-x="5" bezier-y="0" default-x="14" default-y="0" placement="above"></slur>
          <slur type="start" number="3" bezier-x="3" bezier-y="3" default-x="24" default-y="-10" placement="above"></slur>
        </notations>
      </note>
      <note default-x="45">
        <pitch>
          <step>E</step>
          <octave>4</octave>
        </pitch>
        <duration>4</duration>
        <voice>1</voice>
        <type>quarter</type>
        <stem default-y="-5">up</stem>
        <staff>1</staff>
        <notations>
          <slur type="stop" number="2" bezier-x="-3" bezier-y="4" default-x="2" default-y="-7"></slur>
          <slur type="stop" number="3" bezier-x="-2" bezier-y="3" default-x="10" default-y="-10"></slur>
        </notations>
      </note>
      <note default-x="71">
        <pitch>
          <step>D</step>
          <octave>4</octave>
        </pitch>
        <duration>2</duration>
        <voice>1</voice>
        <type>eighth</type>
        <stem default-y="-8">up</stem>
        <staff>1</staff>
        <beam number="1">begin</beam>
        <notations>
          <slur type="start" number="2" bezier-x="6" bezier-y="-5" default-x="25" default-y="-51" placement="below"></slur>
        </notations>
      </note>
      <note default-x="94">
        <pitch>
          <step>E</step>
          <octave>4</octave>
        </pitch>
        <duration>2</duration>
        <voice>1</voice>
        <type>eighth</type>
        <stem default-y="-6">up</stem>
        <staff>1</staff>
        <beam number="1">end</beam>
      </note>
      <note default-x="121">
        <pitch>
          <step>G</step>
          <octave>4</octave>
        </pitch>
        <duration>2</duration>
        <voice>1</voice>
        <type>eighth</type>
        <stem default-y="6">up</stem>
        <staff>1</staff>
        <beam number="1">begin</beam>
      </note>
      <note default-x="146">
        <pitch>
          <step>A</step>
          <octave>4</octave>
        </pitch>
        <duration>2</duration>
        <voice>1</voice>
        <type>eighth</type>
        <stem default-y="13">up</stem>
        <staff>1</staff>
        <beam number="1">continue</beam>
      </note>
      <note default-x="171">
        <pitch>
          <step>B</step>
          <octave>4</octave>
        </pitch>
        <duration>2</duration>
        <voice>1</voice>
        <type>eighth</type>
        <stem default-y="20">up</stem>
        <staff>1</staff>
        <beam number="1">end</beam>
        <notations>
          <slur type="stop" number="1" bezier-x="-44" bezier-y="17" default-x="12" default-y="25"></slur>
        </notations>
      </note>
      <backup>
        <duration>18</duration>
      </backup>
      <forward>
        <duration>12</duration>
        <voice>2</voice>
        <staff>1</staff>
      </forward>
      <note default-x="121">
        <pitch>
          <step>E</step>
          <octave>4</octave>
        </pitch>
        <duration>4</duration>
        <voice>2</voice>
        <type>quarter</type>
        <stem default-y="-71">down</stem>
        <staff>1</staff>
        <notations>
          <slur type="stop" number="2" bezier-x="-7" bezier-y="-4" default-x="-3" default-y="-53"></slur>
        </notations>
      </note>
      <backup>
        <duration>16</duration>
      </backup>
      <note default-x="18">
        <pitch>
          <step>G</step>
          <octave>3</octave>
        </pitch>
        <duration>8</duration>
        <voice>3</voice>
        <type>half</type>
        <stem default-y="27">up</stem>
        <staff>2</staff>
      </note>
      <note default-x="71">
        <pitch>
          <step>B</step>
          <octave>2</octave>
        </pitch>
        <duration>4</duration>
        <voice>3</voice>
        <type>quarter</type>
        <stem default-y="-72">down</stem>
        <staff>2</staff>
      </note>
      <note default-x="124">
        <pitch>
          <step>C</step>
          <octave>3</octave>
        </pitch>
        <duration>4</duration>
        <voice>3</voice>
        <type>quarter</type>
        <stem default-y="-58">down</stem>
        <staff>2</staff>
      </note>
      <backup>
        <duration>16</duration>
      </backup>
      <note default-x="21">
        <pitch>
          <step>C</step>
          <octave>3</octave>
        </pitch>
        <duration>4</duration>
        <voice>4</voice>
        <type>quarter</type>
        <stem default-y="-53">down</stem>
        <staff>2</staff>
      </note>
    </measure>
    <!--=======================================================-->
    <measure number="3" width="174">
      <note default-x="29">
        <pitch>
          <step>A</step>
          <octave>4</octave>
        </pitch>
        <duration>2</duration>
        <voice>1</voice>
        <type>eighth</type>
        <stem default-y="13">up</stem>
        <staff>1</staff>
        <beam number="1">begin</beam>
        <notations>
          <slur type="start" number="1" bezier-x="47" bezier-y="21" default-x="12" default-y="18" placement="above"></slur>
        </notations>
      </note>
      <note default-x="56">
        <pitch>
          <step>G</step>
          <octave>4</octave>
        </pitch>
        <duration>1</duration>
        <voice>1</voice>
        <type>16th</type>
        <stem default-y="14">up</stem>
        <staff>1</staff>
        <beam number="1">continue</beam>
        <beam number="2">begin</beam>
      </note>
      <note default-x="78">
        <pitch>
          <step>A</step>
          <octave>4</octave>
        </pitch>
        <duration>1</duration>
        <voice>1</voice>
        <type>16th</type>
        <stem default-y="14">up</stem>
        <staff>1</staff>
        <beam number="1">end</beam>
        <beam number="2">end</beam>
      </note>
      <note default-x="99">
        <pitch>
          <step>G</step>
          <octave>4</octave>
        </pitch>
        <duration>4</duration>
        <voice>1</voice>
        <type>quarter</type>
        <stem default-y="4">up</stem>
        <staff>1</staff>
      </note>
      <backup>
        <duration>8</duration>
      </backup>
      <direction placement="below">
        <direction-type>
          <wedge type="diminuendo" spread="16" default-x="7" default-y="-74"></wedge>
        </direction-type>
        <staff>1</staff>
      </direction>
      <note default-x="31">
        <pitch>
          <step>C</step>
          <octave>4</octave>
        </pitch>
        <duration>4</duration>
        <voice>2</voice>
        <type>quarter</type>
        <stem default-y="-84">down</stem>
        <staff>1</staff>
      </note>
      <note default-x="29">
        <chord/>
        <pitch>
          <step>F</step>
          <alter>1</alter>
          <octave>4</octave>
        </pitch>
        <duration>4</duration>
        <voice>2</voice>
        <type>quarter</type>
        <stem default-y="-84">down</stem>
        <staff>1</staff>
      </note>
      <direction>
        <direction-type>
          <wedge type="stop" spread="0" default-x="-9"></wedge>
        </direction-type>
        <staff>1</staff>
      </direction>
      <note default-x="98">
        <pitch>
          <step>B</step>
          <octave>3</octave>
        </pitch>
        <duration>8</duration>
        <voice>2</voice>
        <type>half</type>
        <stem default-y="-88">down</stem>
        <staff>1</staff>
      </note>
      <direction placement="below">
        <direction-type>
          <dynamics default-y="-74" relative-x="-12">
            <p/>
          </dynamics>
        </direction-type>
        <staff>1</staff>
        <sound dynamics="56"></sound>
      </direction>
      <note default-x="135">
        <pitch>
          <step>G</step>
          <octave>4</octave>
        </pitch>
        <duration>4</duration>
        <voice>2</voice>
        <type>quarter</type>
        <stem default-y="3">up</stem>
        <staff>1</staff>
      </note>
      <backup>
        <duration>16</duration>
      </backup>
      <note default-x="29">
        <pitch>
          <step>D</step>
          <octave>3</octave>
        </pitch>
        <duration>8</duration>
        <voice>3</voice>
        <type>half</type>
        <stem default-y="-57">down</stem>
        <staff>2</staff>
      </note>
      <note default-x="96">
        <pitch>
          <step>G</step>
          <octave>3</octave>
        </pitch>
        <duration>8</duration>
        <tie type="start"></tie>
        <voice>3</voice>
        <type>half</type>
        <stem default-y="28">up</stem>
        <staff>2</staff>
        <notations>
          <tied type="start" orientation="over"></tied>
        </notations>
      </note>
    </measure>
    <!--=======================================================-->
    <measure number="4" width="136">
      <note default-x="21">
        <pitch>
          <step>G</step>
          <octave>4</octave>
        </pitch>
        <duration>8</duration>
        <voice>1</voice>
        <type>half</type>
        <stem default-y="3">up</stem>
        <staff>1</staff>
        <notations>
          <slur type="stop" number="1" bezier-x="-44" bezier-y="32" default-x="12" default-y="9"></slur>
        </notations>
      </note>
      <note default-x="71">
        <pitch>
          <step>D</step>
          <octave>5</octave>
        </pitch>
        <duration>2</duration>
        <voice>1</voice>
        <type>eighth</type>
        <stem default-y="29">up</stem>
        <staff>1</staff>
        <beam number="1">begin</beam>
        <notations>
          <slur type="start" number="1" bezier-x="14" bezier-y="-7" default-x="10" default-y="-22" placement="below"></slur>
        </notations>
      </note>
      <note default-x="90">
        <pitch>
          <step>E</step>
          <octave>5</octave>
        </pitch>
        <duration>2</duration>
        <voice>1</voice>
        <type>eighth</type>
        <stem default-y="35">up</stem>
        <staff>1</staff>
        <beam number="1">continue</beam>
      </note>
      <note default-x="111">
        <pitch>
          <step>F</step>
          <alter>1</alter>
          <octave>5</octave>
        </pitch>
        <duration>2</duration>
        <voice>1</voice>
        <type>eighth</type>
        <stem default-y="40">up</stem>
        <staff>1</staff>
        <beam number="1">end</beam>
        <notations>
          <slur type="stop" number="1" bezier-x="-10" bezier-y="-12" default-x="10" default-y="-14"></slur>
        </notations>
      </note>
      <backup>
        <duration>14</duration>
      </backup>
      <note default-x="19">
        <pitch>
          <step>G</step>
          <octave>3</octave>
        </pitch>
        <duration>8</duration>
        <tie type="stop"></tie>
        <voice>3</voice>
        <type>half</type>
        <stem default-y="28">up</stem>
        <staff>2</staff>
        <notations>
          <tied type="stop"></tied>
        </notations>
      </note>
      <backup>
        <duration>8</duration>
      </backup>
      <note default-x="19">
        <pitch>
          <step>G</step>
          <octave>2</octave>
        </pitch>
        <duration>8</duration>
        <voice>2</voice>
        <type>half</type>
        <stem default-y="-69">down</stem>
        <staff>2</staff>
      </note>
    </measure>
    <!--=======================================================-->
    <measure number="5" width="291">
      <print new-system="yes">
        <system-layout>
          <system-margins>
            <left-margin>6</left-margin>
            <right-margin>48</right-margin>
          </system-margins>
          <system-distance>118</system-distance>
        </system-layout>
        <staff-layout number="2">
          <staff-distance>69</staff-distance>
        </staff-layout>
      </print>
      <attributes>
        <staff-details print-object="yes"></staff-details>
      </attributes>
      <note default-x="86">
        <pitch>
          <step>G</step>
          <octave>5</octave>
        </pitch>
        <duration>4</duration>
        <voice>1</voice>
        <type>quarter</type>
        <stem default-y="37">up</stem>
        <staff>1</staff>
        <notations>
          <slur type="start" number="1" bezier-x="69" bezier-y="25" default-x="9" default-y="40" placement="above"></slur>
        </notations>
      </note>
      <note default-x="144">
        <pitch>
          <step>F</step>
          <alter>1</alter>
          <octave>5</octave>
        </pitch>
        <duration>4</duration>
        <voice>1</voice>
        <type>quarter</type>
        <stem default-y="29">up</stem>
        <staff>1</staff>
      </note>
      <note default-x="201">
        <pitch>
          <step>E</step>
          <octave>5</octave>
        </pitch>
        <duration>2</duration>
        <voice>1</voice>
        <type>eighth</type>
        <stem default-y="32">up</stem>
        <staff>1</staff>
        <beam number="1">begin</beam>
      </note>
      <note default-x="240">
        <pitch>
          <step>D</step>
          <octave>5</octave>
        </pitch>
        <duration>2</duration>
        <voice>1</voice>
        <type>eighth</type>
        <stem default-y="25">up</stem>
        <staff>1</staff>
        <beam number="1">end</beam>
      </note>
      <backup>
        <duration>12</duration>
      </backup>
      <note default-x="86">
        <pitch>
          <step>G</step>
          <octave>4</octave>
        </pitch>
        <duration>8</duration>
        <tie type="start"></tie>
        <voice>2</voice>
        <type>half</type>
        <stem default-y="-61">down</stem>
        <staff>1</staff>
        <notations>
          <tied type="start" orientation="under"></tied>
        </notations>
      </note>
      <backup>
        <duration>8</duration>
      </backup>
      <note default-x="85">
        <pitch>
          <step>E</step>
          <octave>4</octave>
        </pitch>
        <duration>4</duration>
        <voice>3</voice>
        <type>quarter</type>
        <stem default-y="-22">down</stem>
        <staff>2</staff>
        <notations>
          <slur type="start" number="2" bezier-x="65" bezier-y="27" default-x="16" default-y="29" placement="above"></slur>
        </notations>
      </note>
      <note default-x="142">
        <pitch>
          <step>D</step>
          <octave>4</octave>
        </pitch>
        <duration>4</duration>
        <voice>3</voice>
        <type>quarter</type>
        <stem default-y="-22">down</stem>
        <staff>2</staff>
      </note>
      <note default-x="204">
        <pitch>
          <step>C</step>
          <octave>4</octave>
        </pitch>
        <duration>3</duration>
        <voice>3</voice>
        <type>eighth</type>
        <dot/>
        <stem default-y="-23">down</stem>
        <staff>2</staff>
        <beam number="1">begin</beam>
      </note>
      <note default-x="240">
        <pitch>
          <step>B</step>
          <octave>3</octave>
        </pitch>
        <duration>2</duration>
        <voice>3</voice>
        <type>eighth</type>
        <stem default-y="-26">down</stem>
        <staff>2</staff>
        <beam number="1">end</beam>
      </note>
    </measure>
    <!--=======================================================-->
    <measure number="6" width="240">
      <note default-x="35">
        <pitch>
          <step>E</step>
          <octave>5</octave>
        </pitch>
        <duration>4</duration>
        <voice>1</voice>
        <type>quarter</type>
        <stem default-y="30">up</stem>
        <staff>1</staff>
      </note>
      <note default-x="91">
        <pitch>
          <step>G</step>
          <octave>4</octave>
        </pitch>
        <duration>4</duration>
        <voice>1</voice>
        <type>quarter</type>
        <stem default-y="2">up</stem>
        <staff>1</staff>
        <notations>
          <slur type="stop" number="1" bezier-x="-64" bezier-y="47" default-x="15" default-y="10"></slur>
        </notations>
      </note>
      <note default-x="150">
        <pitch>
          <step>B</step>
          <octave>4</octave>
        </pitch>
        <duration>2</duration>
        <voice>1</voice>
        <type>eighth</type>
        <stem default-y="16">up</stem>
        <staff>1</staff>
        <beam number="1">begin</beam>
        <notations>
          <slur type="start" number="1" bezier-x="80" bezier-y="40" default-x="16" default-y="23" placement="above"></slur>
        </notations>
      </note>
      <note default-x="187">
        <pitch>
          <step>C</step>
          <octave>5</octave>
        </pitch>
        <duration>2</duration>
        <voice>1</voice>
        <type>eighth</type>
        <stem default-y="25">up</stem>
        <staff>1</staff>
        <beam number="1">end</beam>
      </note>
      <backup>
        <duration>12</duration>
      </backup>
      <note default-x="36">
        <pitch>
          <step>G</step>
          <octave>4</octave>
        </pitch>
        <duration>4</duration>
        <tie type="stop"></tie>
        <voice>2</voice>
        <type>quarter</type>
        <stem default-y="-64">down</stem>
        <staff>1</staff>
        <notations>
          <tied type="stop"></tied>
        </notations>
      </note>
      <note default-x="91">
        <pitch>
          <step>G</step>
          <octave>4</octave>
        </pitch>
        <duration>4</duration>
        <tie type="start"></tie>
        <voice>2</voice>
        <type>quarter</type>
        <stem default-y="-66">down</stem>
        <staff>1</staff>
        <notations>
          <tied type="start" orientation="under"></tied>
        </notations>
      </note>
      <note default-x="152">
        <pitch>
          <step>G</step>
          <octave>4</octave>
        </pitch>
        <duration>4</duration>
        <tie type="start"></tie>
        <tie type="stop"></tie>
        <voice>2</voice>
        <type>quarter</type>
        <stem default-y="-64">down</stem>
        <staff>1</staff>
        <notations>
          <tied type="start" orientation="under"></tied>
          <tied type="stop"></tied>
        </notations>
      </note>
      <backup>
        <duration>12</duration>
      </backup>
      <note default-x="35">
        <pitch>
          <step>C</step>
          <octave>4</octave>
        </pitch>
        <duration>4</duration>
        <voice>3</voice>
        <type>quarter</type>
        <stem default-y="-26">down</stem>
        <staff>2</staff>
      </note>
      <note default-x="89">
        <pitch>
          <step>B</step>
          <octave>3</octave>
        </pitch>
        <duration>4</duration>
        <voice>3</voice>
        <type>quarter</type>
        <stem default-y="-32">down</stem>
        <staff>2</staff>
        <notations>
          <slur type="stop" number="2" bezier-x="-62" bezier-y="40" default-x="8" default-y="17"></slur>
        </notations>
      </note>
      <note default-x="151">
        <pitch>
          <step>G</step>
          <octave>3</octave>
        </pitch>
        <duration>3</duration>
        <voice>3</voice>
        <type>eighth</type>
        <dot/>
        <stem default-y="-38">down</stem>
        <staff>2</staff>
        <beam number="1">begin</beam>
        <notations>
          <slur type="start" number="2" bezier-x="69" bezier-y="38" default-x="8" default-y="5" placement="above"></slur>
        </notations>
      </note>
      <note default-x="188">
        <pitch>
          <step>A</step>
          <octave>3</octave>
        </pitch>
        <duration>2</duration>
        <voice>3</voice>
        <type>eighth</type>
        <stem default-y="-32">down</stem>
        <staff>2</staff>
        <beam number="1">end</beam>
      </note>
    </measure>
    <!--=======================================================-->
    <measure number="7" width="276">
      <note default-x="32">
        <pitch>
          <step>D</step>
          <octave>5</octave>
        </pitch>
        <duration>4</duration>
        <voice>1</voice>
        <type>quarter</type>
        <stem default-y="28">up</stem>
        <staff>1</staff>
      </note>
      <note default-x="92">
        <pitch>
          <step>E</step>
          <octave>5</octave>
        </pitch>
        <duration>2</duration>
        <voice>1</voice>
        <type>eighth</type>
        <stem default-y="34">up</stem>
        <staff>1</staff>
        <beam number="1">begin</beam>
      </note>
      <direction placement="below">
        <direction-type>
          <pedal type="start" line="no" halign="left" default-x="144" default-y="-68"></pedal>
        </direction-type>
        <staff>1</staff>
        <sound damper-pedal="yes"></sound>
      </direction>
      <note default-x="130">
        <pitch>
          <step>G</step>
          <octave>5</octave>
        </pitch>
        <duration>2</duration>
        <voice>1</voice>
        <type>eighth</type>
        <stem default-y="42">up</stem>
        <staff>1</staff>
        <beam number="1">end</beam>
      </note>
      <note default-x="184">
        <pitch>
          <step>F</step>
          <alter>1</alter>
          <octave>5</octave>
        </pitch>
        <duration>2</duration>
        <voice>1</voice>
        <type>eighth</type>
        <stem default-y="38">up</stem>
        <staff>1</staff>
        <beam number="1">begin</beam>
      </note>
      <note default-x="221">
        <pitch>
          <step>E</step>
          <octave>5</octave>
        </pitch>
        <duration>2</duration>
        <voice>1</voice>
        <type>eighth</type>
        <stem default-y="31">up</stem>
        <staff>1</staff>
        <beam number="1">end</beam>
      </note>
      <backup>
        <duration>12</duration>
      </backup>
      <note default-x="33">
        <pitch>
          <step>G</step>
          <octave>4</octave>
        </pitch>
        <duration>8</duration>
        <tie type="stop"></tie>
        <voice>2</voice>
        <type>half</type>
        <stem default-y="-63">down</stem>
        <staff>1</staff>
        <notations>
          <tied type="stop"></tied>
        </notations>
      </note>
      <note default-x="186">
        <pitch>
          <step>G</step>
          <octave>4</octave>
        </pitch>
        <duration>4</duration>
        <voice>2</voice>
        <type>quarter</type>
        <stem default-y="-59">down</stem>
        <staff>1</staff>
      </note>
      <note default-x="185">
        <chord/>
        <pitch>
          <step>C</step>
          <alter>1</alter>
          <octave>5</octave>
        </pitch>
        <duration>4</duration>
        <voice>2</voice>
        <type>quarter</type>
        <accidental>sharp</accidental>
        <stem default-y="-59">down</stem>
        <staff>1</staff>
      </note>
      <backup>
        <duration>12</duration>
      </backup>
      <note default-x="31">
        <pitch>
          <step>B</step>
          <octave>3</octave>
        </pitch>
        <duration>4</duration>
        <voice>3</voice>
        <type>quarter</type>
        <stem default-y="-32">down</stem>
        <staff>2</staff>
      </note>
      <note default-x="93">
        <pitch>
          <step>C</step>
          <octave>4</octave>
        </pitch>
        <duration>4</duration>
        <voice>3</voice>
        <type>quarter</type>
        <stem default-y="-28">down</stem>
        <staff>2</staff>
      </note>
      <note default-x="184">
        <pitch>
          <step>A</step>
          <octave>3</octave>
        </pitch>
        <duration>4</duration>
        <voice>3</voice>
        <type>quarter</type>
        <stem default-y="-35">down</stem>
        <staff>2</staff>
      </note>
    </measure>
    <!--=======================================================-->
    <measure number="8" width="230">
      <note default-x="29">
        <pitch>
          <step>D</step>
          <octave>5</octave>
        </pitch>
        <duration>8</duration>
        <voice>1</voice>
        <type>half</type>
        <stem default-y="25">up</stem>
        <staff>1</staff>
        <notations>
          <slur type="stop" number="1" bezier-x="-86" bezier-y="49" default-x="6" default-y="23"></slur>
        </notations>
      </note>
      <forward>
        <duration>4</duration>
        <voice>1</voice>
        <staff>1</staff>
      </forward>
      <direction placement="below">
        <direction-type>
          <dynamics default-y="-76" relative-x="2">
            <p/>
          </dynamics>
        </direction-type>
        <staff>1</staff>
        <sound dynamics="56"></sound>
      </direction>
      <note default-x="131">
        <pitch>
          <step>D</step>
          <octave>5</octave>
        </pitch>
        <duration>2</duration>
        <voice>1</voice>
        <type>eighth</type>
        <stem default-y="28">up</stem>
        <staff>1</staff>
        <beam number="1">begin</beam>
        <notations>
          <slur type="start" number="1" bezier-x="15" bezier-y="13" default-x="14" default-y="34" placement="above"></slur>
        </notations>
      </note>
      <note default-x="159">
        <pitch>
          <step>E</step>
          <octave>5</octave>
        </pitch>
        <duration>2</duration>
        <voice>1</voice>
        <type>eighth</type>
        <stem default-y="33">up</stem>
        <staff>1</staff>
        <beam number="1">continue</beam>
      </note>
      <note default-x="188">
        <pitch>
          <step>F</step>
          <alter>1</alter>
          <octave>5</octave>
        </pitch>
        <duration>2</duration>
        <voice>1</voice>
        <type>eighth</type>
        <stem default-y="38">up</stem>
        <staff>1</staff>
        <beam number="1">end</beam>
        <notations>
          <slur type="stop" number="1" bezier-x="-19" bezier-y="5" default-x="12" default-y="46"></slur>
        </notations>
      </note>
      <backup>
        <duration>18</duration>
      </backup>
      <note default-x="32">
        <pitch>
          <step>F</step>
          <alter>1</alter>
          <octave>4</octave>
        </pitch>
        <duration>8</duration>
        <voice>2</voice>
        <type>half</type>
        <stem default-y="-72">down</stem>
        <staff>1</staff>
      </note>
      <backup>
        <duration>8</duration>
      </backup>
      <note default-x="29">
        <pitch>
          <step>D</step>
          <octave>3</octave>
        </pitch>
        <duration>8</duration>
        <voice>3</voice>
        <type>half</type>
        <stem default-y="19">up</stem>
        <staff>2</staff>
      </note>
      <backup>
        <duration>8</duration>
      </backup>
      <note default-x="29">
        <pitch>
          <step>D</step>
          <octave>3</octave>
        </pitch>
        <duration>8</duration>
        <voice>4</voice>
        <type>half</type>
        <stem default-y="-60">down</stem>
        <staff>2</staff>
        <notations>
          <slur type="stop" number="2" bezier-x="-75" bezier-y="36" default-x="-1" default-y="4"></slur>
        </notations>
      </note>
      <note default-x="81">
        <pitch>
          <step>D</step>
          <octave>4</octave>
        </pitch>
        <duration>4</duration>
        <voice>4</voice>
        <type>quarter</type>
        <stem default-y="-22">down</stem>
        <staff>2</staff>
      </note>
    </measure>
    <!--=======================================================-->
    <measure number="9" width="293">
      <print new-system="yes">
        <system-layout>
          <system-margins>
            <left-margin>6</left-margin>
            <right-margin>48</right-margin>
          </system-margins>
          <system-distance>119</system-distance>
        </system-layout>
        <staff-layout number="2">
          <staff-distance>69</staff-distance>
        </staff-layout>
      </print>
      <attributes>
        <staff-details print-object="yes"></staff-details>
      </attributes>
      <note default-x="86">
        <pitch>
          <step>G</step>
          <octave>5</octave>
        </pitch>
        <duration>4</duration>
        <voice>1</voice>
        <type>quarter</type>
        <stem default-y="40">up</stem>
        <staff>1</staff>
        <notations>
          <slur type="start" number="1" bezier-x="68" bezier-y="27" default-x="9" default-y="43" placement="above"></slur>
        </notations>
      </note>
      <note default-x="148">
        <pitch>
          <step>F</step>
          <alter>1</alter>
          <octave>5</octave>
        </pitch>
        <duration>4</duration>
        <voice>1</voice>
        <type>quarter</type>
        <stem default-y="33">up</stem>
        <staff>1</staff>
      </note>
      <note default-x="201">
        <pitch>
          <step>E</step>
          <octave>5</octave>
        </pitch>
        <duration>2</duration>
        <voice>1</voice>
        <type>eighth</type>
        <stem default-y="32">up</stem>
        <staff>1</staff>
        <beam number="1">begin</beam>
      </note>
      <note default-x="241">
        <pitch>
          <step>D</step>
          <octave>5</octave>
        </pitch>
        <duration>2</duration>
        <voice>1</voice>
        <type>eighth</type>
        <stem default-y="24">up</stem>
        <staff>1</staff>
        <beam number="1">end</beam>
      </note>
      <backup>
        <duration>12</duration>
      </backup>
      <note default-x="86">
        <pitch>
          <step>G</step>
          <octave>4</octave>
        </pitch>
        <duration>8</duration>
        <tie type="start"></tie>
        <voice>2</voice>
        <type>half</type>
        <stem default-y="-60">down</stem>
        <staff>1</staff>
        <notations>
          <tied type="start" orientation="under"></tied>
        </notations>
      </note>
      <backup>
        <duration>8</duration>
      </backup>
      <note default-x="87">
        <pitch>
          <step>C</step>
          <octave>6</octave>
        </pitch>
        <duration>4</duration>
        <voice>3</voice>
        <type>quarter</type>
        <stem default-y="55">up</stem>
        <staff>2</staff>
        <notations>
          <slur type="start" number="2" bezier-x="67" bezier-y="21" default-x="26" default-y="39" placement="above"></slur>
        </notations>
      </note>
      <note default-x="147">
        <pitch>
          <step>B</step>
          <octave>5</octave>
        </pitch>
        <duration>4</duration>
        <voice>3</voice>
        <type>quarter</type>
        <stem default-y="44">up</stem>
        <staff>2</staff>
      </note>
      <note default-x="201">
        <pitch>
          <step>A</step>
          <octave>5</octave>
        </pitch>
        <duration>2</duration>
        <voice>3</voice>
        <type>eighth</type>
        <stem default-y="42">up</stem>
        <staff>2</staff>
        <beam number="1">begin</beam>
      </note>
      <note default-x="239">
        <pitch>
          <step>G</step>
          <octave>5</octave>
        </pitch>
        <duration>2</duration>
        <voice>3</voice>
        <type>eighth</type>
        <stem default-y="37">up</stem>
        <staff>2</staff>
        <beam number="1">end</beam>
      </note>
      <backup>
        <duration>12</duration>
      </backup>
      <note default-x="86">
        <pitch>
          <step>E</step>
          <octave>5</octave>
        </pitch>
        <duration>8</duration>
        <voice>4</voice>
        <type>half</type>
        <stem default-y="-42">down</stem>
        <staff>2</staff>
      </note>
    </measure>
    <!--=======================================================-->
    <measure number="10" width="243">
      <note default-x="34">
        <pitch>
          <step>E</step>
          <octave>5</octave>
        </pitch>
        <duration>4</duration>
        <voice>1</voice>
        <type>quarter</type>
        <stem default-y="27">up</stem>
        <staff>1</staff>
      </note>
      <note default-x="88">
        <pitch>
          <step>G</step>
          <octave>4</octave>
        </pitch>
        <duration>4</duration>
        <voice>1</voice>
        <type>quarter</type>
        <stem default-y="4">up</stem>
        <staff>1</staff>
        <notations>
          <slur type="stop" number="1" bezier-x="-68" bezier-y="39" default-x="-8" default-y="22"></slur>
        </notations>
      </note>
      <note default-x="148">
        <pitch>
          <step>B</step>
          <octave>4</octave>
        </pitch>
        <duration>2</duration>
        <voice>1</voice>
        <type>eighth</type>
        <stem default-y="17">up</stem>
        <staff>1</staff>
        <beam number="1">begin</beam>
        <notations>
          <slur type="start" number="1" bezier-x="71" bezier-y="42" default-x="14" default-y="21" placement="above"></slur>
        </notations>
      </note>
      <note default-x="189">
        <pitch>
          <step>C</step>
          <octave>5</octave>
        </pitch>
        <duration>2</duration>
        <voice>1</voice>
        <type>eighth</type>
        <stem default-y="20">up</stem>
        <staff>1</staff>
        <beam number="1">end</beam>
      </note>
      <backup>
        <duration>12</duration>
      </backup>
      <note default-x="36">
        <pitch>
          <step>G</step>
          <octave>4</octave>
        </pitch>
        <duration>4</duration>
        <tie type="stop"></tie>
        <voice>2</voice>
        <type>quarter</type>
        <stem default-y="-65">down</stem>
        <staff>1</staff>
        <notations>
          <tied type="stop"></tied>
        </notations>
      </note>
      <note default-x="88">
        <pitch>
          <step>G</step>
          <octave>4</octave>
        </pitch>
        <duration>4</duration>
        <tie type="start"></tie>
        <voice>2</voice>
        <type>quarter</type>
        <stem default-y="-60">down</stem>
        <staff>1</staff>
        <notations>
          <tied type="start" orientation="under"></tied>
        </notations>
      </note>
      <note default-x="150">
        <pitch>
          <step>G</step>
          <octave>4</octave>
        </pitch>
        <duration>4</duration>
        <tie type="start"></tie>
        <tie type="stop"></tie>
        <voice>2</voice>
        <type>quarter</type>
        <stem default-y="-65">down</stem>
        <staff>1</staff>
        <notations>
          <tied type="start" orientation="under"></tied>
          <tied type="stop"></tied>
        </notations>
      </note>
      <backup>
        <duration>12</duration>
      </backup>
      <note default-x="34">
        <pitch>
          <step>A</step>
          <octave>5</octave>
        </pitch>
        <duration>4</duration>
        <voice>3</voice>
        <type>quarter</type>
        <stem default-y="42">up</stem>
        <staff>2</staff>
        <notations>
          <slur type="stop" number="2" bezier-x="-74" bezier-y="14" default-x="12" default-y="35"></slur>
          <slur type="start" number="2" bezier-x="9" bezier-y="-3" default-x="39" default-y="27" placement="above"></slur>
        </notations>
      </note>
      <note default-x="89">
        <pitch>
          <step>G</step>
          <octave>5</octave>
        </pitch>
        <duration>4</duration>
        <voice>3</voice>
        <type>quarter</type>
        <stem default-y="31">up</stem>
        <staff>2</staff>
        <notations>
          <slur type="stop" number="2" bezier-x="-7" bezier-y="6" default-x="9" default-y="14"></slur>
          <slur type="start" number="2" bezier-x="46" bezier-y="-8" default-x="24" default-y="-23" placement="below"></slur>
        </notations>
      </note>
      <note default-x="149">
        <pitch>
          <step>B</step>
          <octave>5</octave>
        </pitch>
        <duration>2</duration>
        <voice>3</voice>
        <type>eighth</type>
        <stem default-y="51">up</stem>
        <staff>2</staff>
        <beam number="1">begin</beam>
      </note>
      <note default-x="189">
        <pitch>
          <step>A</step>
          <octave>5</octave>
        </pitch>
        <duration>2</duration>
        <voice>3</voice>
        <type>eighth</type>
        <stem default-y="44">up</stem>
        <staff>2</staff>
        <beam number="1">end</beam>
      </note>
      <backup>
        <duration>12</duration>
      </backup>
      <note default-x="33">
        <pitch>
          <step>E</step>
          <octave>5</octave>
        </pitch>
        <duration>8</duration>
        <voice>4</voice>
        <type>half</type>
        <stem default-y="-42">down</stem>
        <staff>2</staff>
      </note>
    </measure>
    <!--=======================================================-->
    <measure number="11" width="279">
      <note default-x="31">
        <pitch>
          <step>D</step>
          <octave>5</octave>
        </pitch>
        <duration>4</duration>
        <voice>1</voice>
        <type>quarter</type>
        <stem default-y="25">up</stem>
        <staff>1</staff>
      </note>
      <note default-x="88">
        <pitch>
          <step>D</step>
          <octave>5</octave>
        </pitch>
        <duration>2</duration>
        <voice>1</voice>
        <type>eighth</type>
        <stem default-y="30">up</stem>
        <staff>1</staff>
        <beam number="1">begin</beam>
      </note>
      <note default-x="130">
        <pitch>
          <step>G</step>
          <octave>5</octave>
        </pitch>
        <duration>2</duration>
        <voice>1</voice>
        <type>eighth</type>
        <stem default-y="40">up</stem>
        <staff>1</staff>
        <beam number="1">end</beam>
      </note>
      <note default-x="169">
        <pitch>
          <step>F</step>
          <alter>1</alter>
          <octave>5</octave>
        </pitch>
        <duration>2</duration>
        <voice>1</voice>
        <type>eighth</type>
        <stem default-y="40">up</stem>
        <staff>1</staff>
        <beam number="1">begin</beam>
      </note>
      <note default-x="199">
        <pitch>
          <step>E</step>
          <octave>5</octave>
        </pitch>
        <duration>2</duration>
        <voice>1</voice>
        <type>eighth</type>
        <stem default-y="37">up</stem>
        <staff>1</staff>
        <beam number="1">continue</beam>
      </note>
      <direction>
        <direction-type>
          <wedge type="stop" spread="0" default-x="34"></wedge>
        </direction-type>
        <staff>1</staff>
      </direction>
      <note default-x="232">
        <pitch>
          <step>D</step>
          <octave>5</octave>
        </pitch>
        <duration>2</duration>
        <voice>1</voice>
        <type>eighth</type>
        <stem default-y="33">up</stem>
        <staff>1</staff>
        <beam number="1">end</beam>
      </note>
      <backup>
        <duration>14</duration>
      </backup>
      <note default-x="31">
        <pitch>
          <step>G</step>
          <octave>4</octave>
        </pitch>
        <duration>4</duration>
        <tie type="stop"></tie>
        <voice>2</voice>
        <type>quarter</type>
        <stem default-y="-69">down</stem>
        <staff>1</staff>
        <notations>
          <tied type="stop"></tied>
        </notations>
      </note>
      <note default-x="90">
        <pitch>
          <step>B</step>
          <octave>4</octave>
        </pitch>
        <duration>4</duration>
        <voice>2</voice>
        <type>quarter</type>
        <stem default-y="-58">down</stem>
        <staff>1</staff>
      </note>
      <direction placement="below">
        <direction-type>
          <wedge type="diminuendo" spread="12" default-x="-12" default-y="-61"></wedge>
        </direction-type>
        <staff>1</staff>
      </direction>
      <note default-x="169">
        <pitch>
          <step>C</step>
          <octave>5</octave>
        </pitch>
        <duration>4</duration>
        <voice>2</voice>
        <type>quarter</type>
        <stem default-y="-53">down</stem>
        <staff>1</staff>
      </note>
      <backup>
        <duration>12</duration>
      </backup>
      <note default-x="32">
        <pitch>
          <step>G</step>
          <octave>5</octave>
        </pitch>
        <duration>4</duration>
        <voice>3</voice>
        <type>quarter</type>
        <stem default-y="35">up</stem>
        <staff>2</staff>
      </note>
      <note default-x="90">
        <pitch>
          <step>B</step>
          <octave>5</octave>
        </pitch>
        <duration>8</duration>
        <tie type="start"></tie>
        <voice>3</voice>
        <type>half</type>
        <stem default-y="50">up</stem>
        <staff>2</staff>
        <notations>
          <tied type="start" orientation="over"></tied>
        </notations>
      </note>
      <backup>
        <duration>12</duration>
      </backup>
      <note default-x="33">
        <pitch>
          <step>E</step>
          <octave>5</octave>
        </pitch>
        <duration>8</duration>
        <voice>4</voice>
        <type>half</type>
        <stem default-y="-42">down</stem>
        <staff>2</staff>
        <notations>
          <slur type="stop" number="2" bezier-x="-49" bezier-y="-12" default-x="-9" default-y="-14"></slur>
        </notations>
      </note>
      <note default-x="169">
        <pitch>
          <step>B</step>
          <octave>4</octave>
        </pitch>
        <duration>4</duration>
        <voice>4</voice>
        <type>quarter</type>
        <stem default-y="-53">down</stem>
        <staff>2</staff>
      </note>
    </measure>
    <!--=======================================================-->
    <measure number="12" width="221">
      <note default-x="33">
        <pitch>
          <step>G</step>
          <octave>5</octave>
        </pitch>
        <duration>8</duration>
        <voice>1</voice>
        <type>half</type>
        <stem default-y="38">up</stem>
        <staff>1</staff>
        <notations>
          <fermata type="upright" default-y="43"></fermata>
          <slur type="stop" number="1" bezier-x="-68" bezier-y="52" default-x="10" default-y="23"></slur>
        </notations>
      </note>
      <note default-x="110">
        <pitch>
          <step>E</step>
          <octave>5</octave>
        </pitch>
        <duration>2</duration>
        <voice>1</voice>
        <type>eighth</type>
        <stem default-y="35">up</stem>
        <staff>1</staff>
        <beam number="1">begin</beam>
        <notations>
          <slur type="start" number="1" bezier-x="19" bezier-y="-16" default-x="5" default-y="-17" placement="below"></slur>
        </notations>
      </note>
      <note default-x="142">
        <pitch>
          <step>D</step>
          <octave>5</octave>
        </pitch>
        <duration>2</duration>
        <voice>1</voice>
        <type>eighth</type>
        <stem default-y="29">up</stem>
        <staff>1</staff>
        <beam number="1">continue</beam>
      </note>
      <direction placement="below">
        <direction-type>
          <words default-y="-76" relative-x="-32" font-family="serif" font-size="11" font-weight="bold">PP</words>
        </direction-type>
        <staff>1</staff>
      </direction>
      <note default-x="174">
        <pitch>
          <step>B</step>
          <octave>4</octave>
        </pitch>
        <duration>2</duration>
        <voice>1</voice>
        <type>eighth</type>
        <stem default-y="23">up</stem>
        <staff>1</staff>
        <beam number="1">end</beam>
        <notations>
          <slur type="stop" number="1" bezier-x="-25" bezier-y="-7" default-x="3" default-y="-34"></slur>
        </notations>
      </note>
      <backup>
        <duration>14</duration>
      </backup>
      <note default-x="34">
        <pitch>
          <step>B</step>
          <octave>4</octave>
        </pitch>
        <duration>8</duration>
        <voice>2</voice>
        <type>half</type>
        <stem default-y="-55">down</stem>
        <staff>1</staff>
      </note>
      <backup>
        <duration>8</duration>
      </backup>
      <note default-x="34">
        <pitch>
          <step>B</step>
          <octave>5</octave>
        </pitch>
        <duration>8</duration>
        <tie type="stop"></tie>
        <voice>3</voice>
        <type>half</type>
        <stem default-y="45">up</stem>
        <staff>2</staff>
        <notations>
          <tied type="stop"></tied>
        </notations>
      </note>
      <note default-x="112">
        <pitch>
          <step>D</step>
          <octave>6</octave>
        </pitch>
        <duration>4</duration>
        <voice>3</voice>
        <type>quarter</type>
        <accidental>natural</accidental>
        <stem default-y="58">up</stem>
        <staff>2</staff>
      </note>
      <backup>
        <duration>12</duration>
      </backup>
      <note default-x="35">
        <pitch>
          <step>E</step>
          <octave>5</octave>
        </pitch>
        <duration>8</duration>
        <voice>4</voice>
        <type>half</type>
        <stem default-y="-42">down</stem>
        <staff>2</staff>
      </note>
    </measure>
    <!--=======================================================-->
    <measure number="13" width="315">
      <print new-system="yes">
        <system-layout>
          <system-margins>
            <left-margin>6</left-margin>
            <right-margin>49</right-margin>
          </system-margins>
          <system-distance>101</system-distance>
        </system-layout>
        <staff-layout number="2">
          <staff-distance>69</staff-distance>
        </staff-layout>
      </print>
      <attributes>
        <clef number="2">
          <sign>F</sign>
          <line>3</line>
        </clef>
        <staff-details print-object="yes"></staff-details>
      </attributes>
      <note default-x="86">
        <pitch>
          <step>C</step>
          <octave>5</octave>
        </pitch>
        <duration>4</duration>
        <voice>1</voice>
        <type>quarter</type>
        <stem default-y="-48">down</stem>
        <staff>1</staff>
        <notations>
          <slur type="start" number="1" bezier-x="53" bezier-y="23" default-x="9" default-y="-4" placement="above"></slur>
        </notations>
      </note>
      <note default-x="156">
        <pitch>
          <step>B</step>
          <octave>4</octave>
        </pitch>
        <duration>4</duration>
        <voice>1</voice>
        <type>quarter</type>
        <stem default-y="-58">down</stem>
        <staff>1</staff>
      </note>
      <note default-x="214">
        <pitch>
          <step>D</step>
          <octave>5</octave>
        </pitch>
        <duration>2</duration>
        <voice>1</voice>
        <type>eighth</type>
        <stem default-y="-45">down</stem>
        <staff>1</staff>
        <beam number="1">begin</beam>
      </note>
      <note default-x="262">
        <pitch>
          <step>B</step>
          <octave>4</octave>
        </pitch>
        <duration>2</duration>
        <voice>1</voice>
        <type>eighth</type>
        <stem default-y="-59">down</stem>
        <staff>1</staff>
        <beam number="1">end</beam>
        <notations>
          <slur type="stop" number="1" bezier-x="-47" bezier-y="31" default-x="7" default-y="-9"></slur>
        </notations>
      </note>
      <backup>
        <duration>12</duration>
      </backup>
      <note default-x="86">
        <pitch>
          <step>E</step>
          <octave>4</octave>
        </pitch>
        <duration>4</duration>
        <voice>2</voice>
        <type>quarter</type>
        <stem default-y="53">up</stem>
        <staff>2</staff>
        <notations>
          <slur type="start" number="1" bezier-x="35" bezier-y="17" default-x="22" default-y="39" placement="above"></slur>
        </notations>
      </note>
      <note default-x="154">
        <pitch>
          <step>D</step>
          <octave>4</octave>
        </pitch>
        <duration>4</duration>
        <voice>2</voice>
        <type>quarter</type>
        <stem default-y="48">up</stem>
        <staff>2</staff>
      </note>
      <note default-x="216">
        <pitch>
          <step>G</step>
          <octave>3</octave>
        </pitch>
        <duration>4</duration>
        <voice>2</voice>
        <type>quarter</type>
        <stem default-y="32">up</stem>
        <staff>2</staff>
        <notations>
          <slur type="stop" number="1" bezier-x="-32" bezier-y="23" default-x="17" default-y="39"></slur>
        </notations>
      </note>
      <backup>
        <duration>12</duration>
      </backup>
      <note default-x="85">
        <pitch>
          <step>G</step>
          <octave>3</octave>
        </pitch>
        <duration>8</duration>
        <voice>3</voice>
        <type>half</type>
        <stem default-y="-43">down</stem>
        <staff>2</staff>
      </note>
      <note default-x="217">
        <pitch>
          <step>B</step>
          <octave>2</octave>
        </pitch>
        <duration>4</duration>
        <voice>3</voice>
        <type>quarter</type>
        <stem default-y="-67">down</stem>
        <staff>2</staff>
      </note>
    </measure>
    <!--=======================================================-->
    <measure number="14" width="324">
      <forward>
        <duration>8</duration>
        <voice>1</voice>
        <staff>1</staff>
      </forward>
      <note default-x="208">
        <pitch>
          <step>G</step>
          <octave>4</octave>
        </pitch>
        <duration>2</duration>
        <voice>1</voice>
        <type>eighth</type>
        <stem default-y="5">up</stem>
        <staff>1</staff>
        <beam number="1">begin</beam>
      </note>
      <note default-x="239">
        <pitch>
          <step>A</step>
          <octave>4</octave>
        </pitch>
        <duration>2</duration>
        <voice>1</voice>
        <type>eighth</type>
        <stem default-y="12">up</stem>
        <staff>1</staff>
        <beam number="1">continue</beam>
      </note>
      <direction>
        <direction-type>
          <wedge type="stop" spread="0" default-x="24"></wedge>
        </direction-type>
        <staff>1</staff>
      </direction>
      <note default-x="275">
        <pitch>
          <step>B</step>
          <octave>4</octave>
        </pitch>
        <duration>2</duration>
        <voice>1</voice>
        <type>eighth</type>
        <stem default-y="19">up</stem>
        <staff>1</staff>
        <beam number="1">end</beam>
        <notations>
          <slur type="stop" number="1" bezier-x="-61" bezier-y="22" default-x="2" default-y="28"></slur>
        </notations>
      </note>
      <backup>
        <duration>14</duration>
      </backup>
      <note default-x="36">
        <pitch>
          <step>G</step>
          <octave>4</octave>
        </pitch>
        <duration>2</duration>
        <voice>2</voice>
        <type>eighth</type>
        <stem default-y="4">up</stem>
        <staff>1</staff>
        <beam number="1">begin</beam>
        <notations>
          <slur type="start" number="1" bezier-x="56" bezier-y="32" default-x="14" default-y="9" placement="above"></slur>
        </notations>
      </note>
      <note default-x="78">
        <pitch>
          <step>E</step>
          <octave>4</octave>
        </pitch>
        <duration>2</duration>
        <voice>2</voice>
        <type>eighth</type>
        <stem default-y="-4">up</stem>
        <staff>1</staff>
        <beam number="1">end</beam>
      </note>
      <note default-x="120">
        <pitch>
          <step>D</step>
          <octave>4</octave>
        </pitch>
        <duration>2</duration>
        <voice>2</voice>
        <type>eighth</type>
        <stem default-y="-9">up</stem>
        <staff>1</staff>
        <beam number="1">begin</beam>
      </note>
      <note default-x="167">
        <pitch>
          <step>E</step>
          <octave>4</octave>
        </pitch>
        <duration>2</duration>
        <tie type="start"></tie>
        <voice>2</voice>
        <type>eighth</type>
        <stem default-y="-6">up</stem>
        <staff>1</staff>
        <beam number="1">end</beam>
        <notations>
          <tied type="start" orientation="under"></tied>
        </notations>
      </note>
      <direction placement="below">
        <direction-type>
          <wedge type="diminuendo" spread="14" default-x="12" default-y="-76"></wedge>
        </direction-type>
        <staff>1</staff>
      </direction>
      <note default-x="209">
        <pitch>
          <step>E</step>
          <octave>4</octave>
        </pitch>
        <duration>4</duration>
        <tie type="stop"></tie>
        <voice>2</voice>
        <type>quarter</type>
        <stem default-y="-76">down</stem>
        <staff>1</staff>
        <notations>
          <tied type="stop"></tied>
        </notations>
      </note>
      <backup>
        <duration>12</duration>
      </backup>
      <note default-x="36">
        <pitch>
          <step>G</step>
          <octave>3</octave>
        </pitch>
        <duration>8</duration>
        <voice>3</voice>
        <type>half</type>
        <stem default-y="24">up</stem>
        <staff>2</staff>
      </note>
      <backup>
        <duration>8</duration>
      </backup>
      <note default-x="36">
        <pitch>
          <step>C</step>
          <octave>3</octave>
        </pitch>
        <duration>4</duration>
        <voice>4</voice>
        <type>quarter</type>
        <stem default-y="-62">down</stem>
        <staff>2</staff>
      </note>
      <note default-x="123">
        <pitch>
          <step>B</step>
          <octave>2</octave>
        </pitch>
        <duration>4</duration>
        <voice>4</voice>
        <type>quarter</type>
        <stem default-y="-63">down</stem>
        <staff>2</staff>
      </note>
      <note default-x="210">
        <pitch>
          <step>C</step>
          <octave>3</octave>
        </pitch>
        <duration>4</duration>
        <voice>4</voice>
        <type>quarter</type>
        <stem default-y="-63">down</stem>
        <staff>2</staff>
      </note>
    </measure>
    <!--=======================================================-->
    <measure number="15" width="277">
      <note default-x="49">
        <pitch>
          <step>A</step>
          <octave>4</octave>
        </pitch>
        <duration>2</duration>
        <voice>1</voice>
        <type>eighth</type>
        <stem default-y="15">up</stem>
        <staff>1</staff>
        <beam number="1">begin</beam>
        <notations>
          <slur type="start" number="1" bezier-x="66" bezier-y="17" default-x="17" default-y="20" placement="above"></slur>
        </notations>
      </note>
      <direction placement="below">
        <direction-type>
          <dynamics default-y="-80" relative-x="-13">
            <p/>
          </dynamics>
        </direction-type>
        <staff>1</staff>
        <sound dynamics="56"></sound>
      </direction>
      <note default-x="92">
        <pitch>
          <step>G</step>
          <octave>4</octave>
        </pitch>
        <duration>1</duration>
        <voice>1</voice>
        <type>16th</type>
        <stem default-y="5">up</stem>
        <staff>1</staff>
        <beam number="1">continue</beam>
        <beam number="2">begin</beam>
      </note>
      <note default-x="124">
        <pitch>
          <step>A</step>
          <octave>4</octave>
        </pitch>
        <duration>1</duration>
        <voice>1</voice>
        <type>16th</type>
        <stem default-y="14">up</stem>
        <staff>1</staff>
        <beam number="1">end</beam>
        <beam number="2">end</beam>
      </note>
      <note default-x="158">
        <pitch>
          <step>G</step>
          <octave>4</octave>
        </pitch>
        <duration>4</duration>
        <voice>1</voice>
        <type>quarter</type>
        <stem default-y="3">up</stem>
        <staff>1</staff>
      </note>
      <backup>
        <duration>8</duration>
      </backup>
      <direction placement="below">
        <direction-type>
          <dynamics default-y="-81" relative-x="14">
            <p/>
          </dynamics>
        </direction-type>
        <staff>1</staff>
        <sound dynamics="56"></sound>
      </direction>
      <note default-x="48">
        <pitch>
          <step>C</step>
          <octave>4</octave>
        </pitch>
        <duration>4</duration>
        <voice>2</voice>
        <type>quarter</type>
        <stem default-y="-81">down</stem>
        <staff>1</staff>
      </note>
      <note default-x="48">
        <chord/>
        <pitch>
          <step>F</step>
          <alter>1</alter>
          <octave>4</octave>
        </pitch>
        <duration>4</duration>
        <voice>2</voice>
        <type>quarter</type>
        <stem default-y="-81">down</stem>
        <staff>1</staff>
      </note>
      <note default-x="157">
        <pitch>
          <step>B</step>
          <octave>3</octave>
        </pitch>
        <duration>8</duration>
        <voice>2</voice>
        <type>half</type>
        <stem default-y="-88">down</stem>
        <staff>1</staff>
      </note>
      <note default-x="223">
        <pitch>
          <step>G</step>
          <octave>4</octave>
        </pitch>
        <duration>4</duration>
        <voice>2</voice>
        <type>quarter</type>
        <stem default-y="5">up</stem>
        <staff>1</staff>
      </note>
      <backup>
        <duration>16</duration>
      </backup>
      <note default-x="49">
        <pitch>
          <step>D</step>
          <octave>3</octave>
        </pitch>
        <duration>8</duration>
        <voice>3</voice>
        <type>half</type>
        <stem default-y="15">up</stem>
        <staff>2</staff>
      </note>
      <note default-x="156">
        <pitch>
          <step>G</step>
          <octave>2</octave>
        </pitch>
        <duration>8</duration>
        <voice>3</voice>
        <type>half</type>
        <stem default-y="-70">down</stem>
        <staff>2</staff>
      </note>
    </measure>
    <!--=======================================================-->
    <measure number="16" width="119">
      <note default-x="35">
        <pitch>
          <step>G</step>
          <octave>4</octave>
        </pitch>
        <duration>8</duration>
        <voice>1</voice>
        <type>half</type>
        <stem default-y="3">up</stem>
        <staff>1</staff>
        <notations>
          <slur type="stop" number="1" bezier-x="-56" bezier-y="40" default-x="8" default-y="-5"></slur>
        </notations>
      </note>
      <backup>
        <duration>8</duration>
      </backup>
      <note default-x="38">
        <pitch>
          <step>B</step>
          <octave>3</octave>
        </pitch>
        <duration>8</duration>
        <voice>2</voice>
        <type>half</type>
        <stem default-y="-87">down</stem>
        <staff>1</staff>
      </note>
      <backup>
        <duration>8</duration>
      </backup>
      <note default-x="38">
        <pitch>
          <step>D</step>
          <octave>3</octave>
        </pitch>
        <duration>8</duration>
        <voice>3</voice>
        <type>half</type>
        <stem default-y="14">up</stem>
        <staff>2</staff>
      </note>
      <backup>
        <duration>8</duration>
      </backup>
      <note default-x="38">
        <pitch>
          <step>G</step>
          <octave>2</octave>
        </pitch>
        <duration>8</duration>
        <voice>4</voice>
        <type>half</type>
        <stem default-y="-67">down</stem>
        <staff>2</staff>
      </note>
      <barline location="right">
        <bar-style>light-heavy</bar-style>
      </barline>
    </measure>
  </part>
</score-partwise>