<?xml version="1.0" encoding="UTF-8"?>
<!DOCTYPE score-partwise PUBLIC "-//Recordare//DTD MusicXML 3.0.1 Partwise//EN" "http://www.musicxml.org/dtds/partwise.dtd">
<score-partwise version="3.0.1">
  <work>
    <work-number>The Great Mountain.</work-number>
  </work>
  <movement-number>1</movement-number>
  <movement-title>[Audiveris detected movement]</movement-title>
  <identification>
    <creator type="lyricist">56</creator>
    <creator type="lyricist">J 120.</creator>
    <encoding>
      <software>Audiveris 5.0.0</software>
      <supports type="yes" element="print" attribute="new-system" value="yes"></supports>
      <supports type="yes" element="print" attribute="new-page" value="yes"></supports>
      <software>ProxyMusic 3.0.1.8e1a2c5</software>
      <encoding-date>2017-10-06</encoding-date>
    </encoding>
    <source>/Users/stephenn/Documents/workspace/nlsomr/working/91387296.jpg</source>
    <miscellaneous>
      <miscellaneous-field name="source-file">/Users/stephenn/Documents/workspace/nlsomr/working/91387296.jpg</miscellaneous-field>
      <miscellaneous-field name="source-sheet-1">1 2 3 4 5</miscellaneous-field>
    </miscellaneous>
  </identification>
  <defaults>
    <scaling>
      <millimeters>5.7573</millimeters>
      <tenths>40</tenths>
    </scaling>
    <page-layout>
      <page-height>1798</page-height>
      <page-width>1176</page-width>
      <page-margins type="both">
        <left-margin>80</left-margin>
        <right-margin>80</right-margin>
        <top-margin>80</top-margin>
        <bottom-margin>80</bottom-margin>
      </page-margins>
    </page-layout>
    <lyric-font font-family="Serif" font-size="10"></lyric-font>
  </defaults>
  <credit page="1">
    <credit-type>lyricist</credit-type>
    <credit-words default-x="91" default-y="1705" font-family="serif" font-size="14" font-weight="bold">56</credit-words>
  </credit>
  <credit page="1">
    <credit-words default-x="580" default-y="1680" font-family="serif" font-size="14" font-weight="bold">85</credit-words>
  </credit>
  <credit page="1">
    <credit-words default-x="435" default-y="1651" font-family="serif" font-size="14" font-weight="bold">The Great Mountain.</credit-words>
  </credit>
  <credit page="1">
    <credit-type>lyricist</credit-type>
    <credit-words default-x="108" default-y="1569" font-family="serif" font-size="8" font-weight="bold">J 120.</credit-words>
  </credit>
  <credit page="1">
    <credit-words default-x="939" default-y="1522" font-family="sans-serif" font-size="12">r</credit-words>
  </credit>
  <credit page="1">
    <credit-words default-x="419" default-y="1457" font-family="serif" font-style="italic" font-size="12">p</credit-words>
  </credit>
  <part-list>
    <score-part id="P1">
      <part-name>Scherzando.</part-name>
      <score-instrument id="P1-I1">
        <instrument-name>Acoustic Grand Piano</instrument-name>
      </score-instrument>
      <midi-instrument id="P1-I1">
        <midi-channel>1</midi-channel>
        <midi-program>1</midi-program>
        <volume>78</volume>
      </midi-instrument>
    </score-part>
  </part-list>
  <!--= = = = = = = = = = = = = = = = = = = = = = = = = = = = =-->
  <part id="P1">
    <!--=======================================================-->
    <measure number="0" implicit="yes" width="162">
      <print>
        <system-layout>
          <system-margins>
            <left-margin>167</left-margin>
            <right-margin>-2</right-margin>
          </system-margins>
          <top-system-distance>147</top-system-distance>
        </system-layout>
        <staff-layout number="2">
          <staff-distance>86</staff-distance>
        </staff-layout>
        <measure-numbering>system</measure-numbering>
      </print>
      <attributes>
        <divisions>4</divisions>
        <key>
          <fifths>-2</fifths>
        </key>
        <staves>2</staves>
        <clef number="1">
          <sign>G</sign>
          <line>3</line>
        </clef>
        <clef number="2">
          <sign>F</sign>
          <line>3</line>
        </clef>
        <staff-details print-object="yes"></staff-details>
      </attributes>
      <direction>
        <direction-type>
          <words></words>
        </direction-type>
        <sound tempo="120"></sound>
      </direction>
      <note default-x="125">
        <pitch>
          <step>F</step>
          <octave>4</octave>
        </pitch>
        <duration>4</duration>
        <voice>1</voice>
        <type>quarter</type>
        <stem default-y="0">up</stem>
        <staff>1</staff>
      </note>
    </measure>
    <!--=======================================================-->
    <measure number="1" width="224">
      <note default-x="26">
        <pitch>
          <step>F</step>
          <octave>4</octave>
        </pitch>
        <duration>2</duration>
        <voice>1</voice>
        <type>eighth</type>
        <stem default-y="6">up</stem>
        <staff>1</staff>
        <beam number="1">begin</beam>
      </note>
      <note default-x="49">
        <pitch>
          <step>B</step>
          <alter>-1</alter>
          <octave>4</octave>
        </pitch>
        <duration>2</duration>
        <voice>1</voice>
        <type>eighth</type>
        <stem default-y="19">up</stem>
        <staff>1</staff>
        <beam number="1">end</beam>
      </note>
      <note default-x="76">
        <pitch>
          <step>B</step>
          <alter>-1</alter>
          <octave>4</octave>
        </pitch>
        <duration>2</duration>
        <voice>1</voice>
        <type>eighth</type>
        <stem default-y="13">up</stem>
        <staff>1</staff>
        <beam number="1">begin</beam>
        <notations>
          <slur type="start" number="1" bezier-x="7" bezier-y="8" default-x="7" default-y="20" placement="above"></slur>
        </notations>
      </note>
      <note default-x="101">
        <pitch>
          <step>C</step>
          <octave>5</octave>
        </pitch>
        <duration>2</duration>
        <voice>1</voice>
        <type>eighth</type>
        <stem default-y="20">up</stem>
        <staff>1</staff>
        <beam number="1">end</beam>
        <notations>
          <slur type="stop" number="1" bezier-x="-10" bezier-y="4" default-x="11" default-y="26"></slur>
        </notations>
      </note>
      <note default-x="126">
        <pitch>
          <step>D</step>
          <octave>5</octave>
        </pitch>
        <duration>4</duration>
        <voice>1</voice>
        <type>quarter</type>
        <stem default-y="21">up</stem>
        <staff>1</staff>
      </note>
      <forward>
        <duration>4</duration>
        <voice>1</voice>
        <staff>1</staff>
      </forward>
      <note default-x="192">
        <pitch>
          <step>B</step>
          <alter>-1</alter>
          <octave>4</octave>
        </pitch>
        <duration>4</duration>
        <tie type="start"></tie>
        <voice>1</voice>
        <type>quarter</type>
        <stem default-y="1">up</stem>
        <staff>1</staff>
        <notations>
          <tied type="start" orientation="under"></tied>
        </notations>
      </note>
      <backup>
        <duration>20</duration>
      </backup>
      <direction placement="below">
        <direction-type>
          <wedge type="crescendo" spread="0" default-x="8" default-y="-76"></wedge>
        </direction-type>
        <staff>1</staff>
      </direction>
      <note default-x="25">
        <pitch>
          <step>D</step>
          <octave>4</octave>
        </pitch>
        <duration>8</duration>
        <voice>2</voice>
        <type>half</type>
        <stem default-y="-69">down</stem>
        <staff>1</staff>
      </note>
      <direction>
        <direction-type>
          <wedge type="stop" spread="11" default-x="21"></wedge>
        </direction-type>
        <staff>1</staff>
      </direction>
      <note default-x="127">
        <pitch>
          <step>B</step>
          <alter>-1</alter>
          <octave>4</octave>
        </pitch>
        <duration>4</duration>
        <voice>2</voice>
        <type>quarter</type>
        <stem default-y="-50">down</stem>
        <staff>1</staff>
      </note>
      <backup>
        <duration>12</duration>
      </backup>
      <note default-x="26">
        <pitch>
          <step>B</step>
          <alter>-1</alter>
          <octave>2</octave>
        </pitch>
        <duration>4</duration>
        <voice>3</voice>
        <type>quarter</type>
        <stem default-y="3">up</stem>
        <staff>2</staff>
      </note>
      <note default-x="76">
        <pitch>
          <step>F</step>
          <octave>3</octave>
        </pitch>
        <duration>4</duration>
        <voice>3</voice>
        <type>quarter</type>
        <stem default-y="-43">down</stem>
        <staff>2</staff>
      </note>
      <note default-x="126">
        <pitch>
          <step>F</step>
          <octave>4</octave>
        </pitch>
        <duration>4</duration>
        <voice>3</voice>
        <type>quarter</type>
        <stem default-y="-20">down</stem>
        <staff>2</staff>
      </note>
      <note default-x="166">
        <pitch>
          <step>F</step>
          <octave>3</octave>
        </pitch>
        <duration>4</duration>
        <voice>3</voice>
        <type>quarter</type>
        <stem default-y="-45">down</stem>
        <staff>2</staff>
      </note>
    </measure>
    <!--=======================================================-->
    <measure number="2" width="230">
      <note default-x="28">
        <pitch>
          <step>B</step>
          <alter>-1</alter>
          <octave>4</octave>
        </pitch>
        <duration>2</duration>
        <tie type="stop"></tie>
        <voice>1</voice>
        <type>eighth</type>
        <stem default-y="25">up</stem>
        <staff>1</staff>
        <beam number="1">begin</beam>
        <notations>
          <tied type="stop"></tied>
        </notations>
      </note>
      <note default-x="28">
        <chord/>
        <pitch>
          <step>D</step>
          <octave>5</octave>
        </pitch>
        <duration>2</duration>
        <voice>1</voice>
        <type>eighth</type>
        <stem default-y="25">up</stem>
        <staff>1</staff>
        <beam number="1">begin</beam>
      </note>
      <note default-x="52">
        <pitch>
          <step>F</step>
          <octave>5</octave>
        </pitch>
        <duration>2</duration>
        <voice>1</voice>
        <type>eighth</type>
        <stem default-y="34">up</stem>
        <staff>1</staff>
        <beam number="1">end</beam>
      </note>
      <note default-x="79">
        <pitch>
          <step>E</step>
          <alter>-1</alter>
          <octave>5</octave>
        </pitch>
        <duration>2</duration>
        <voice>1</voice>
        <type>eighth</type>
        <stem default-y="29">up</stem>
        <staff>1</staff>
        <beam number="1">begin</beam>
      </note>
      <note default-x="104">
        <pitch>
          <step>D</step>
          <octave>5</octave>
        </pitch>
        <duration>2</duration>
        <voice>1</voice>
        <type>eighth</type>
        <stem default-y="25">up</stem>
        <staff>1</staff>
        <beam number="1">end</beam>
      </note>
      <note default-x="127">
        <pitch>
          <step>C</step>
          <octave>5</octave>
        </pitch>
        <duration>4</duration>
        <voice>1</voice>
        <type>quarter</type>
        <stem default-y="16">up</stem>
        <staff>1</staff>
      </note>
      <forward>
        <duration>4</duration>
        <voice>1</voice>
        <staff>1</staff>
      </forward>
      <note default-x="195">
        <pitch>
          <step>B</step>
          <alter>-1</alter>
          <octave>4</octave>
        </pitch>
        <duration>4</duration>
        <voice>1</voice>
        <type>quarter</type>
        <stem default-y="17">up</stem>
        <staff>1</staff>
      </note>
      <backup>
        <duration>20</duration>
      </backup>
      <forward>
        <duration>4</duration>
        <voice>2</voice>
        <staff>1</staff>
      </forward>
      <direction placement="below">
        <direction-type>
          <wedge type="diminuendo" spread="14" default-x="-36" default-y="-74"></wedge>
        </direction-type>
        <staff>1</staff>
      </direction>
      <note default-x="78">
        <pitch>
          <step>C</step>
          <octave>5</octave>
        </pitch>
        <duration>2</duration>
        <voice>2</voice>
        <type>eighth</type>
        <stem default-y="-49">down</stem>
        <staff>1</staff>
        <beam number="1">begin</beam>
      </note>
      <note default-x="104">
        <pitch>
          <step>B</step>
          <alter>-1</alter>
          <octave>4</octave>
        </pitch>
        <duration>2</duration>
        <voice>2</voice>
        <type>eighth</type>
        <stem default-y="-57">down</stem>
        <staff>1</staff>
        <beam number="1">end</beam>
      </note>
      <direction>
        <direction-type>
          <wedge type="stop" spread="0" default-x="35"></wedge>
        </direction-type>
        <staff>1</staff>
      </direction>
      <note default-x="128">
        <pitch>
          <step>A</step>
          <octave>4</octave>
        </pitch>
        <duration>4</duration>
        <voice>2</voice>
        <type>quarter</type>
        <stem default-y="-58">down</stem>
        <staff>1</staff>
      </note>
      <backup>
        <duration>12</duration>
      </backup>
      <note default-x="27">
        <pitch>
          <step>B</step>
          <alter>-1</alter>
          <octave>2</octave>
        </pitch>
        <duration>4</duration>
        <voice>3</voice>
        <type>quarter</type>
        <stem default-y="5">up</stem>
        <staff>2</staff>
      </note>
      <note default-x="79">
        <pitch>
          <step>F</step>
          <octave>4</octave>
        </pitch>
        <duration>4</duration>
        <voice>3</voice>
        <type>quarter</type>
        <stem default-y="-20">down</stem>
        <staff>2</staff>
      </note>
      <note default-x="128">
        <pitch>
          <step>F</step>
          <octave>3</octave>
        </pitch>
        <duration>4</duration>
        <tie type="start"></tie>
        <voice>3</voice>
        <type>quarter</type>
        <stem default-y="-45">down</stem>
        <staff>2</staff>
        <notations>
          <tied type="start" orientation="under"></tied>
        </notations>
      </note>
      <note default-x="128">
        <chord/>
        <pitch>
          <step>E</step>
          <alter>-1</alter>
          <octave>4</octave>
        </pitch>
        <duration>4</duration>
        <voice>3</voice>
        <type>quarter</type>
        <stem default-y="-45">down</stem>
        <staff>2</staff>
      </note>
      <note default-x="166">
        <pitch>
          <step>F</step>
          <octave>3</octave>
        </pitch>
        <duration>4</duration>
        <tie type="stop"></tie>
        <voice>3</voice>
        <type>quarter</type>
        <stem default-y="-45">down</stem>
        <staff>2</staff>
        <notations>
          <tied type="stop"></tied>
        </notations>
      </note>
      <note default-x="166">
        <chord/>
        <pitch>
          <step>D</step>
          <octave>4</octave>
        </pitch>
        <duration>4</duration>
        <voice>3</voice>
        <type>quarter</type>
        <stem default-y="-45">down</stem>
        <staff>2</staff>
      </note>
    </measure>
    <!--=======================================================-->
    <measure number="3" width="235">
      <note default-x="25">
        <pitch>
          <step>B</step>
          <alter>-1</alter>
          <octave>4</octave>
        </pitch>
        <duration>2</duration>
        <voice>1</voice>
        <type>eighth</type>
        <stem default-y="13">up</stem>
        <staff>1</staff>
        <beam number="1">begin</beam>
        <notations>
          <slur type="start" number="1" bezier-x="39" bezier-y="15" default-x="20" default-y="19" placement="above"></slur>
        </notations>
      </note>
      <note default-x="51">
        <pitch>
          <step>A</step>
          <octave>4</octave>
        </pitch>
        <duration>2</duration>
        <voice>1</voice>
        <type>eighth</type>
        <stem default-y="7">up</stem>
        <staff>1</staff>
        <beam number="1">continue</beam>
      </note>
      <note default-x="76">
        <pitch>
          <step>F</step>
          <octave>4</octave>
        </pitch>
        <duration>2</duration>
        <voice>1</voice>
        <type>eighth</type>
        <stem default-y="3">up</stem>
        <staff>1</staff>
        <beam number="1">continue</beam>
      </note>
      <note default-x="111">
        <pitch>
          <step>E</step>
          <octave>4</octave>
        </pitch>
        <duration>2</duration>
        <voice>1</voice>
        <type>eighth</type>
        <accidental>natural</accidental>
        <stem default-y="-4">up</stem>
        <staff>1</staff>
        <beam number="1">end</beam>
      </note>
      <note default-x="142">
        <pitch>
          <step>F</step>
          <octave>4</octave>
        </pitch>
        <duration>4</duration>
        <voice>1</voice>
        <type>quarter</type>
        <stem default-y="1">up</stem>
        <staff>1</staff>
      </note>
      <note default-x="188">
        <pitch>
          <step>E</step>
          <octave>4</octave>
        </pitch>
        <duration>4</duration>
        <voice>1</voice>
        <type>quarter</type>
        <accidental>natural</accidental>
        <stem default-y="2">up</stem>
        <staff>1</staff>
      </note>
      <note default-x="188">
        <chord/>
        <pitch>
          <step>G</step>
          <octave>4</octave>
        </pitch>
        <duration>4</duration>
        <voice>1</voice>
        <type>quarter</type>
        <stem default-y="2">up</stem>
        <staff>1</staff>
        <notations>
          <slur type="stop" number="1" bezier-x="-34" bezier-y="28" default-x="2" default-y="1"></slur>
        </notations>
      </note>
      <backup>
        <duration>16</duration>
      </backup>
      <note default-x="25">
        <pitch>
          <step>F</step>
          <octave>4</octave>
        </pitch>
        <duration>4</duration>
        <voice>2</voice>
        <type>quarter</type>
        <stem default-y="-68">down</stem>
        <staff>1</staff>
      </note>
      <forward>
        <duration>4</duration>
        <voice>2</voice>
        <staff>1</staff>
      </forward>
      <note default-x="143">
        <pitch>
          <step>A</step>
          <octave>3</octave>
        </pitch>
        <duration>4</duration>
        <voice>2</voice>
        <type>quarter</type>
        <stem default-y="-86">down</stem>
        <staff>1</staff>
      </note>
      <note default-x="188">
        <pitch>
          <step>B</step>
          <alter>-1</alter>
          <octave>3</octave>
        </pitch>
        <duration>4</duration>
        <voice>2</voice>
        <type>quarter</type>
        <stem default-y="-86">down</stem>
        <staff>1</staff>
      </note>
      <backup>
        <duration>16</duration>
      </backup>
      <note default-x="25">
        <pitch>
          <step>C</step>
          <octave>4</octave>
        </pitch>
        <duration>4</duration>
        <voice>3</voice>
        <type>quarter</type>
        <stem default-y="-23">down</stem>
        <staff>2</staff>
      </note>
      <note default-x="76">
        <pitch>
          <step>A</step>
          <octave>3</octave>
        </pitch>
        <duration>4</duration>
        <voice>3</voice>
        <type>quarter</type>
        <stem default-y="-33">down</stem>
        <staff>2</staff>
      </note>
      <note default-x="143">
        <pitch>
          <step>C</step>
          <octave>3</octave>
        </pitch>
        <duration>4</duration>
        <voice>3</voice>
        <type>quarter</type>
        <stem default-y="10">up</stem>
        <staff>2</staff>
      </note>
      <note default-x="189">
        <pitch>
          <step>C</step>
          <octave>2</octave>
        </pitch>
        <duration>4</duration>
        <voice>3</voice>
        <type>quarter</type>
        <stem default-y="-24">up</stem>
        <staff>2</staff>
      </note>
    </measure>
    <!--=======================================================-->
    <measure number="4" width="346">
      <print new-system="yes">
        <system-layout>
          <system-margins>
            <left-margin>34</left-margin>
            <right-margin>-3</right-margin>
          </system-margins>
          <system-distance>128</system-distance>
        </system-layout>
        <staff-layout number="2">
          <staff-distance>88</staff-distance>
        </staff-layout>
      </print>
      <attributes>
        <clef number="2">
          <sign>F</sign>
          <line>4</line>
        </clef>
        <staff-details print-object="yes"></staff-details>
      </attributes>
      <note default-x="92">
        <pitch>
          <step>A</step>
          <octave>4</octave>
        </pitch>
        <duration>4</duration>
        <voice>1</voice>
        <type>quarter</type>
        <stem default-y="8">up</stem>
        <staff>1</staff>
        <notations>
          <slur type="start" number="1" bezier-x="13" bezier-y="9" default-x="19" default-y="-18" placement="above"></slur>
        </notations>
      </note>
      <note default-x="150">
        <pitch>
          <step>F</step>
          <octave>4</octave>
        </pitch>
        <duration>4</duration>
        <voice>1</voice>
        <type>quarter</type>
        <stem default-y="1">up</stem>
        <staff>1</staff>
        <notations>
          <slur type="stop" number="1" bezier-x="-9" bezier-y="12" default-x="1" default-y="-25"></slur>
        </notations>
      </note>
      <note default-x="206">
        <pitch>
          <step>F</step>
          <octave>4</octave>
        </pitch>
        <duration>4</duration>
        <voice>1</voice>
        <type>quarter</type>
        <stem default-y="1">up</stem>
        <staff>1</staff>
      </note>
      <forward>
        <duration>4</duration>
        <voice>1</voice>
        <staff>1</staff>
      </forward>
      <note default-x="301">
        <pitch>
          <step>F</step>
          <octave>4</octave>
        </pitch>
        <duration>4</duration>
        <voice>1</voice>
        <type>quarter</type>
        <stem default-y="5">up</stem>
        <staff>1</staff>
      </note>
      <backup>
        <duration>20</duration>
      </backup>
      <note default-x="93">
        <pitch>
          <step>A</step>
          <octave>3</octave>
        </pitch>
        <duration>8</duration>
        <voice>2</voice>
        <type>half</type>
        <stem default-y="-89">down</stem>
        <staff>1</staff>
      </note>
      <backup>
        <duration>8</duration>
      </backup>
      <note default-x="92">
        <pitch>
          <step>F</step>
          <octave>2</octave>
        </pitch>
        <duration>4</duration>
        <voice>3</voice>
        <type>quarter</type>
        <stem default-y="-8">up</stem>
        <staff>2</staff>
      </note>
      <note default-x="148">
        <pitch>
          <step>C</step>
          <octave>3</octave>
        </pitch>
        <duration>4</duration>
        <voice>3</voice>
        <type>quarter</type>
        <stem default-y="8">up</stem>
        <staff>2</staff>
      </note>
      <note default-x="206">
        <pitch>
          <step>A</step>
          <octave>3</octave>
        </pitch>
        <duration>4</duration>
        <voice>3</voice>
        <type>quarter</type>
        <stem default-y="-40">down</stem>
        <staff>2</staff>
      </note>
      <note default-x="265">
        <pitch>
          <step>E</step>
          <alter>-1</alter>
          <octave>4</octave>
        </pitch>
        <duration>4</duration>
        <voice>3</voice>
        <type>quarter</type>
        <accidental>flat</accidental>
        <stem default-y="-20">down</stem>
        <staff>2</staff>
      </note>
    </measure>
    <!--=======================================================-->
    <measure number="5" width="319">
      <note default-x="29">
        <pitch>
          <step>F</step>
          <octave>4</octave>
        </pitch>
        <duration>2</duration>
        <voice>1</voice>
        <type>eighth</type>
        <stem default-y="3">up</stem>
        <staff>1</staff>
        <beam number="1">begin</beam>
        <notations>
          <slur type="start" number="1" bezier-x="10" bezier-y="7" default-x="17" default-y="22" placement="above"></slur>
        </notations>
      </note>
      <note default-x="67">
        <pitch>
          <step>B</step>
          <alter>-1</alter>
          <octave>4</octave>
        </pitch>
        <duration>2</duration>
        <voice>1</voice>
        <type>eighth</type>
        <stem default-y="17">up</stem>
        <staff>1</staff>
        <beam number="1">end</beam>
        <notations>
          <slur type="stop" number="1" bezier-x="-10" bezier-y="7" default-x="13" default-y="23"></slur>
        </notations>
      </note>
      <note default-x="106">
        <pitch>
          <step>B</step>
          <alter>-1</alter>
          <octave>4</octave>
        </pitch>
        <duration>4</duration>
        <voice>1</voice>
        <type>quarter</type>
        <stem default-y="13">up</stem>
        <staff>1</staff>
      </note>
      <note default-x="179">
        <pitch>
          <step>D</step>
          <octave>5</octave>
        </pitch>
        <duration>4</duration>
        <voice>1</voice>
        <type>quarter</type>
        <stem default-y="23">up</stem>
        <staff>1</staff>
      </note>
      <forward>
        <duration>4</duration>
        <voice>1</voice>
        <staff>1</staff>
      </forward>
      <note default-x="275">
        <pitch>
          <step>B</step>
          <alter>-1</alter>
          <octave>4</octave>
        </pitch>
        <duration>4</duration>
        <voice>1</voice>
        <type>quarter</type>
        <stem default-y="17">up</stem>
        <staff>1</staff>
      </note>
      <backup>
        <duration>20</duration>
      </backup>
      <direction placement="below">
        <direction-type>
          <wedge type="crescendo" spread="0" default-x="6" default-y="-83"></wedge>
        </direction-type>
        <staff>1</staff>
      </direction>
      <note default-x="31">
        <pitch>
          <step>D</step>
          <octave>4</octave>
        </pitch>
        <duration>8</duration>
        <voice>2</voice>
        <type>half</type>
        <stem default-y="-73">down</stem>
        <staff>1</staff>
      </note>
      <direction>
        <direction-type>
          <wedge type="stop" spread="15" default-x="-2"></wedge>
        </direction-type>
        <staff>1</staff>
      </direction>
      <note default-x="181">
        <pitch>
          <step>B</step>
          <alter>-1</alter>
          <octave>4</octave>
        </pitch>
        <duration>4</duration>
        <voice>2</voice>
        <type>quarter</type>
        <stem default-y="-54">down</stem>
        <staff>1</staff>
      </note>
      <forward>
        <duration>4</duration>
        <voice>2</voice>
        <staff>1</staff>
      </forward>
      <note default-x="275">
        <pitch>
          <step>B</step>
          <alter>-1</alter>
          <octave>4</octave>
        </pitch>
        <duration>4</duration>
        <voice>2</voice>
        <type>quarter</type>
        <stem default-y="-56">down</stem>
        <staff>1</staff>
      </note>
      <backup>
        <duration>20</duration>
      </backup>
      <note default-x="32">
        <pitch>
          <step>B</step>
          <alter>-1</alter>
          <octave>2</octave>
        </pitch>
        <duration>4</duration>
        <voice>3</voice>
        <type>quarter</type>
        <stem default-y="4">up</stem>
        <staff>2</staff>
        <notations>
          <slur type="start" number="1" bezier-x="40" bezier-y="30" default-x="21" default-y="3" placement="above"></slur>
        </notations>
      </note>
      <note default-x="106">
        <pitch>
          <step>F</step>
          <octave>3</octave>
        </pitch>
        <duration>4</duration>
        <voice>3</voice>
        <type>quarter</type>
        <stem default-y="-46">down</stem>
        <staff>2</staff>
      </note>
      <note default-x="179">
        <pitch>
          <step>D</step>
          <octave>4</octave>
        </pitch>
        <duration>4</duration>
        <voice>3</voice>
        <type>quarter</type>
        <stem default-y="-24">down</stem>
        <staff>2</staff>
      </note>
      <note default-x="237">
        <pitch>
          <step>F</step>
          <octave>3</octave>
        </pitch>
        <duration>4</duration>
        <voice>3</voice>
        <type>quarter</type>
        <stem default-y="-45">down</stem>
        <staff>2</staff>
        <notations>
          <slur type="stop" number="1" bezier-x="-41" bezier-y="24" default-x="-10" default-y="12"></slur>
        </notations>
      </note>
    </measure>
    <!--=======================================================-->
    <measure number="6" width="321">
      <note default-x="30">
        <pitch>
          <step>D</step>
          <octave>5</octave>
        </pitch>
        <duration>2</duration>
        <voice>1</voice>
        <type>eighth</type>
        <stem default-y="24">up</stem>
        <staff>1</staff>
        <beam number="1">begin</beam>
        <notations>
          <slur type="start" number="1" bezier-x="36" bezier-y="20" default-x="20" default-y="33" placement="above"></slur>
        </notations>
      </note>
      <note default-x="68">
        <pitch>
          <step>F</step>
          <octave>5</octave>
        </pitch>
        <duration>2</duration>
        <voice>1</voice>
        <type>eighth</type>
        <stem default-y="33">up</stem>
        <staff>1</staff>
        <beam number="1">end</beam>
      </note>
      <forward>
        <duration>2</duration>
        <voice>1</voice>
        <staff>1</staff>
      </forward>
      <note default-x="141">
        <pitch>
          <step>D</step>
          <octave>5</octave>
        </pitch>
        <duration>4</duration>
        <voice>1</voice>
        <type>quarter</type>
        <stem default-y="25">up</stem>
        <staff>1</staff>
      </note>
      <note default-x="241">
        <pitch>
          <step>C</step>
          <octave>4</octave>
        </pitch>
        <duration>4</duration>
        <voice>1</voice>
        <type>quarter</type>
        <stem default-y="-78">down</stem>
        <staff>1</staff>
      </note>
      <note default-x="241">
        <chord/>
        <pitch>
          <step>F</step>
          <octave>4</octave>
        </pitch>
        <duration>4</duration>
        <voice>1</voice>
        <type>quarter</type>
        <stem default-y="-78">down</stem>
        <staff>1</staff>
      </note>
      <note default-x="278">
        <pitch>
          <step>B</step>
          <alter>-1</alter>
          <octave>4</octave>
        </pitch>
        <duration>4</duration>
        <voice>1</voice>
        <type>quarter</type>
        <stem default-y="19">up</stem>
        <staff>1</staff>
      </note>
      <backup>
        <duration>18</duration>
      </backup>
      <forward>
        <duration>8</duration>
        <voice>2</voice>
        <staff>1</staff>
      </forward>
      <note default-x="178">
        <pitch>
          <step>C</step>
          <octave>5</octave>
        </pitch>
        <duration>4</duration>
        <voice>2</voice>
        <type>quarter</type>
        <stem default-y="21">up</stem>
        <staff>1</staff>
        <notations>
          <slur type="stop" number="1" bezier-x="-36" bezier-y="24" default-x="-1" default-y="26"></slur>
        </notations>
      </note>
      <backup>
        <duration>12</duration>
      </backup>
      <direction placement="below">
        <direction-type>
          <wedge type="diminuendo" spread="15" default-x="13" default-y="-80"></wedge>
        </direction-type>
        <staff>1</staff>
      </direction>
      <note default-x="30">
        <pitch>
          <step>B</step>
          <alter>-1</alter>
          <octave>4</octave>
        </pitch>
        <duration>4</duration>
        <voice>3</voice>
        <type>quarter</type>
        <stem default-y="-50">down</stem>
        <staff>1</staff>
      </note>
      <note default-x="105">
        <pitch>
          <step>C</step>
          <octave>5</octave>
        </pitch>
        <duration>2</duration>
        <voice>3</voice>
        <type>eighth</type>
        <stem default-y="-50">down</stem>
        <staff>1</staff>
        <beam number="1">begin</beam>
      </note>
      <note default-x="105">
        <chord/>
        <pitch>
          <step>E</step>
          <alter>-1</alter>
          <octave>5</octave>
        </pitch>
        <duration>2</duration>
        <voice>3</voice>
        <type>eighth</type>
        <stem default-y="-50">down</stem>
        <staff>1</staff>
        <beam number="1">begin</beam>
      </note>
      <note default-x="142">
        <pitch>
          <step>B</step>
          <alter>-1</alter>
          <octave>4</octave>
        </pitch>
        <duration>2</duration>
        <voice>3</voice>
        <type>eighth</type>
        <stem default-y="-56">down</stem>
        <staff>1</staff>
        <beam number="1">end</beam>
      </note>
      <direction>
        <direction-type>
          <wedge type="stop" spread="0" default-x="4"></wedge>
        </direction-type>
        <staff>1</staff>
      </direction>
      <note default-x="180">
        <pitch>
          <step>E</step>
          <alter>-1</alter>
          <octave>4</octave>
        </pitch>
        <duration>4</duration>
        <voice>3</voice>
        <type>quarter</type>
        <stem default-y="-69">down</stem>
        <staff>1</staff>
      </note>
      <note default-x="179">
        <chord/>
        <pitch>
          <step>A</step>
          <octave>4</octave>
        </pitch>
        <duration>4</duration>
        <voice>3</voice>
        <type>quarter</type>
        <stem default-y="-69">down</stem>
        <staff>1</staff>
      </note>
      <backup>
        <duration>12</duration>
      </backup>
      <note default-x="31">
        <pitch>
          <step>B</step>
          <alter>-1</alter>
          <octave>2</octave>
        </pitch>
        <duration>4</duration>
        <voice>4</voice>
        <type>quarter</type>
        <stem default-y="6">up</stem>
        <staff>2</staff>
      </note>
      <note default-x="105">
        <pitch>
          <step>F</step>
          <octave>4</octave>
        </pitch>
        <duration>4</duration>
        <voice>4</voice>
        <type>quarter</type>
        <stem default-y="-20">down</stem>
        <staff>2</staff>
      </note>
      <note default-x="179">
        <pitch>
          <step>F</step>
          <octave>2</octave>
        </pitch>
        <duration>4</duration>
        <voice>4</voice>
        <type>quarter</type>
        <stem default-y="-8">up</stem>
        <staff>2</staff>
      </note>
      <note default-x="239">
        <pitch>
          <step>F</step>
          <octave>3</octave>
        </pitch>
        <duration>4</duration>
        <tie type="start"></tie>
        <voice>4</voice>
        <type>quarter</type>
        <stem default-y="-43">down</stem>
        <staff>2</staff>
        <notations>
          <tied type="start" orientation="under"></tied>
        </notations>
      </note>
    </measure>
    <!--=======================================================-->
    <measure number="7" width="373">
      <print new-system="yes">
        <system-layout>
          <system-margins>
            <left-margin>33</left-margin>
            <right-margin>1</right-margin>
          </system-margins>
          <system-distance>127</system-distance>
        </system-layout>
        <staff-layout number="2">
          <staff-distance>88</staff-distance>
        </staff-layout>
      </print>
      <attributes>
        <staff-details print-object="yes"></staff-details>
      </attributes>
      <note default-x="92">
        <pitch>
          <step>A</step>
          <octave>4</octave>
        </pitch>
        <duration>2</duration>
        <voice>1</voice>
        <type>eighth</type>
        <stem default-y="10">up</stem>
        <staff>1</staff>
        <beam number="1">begin</beam>
        <notations>
          <slur type="start" number="1" bezier-x="66" bezier-y="39" default-x="16" default-y="15" placement="above"></slur>
        </notations>
      </note>
      <direction placement="below">
        <direction-type>
          <wedge type="crescendo" spread="0" default-x="-18" default-y="-72"></wedge>
        </direction-type>
        <staff>1</staff>
      </direction>
      <note default-x="130">
        <pitch>
          <step>F</step>
          <octave>4</octave>
        </pitch>
        <duration>2</duration>
        <voice>1</voice>
        <type>eighth</type>
        <stem default-y="14">up</stem>
        <staff>1</staff>
        <beam number="1">continue</beam>
        <notations>
          <slur type="start" number="2" bezier-x="7" bezier-y="-4" default-x="11" default-y="-46" placement="below"></slur>
        </notations>
      </note>
      <note default-x="166">
        <pitch>
          <step>A</step>
          <octave>4</octave>
        </pitch>
        <duration>2</duration>
        <voice>1</voice>
        <type>eighth</type>
        <stem default-y="17">up</stem>
        <staff>1</staff>
        <beam number="1">continue</beam>
      </note>
      <note default-x="202">
        <pitch>
          <step>B</step>
          <alter>-1</alter>
          <octave>4</octave>
        </pitch>
        <duration>2</duration>
        <voice>1</voice>
        <type>eighth</type>
        <stem default-y="19">up</stem>
        <staff>1</staff>
        <beam number="1">end</beam>
      </note>
      <forward>
        <duration>4</duration>
        <voice>1</voice>
        <staff>1</staff>
      </forward>
      <note default-x="236">
        <pitch>
          <step>C</step>
          <octave>5</octave>
        </pitch>
        <duration>4</duration>
        <voice>1</voice>
        <type>quarter</type>
        <stem default-y="21">up</stem>
        <staff>1</staff>
      </note>
      <backup>
        <duration>16</duration>
      </backup>
      <forward>
        <duration>4</duration>
        <voice>2</voice>
        <staff>1</staff>
      </forward>
      <note default-x="166">
        <pitch>
          <step>F</step>
          <octave>4</octave>
        </pitch>
        <duration>4</duration>
        <tie type="start"></tie>
        <voice>2</voice>
        <type>quarter</type>
        <stem default-y="-63">down</stem>
        <staff>1</staff>
        <notations>
          <tied type="start" orientation="under"></tied>
          <slur type="stop" number="2" bezier-x="-7" bezier-y="-3" default-x="-3" default-y="-48"></slur>
        </notations>
      </note>
      <forward>
        <duration>4</duration>
        <voice>2</voice>
        <staff>1</staff>
      </forward>
      <direction>
        <direction-type>
          <wedge type="stop" spread="11" default-x="-29"></wedge>
        </direction-type>
        <staff>1</staff>
      </direction>
      <direction placement="below">
        <direction-type>
          <wedge type="diminuendo" spread="12" default-x="26" default-y="-79"></wedge>
        </direction-type>
        <staff>1</staff>
      </direction>
      <note default-x="238">
        <pitch>
          <step>F</step>
          <octave>4</octave>
        </pitch>
        <duration>8</duration>
        <tie type="stop"></tie>
        <voice>2</voice>
        <type>half</type>
        <stem default-y="-64">down</stem>
        <staff>1</staff>
        <notations>
          <tied type="stop"></tied>
        </notations>
      </note>
      <direction>
        <direction-type>
          <wedge type="stop" spread="0" default-x="21"></wedge>
        </direction-type>
        <staff>1</staff>
      </direction>
      <note default-x="328">
        <pitch>
          <step>A</step>
          <octave>4</octave>
        </pitch>
        <duration>4</duration>
        <voice>2</voice>
        <type>quarter</type>
        <stem default-y="13">up</stem>
        <staff>1</staff>
      </note>
      <backup>
        <duration>24</duration>
      </backup>
      <note default-x="93">
        <pitch>
          <step>C</step>
          <octave>4</octave>
        </pitch>
        <duration>4</duration>
        <voice>3</voice>
        <type>quarter</type>
        <stem default-y="51">up</stem>
        <staff>2</staff>
      </note>
      <note default-x="93">
        <chord/>
        <pitch>
          <step>E</step>
          <alter>-1</alter>
          <octave>4</octave>
        </pitch>
        <duration>4</duration>
        <voice>3</voice>
        <type>quarter</type>
        <stem default-y="51">up</stem>
        <staff>2</staff>
      </note>
      <forward>
        <duration>8</duration>
        <voice>3</voice>
        <staff>2</staff>
      </forward>
      <note default-x="237">
        <pitch>
          <step>F</step>
          <octave>3</octave>
        </pitch>
        <duration>4</duration>
        <voice>3</voice>
        <type>quarter</type>
        <stem default-y="-43">down</stem>
        <staff>2</staff>
      </note>
      <note default-x="291">
        <pitch>
          <step>F</step>
          <octave>3</octave>
        </pitch>
        <duration>4</duration>
        <tie type="start"></tie>
        <voice>3</voice>
        <type>quarter</type>
        <stem default-y="-45">down</stem>
        <staff>2</staff>
        <notations>
          <tied type="start" orientation="under"></tied>
        </notations>
      </note>
      <backup>
        <duration>20</duration>
      </backup>
      <note default-x="95">
        <pitch>
          <step>F</step>
          <octave>3</octave>
        </pitch>
        <duration>8</duration>
        <tie type="stop"></tie>
        <voice>4</voice>
        <type>half</type>
        <stem default-y="-45">down</stem>
        <staff>2</staff>
        <notations>
          <tied type="stop"></tied>
        </notations>
      </note>
      <note default-x="202">
        <pitch>
          <step>D</step>
          <octave>4</octave>
        </pitch>
        <duration>4</duration>
        <voice>4</voice>
        <type>quarter</type>
        <stem default-y="51">up</stem>
        <staff>2</staff>
      </note>
      <note default-x="237">
        <pitch>
          <step>E</step>
          <alter>-1</alter>
          <octave>4</octave>
        </pitch>
        <duration>8</duration>
        <voice>4</voice>
        <type>half</type>
        <stem default-y="49">up</stem>
        <staff>2</staff>
      </note>
    </measure>
    <!--=======================================================-->
    <measure number="8" width="199">
      <note default-x="34">
        <pitch>
          <step>B</step>
          <alter>-1</alter>
          <octave>4</octave>
        </pitch>
        <duration>4</duration>
        <voice>1</voice>
        <type>quarter</type>
        <stem default-y="11">up</stem>
        <staff>1</staff>
      </note>
      <note default-x="88">
        <pitch>
          <step>B</step>
          <alter>-1</alter>
          <octave>4</octave>
        </pitch>
        <duration>4</duration>
        <voice>1</voice>
        <type>quarter</type>
        <stem default-y="11">up</stem>
        <staff>1</staff>
        <notations>
          <slur type="stop" number="1" bezier-x="-59" bezier-y="54" default-x="-7" default-y="1"></slur>
        </notations>
      </note>
      <backup>
        <duration>8</duration>
      </backup>
      <direction placement="below">
        <direction-type>
          <dynamics default-y="-87" relative-x="-19">
            <p/>
          </dynamics>
        </direction-type>
        <staff>1</staff>
        <sound dynamics="56"></sound>
      </direction>
      <note default-x="34">
        <pitch>
          <step>F</step>
          <octave>4</octave>
        </pitch>
        <duration>8</duration>
        <voice>2</voice>
        <type>half</type>
        <stem default-y="-61">down</stem>
        <staff>1</staff>
      </note>
      <note default-x="141">
        <pitch>
          <step>D</step>
          <octave>4</octave>
        </pitch>
        <duration>4</duration>
        <voice>2</voice>
        <type>quarter</type>
        <stem default-y="-74">down</stem>
        <staff>1</staff>
      </note>
      <backup>
        <duration>12</duration>
      </backup>
      <note default-x="35">
        <pitch>
          <step>F</step>
          <octave>3</octave>
        </pitch>
        <duration>4</duration>
        <tie type="stop"></tie>
        <voice>3</voice>
        <type>quarter</type>
        <stem default-y="-42">down</stem>
        <staff>2</staff>
        <notations>
          <tied type="stop"></tied>
        </notations>
      </note>
      <note default-x="35">
        <chord/>
        <pitch>
          <step>D</step>
          <octave>4</octave>
        </pitch>
        <duration>4</duration>
        <voice>3</voice>
        <type>quarter</type>
        <stem default-y="-42">down</stem>
        <staff>2</staff>
      </note>
      <note default-x="89">
        <pitch>
          <step>F</step>
          <octave>3</octave>
        </pitch>
        <duration>4</duration>
        <voice>3</voice>
        <type>quarter</type>
        <stem default-y="-43">down</stem>
        <staff>2</staff>
      </note>
      <note default-x="143">
        <pitch>
          <step>B</step>
          <alter>-1</alter>
          <octave>2</octave>
        </pitch>
        <duration>4</duration>
        <voice>3</voice>
        <type>quarter</type>
        <stem default-y="4">up</stem>
        <staff>2</staff>
      </note>
      <barline location="right">
        <bar-style>light-heavy</bar-style>
      </barline>
    </measure>
    <!--=======================================================-->
    <measure number="9" width="102">
      <note default-x="28">
        <pitch>
          <step>F</step>
          <octave>4</octave>
        </pitch>
        <duration>2</duration>
        <voice>1</voice>
        <type>eighth</type>
        <stem default-y="1">up</stem>
        <staff>1</staff>
        <beam number="1">begin</beam>
      </note>
      <note default-x="62">
        <pitch>
          <step>G</step>
          <octave>4</octave>
        </pitch>
        <duration>2</duration>
        <voice>1</voice>
        <type>eighth</type>
        <stem default-y="5">up</stem>
        <staff>1</staff>
        <beam number="1">end</beam>
      </note>
    </measure>
    <!--=======================================================-->
    <measure number="10" width="310">
      <note default-x="32">
        <pitch>
          <step>A</step>
          <octave>4</octave>
        </pitch>
        <duration>2</duration>
        <voice>1</voice>
        <type>eighth</type>
        <stem default-y="10">up</stem>
        <staff>1</staff>
        <beam number="1">begin</beam>
        <notations>
          <slur type="start" number="1" bezier-x="10" bezier-y="9" default-x="6" default-y="25" placement="above"></slur>
        </notations>
      </note>
      <note default-x="65">
        <pitch>
          <step>C</step>
          <octave>5</octave>
        </pitch>
        <duration>2</duration>
        <voice>1</voice>
        <type>eighth</type>
        <stem default-y="20">up</stem>
        <staff>1</staff>
        <beam number="1">end</beam>
        <notations>
          <slur type="stop" number="1" bezier-x="-12" bezier-y="7" default-x="10" default-y="30"></slur>
        </notations>
      </note>
      <note default-x="102">
        <pitch>
          <step>C</step>
          <octave>5</octave>
        </pitch>
        <duration>2</duration>
        <voice>1</voice>
        <type>eighth</type>
        <stem default-y="23">up</stem>
        <staff>1</staff>
        <beam number="1">begin</beam>
        <notations>
          <slur type="start" number="1" bezier-x="7" bezier-y="12" default-x="6" default-y="30" placement="above"></slur>
        </notations>
      </note>
      <note default-x="137">
        <pitch>
          <step>F</step>
          <octave>5</octave>
        </pitch>
        <duration>2</duration>
        <voice>1</voice>
        <type>eighth</type>
        <stem default-y="35">up</stem>
        <staff>1</staff>
        <beam number="1">end</beam>
        <notations>
          <slur type="stop" number="1" bezier-x="-13" bezier-y="4" default-x="6" default-y="43"></slur>
        </notations>
      </note>
      <note default-x="173">
        <pitch>
          <step>F</step>
          <octave>5</octave>
        </pitch>
        <duration>2</duration>
        <voice>1</voice>
        <type>eighth</type>
        <stem default-y="30">up</stem>
        <staff>1</staff>
        <beam number="1">begin</beam>
        <notations>
          <slur type="start" number="1" bezier-x="27" bezier-y="23" default-x="13" default-y="37" placement="above"></slur>
        </notations>
      </note>
      <note default-x="208">
        <pitch>
          <step>G</step>
          <octave>5</octave>
        </pitch>
        <duration>2</duration>
        <voice>1</voice>
        <type>eighth</type>
        <stem default-y="38">up</stem>
        <staff>1</staff>
        <beam number="1">end</beam>
      </note>
      <note default-x="244">
        <pitch>
          <step>A</step>
          <octave>5</octave>
        </pitch>
        <duration>2</duration>
        <voice>1</voice>
        <type>eighth</type>
        <stem default-y="42">up</stem>
        <staff>1</staff>
        <beam number="1">begin</beam>
      </note>
      <direction>
        <direction-type>
          <wedge type="stop" spread="18" default-x="-2"></wedge>
        </direction-type>
        <staff>1</staff>
      </direction>
      <note default-x="278">
        <pitch>
          <step>F</step>
          <octave>5</octave>
        </pitch>
        <duration>2</duration>
        <voice>1</voice>
        <type>eighth</type>
        <stem default-y="34">up</stem>
        <staff>1</staff>
        <beam number="1">end</beam>
        <notations>
          <slur type="stop" number="1" bezier-x="-28" bezier-y="20" default-x="6" default-y="39"></slur>
        </notations>
      </note>
      <backup>
        <duration>16</duration>
      </backup>
      <direction placement="below">
        <direction-type>
          <wedge type="crescendo" spread="0" default-x="8" default-y="-72"></wedge>
        </direction-type>
        <staff>1</staff>
      </direction>
      <note default-x="32">
        <pitch>
          <step>F</step>
          <octave>4</octave>
        </pitch>
        <duration>8</duration>
        <voice>2</voice>
        <type>half</type>
        <stem default-y="-63">down</stem>
        <staff>1</staff>
      </note>
      <note default-x="174">
        <pitch>
          <step>C</step>
          <octave>5</octave>
        </pitch>
        <duration>8</duration>
        <voice>2</voice>
        <type>half</type>
        <stem default-y="-46">down</stem>
        <staff>1</staff>
      </note>
      <backup>
        <duration>16</duration>
      </backup>
      <note default-x="31">
        <pitch>
          <step>F</step>
          <octave>3</octave>
        </pitch>
        <duration>4</duration>
        <voice>3</voice>
        <type>quarter</type>
        <stem default-y="-44">down</stem>
        <staff>2</staff>
      </note>
      <note default-x="101">
        <pitch>
          <step>C</step>
          <octave>4</octave>
        </pitch>
        <duration>4</duration>
        <voice>3</voice>
        <type>quarter</type>
        <stem default-y="-30">down</stem>
        <staff>2</staff>
      </note>
      <note default-x="172">
        <pitch>
          <step>A</step>
          <octave>4</octave>
        </pitch>
        <duration>4</duration>
        <voice>3</voice>
        <type>quarter</type>
        <stem default-y="-21">down</stem>
        <staff>2</staff>
      </note>
      <note default-x="244">
        <pitch>
          <step>C</step>
          <octave>4</octave>
        </pitch>
        <duration>4</duration>
        <tie type="start"></tie>
        <voice>3</voice>
        <type>quarter</type>
        <stem default-y="-24">down</stem>
        <staff>2</staff>
        <notations>
          <tied type="start" orientation="over"></tied>
        </notations>
      </note>
    </measure>
    <!--=======================================================-->
    <measure number="11" width="386">
      <print new-system="yes">
        <system-layout>
          <system-margins>
            <left-margin>32</left-margin>
            <right-margin>0</right-margin>
          </system-margins>
          <system-distance>127</system-distance>
        </system-layout>
        <staff-layout number="2">
          <staff-distance>87</staff-distance>
        </staff-layout>
      </print>
      <attributes>
        <clef number="2">
          <sign>F</sign>
          <line>3</line>
        </clef>
        <staff-details print-object="yes"></staff-details>
      </attributes>
      <note default-x="94">
        <pitch>
          <step>F</step>
          <octave>5</octave>
        </pitch>
        <duration>2</duration>
        <voice>1</voice>
        <type>eighth</type>
        <stem default-y="35">up</stem>
        <staff>1</staff>
        <beam number="1">begin</beam>
        <notations>
          <slur type="start" number="1" bezier-x="38" bezier-y="18" default-x="16" default-y="40" placement="above"></slur>
        </notations>
      </note>
      <note default-x="131">
        <pitch>
          <step>E</step>
          <alter>-1</alter>
          <octave>5</octave>
        </pitch>
        <duration>2</duration>
        <voice>1</voice>
        <type>eighth</type>
        <stem default-y="30">up</stem>
        <staff>1</staff>
        <beam number="1">end</beam>
      </note>
      <note default-x="166">
        <pitch>
          <step>D</step>
          <octave>5</octave>
        </pitch>
        <duration>2</duration>
        <voice>1</voice>
        <type>eighth</type>
        <stem default-y="25">up</stem>
        <staff>1</staff>
        <beam number="1">begin</beam>
      </note>
      <note default-x="202">
        <pitch>
          <step>E</step>
          <alter>-1</alter>
          <octave>5</octave>
        </pitch>
        <duration>2</duration>
        <voice>1</voice>
        <type>eighth</type>
        <stem default-y="29">up</stem>
        <staff>1</staff>
        <beam number="1">end</beam>
      </note>
      <note default-x="242">
        <pitch>
          <step>C</step>
          <octave>5</octave>
        </pitch>
        <duration>4</duration>
        <voice>1</voice>
        <type>quarter</type>
        <stem default-y="23">up</stem>
        <staff>1</staff>
        <notations>
          <slur type="stop" number="1" bezier-x="-35" bezier-y="27" default-x="1" default-y="27"></slur>
        </notations>
      </note>
      <forward>
        <duration>4</duration>
        <voice>1</voice>
        <staff>1</staff>
      </forward>
      <note default-x="319">
        <pitch>
          <step>A</step>
          <octave>4</octave>
        </pitch>
        <duration>1</duration>
        <voice>1</voice>
        <type>16th</type>
        <stem default-y="13">up</stem>
        <staff>1</staff>
        <beam number="1">begin</beam>
        <beam number="2">begin</beam>
      </note>
      <note default-x="342">
        <pitch>
          <step>B</step>
          <alter>-1</alter>
          <octave>4</octave>
        </pitch>
        <duration>1</duration>
        <voice>1</voice>
        <type>16th</type>
        <stem default-y="17">up</stem>
        <staff>1</staff>
        <beam number="1">end</beam>
        <beam number="2">end</beam>
      </note>
      <backup>
        <duration>18</duration>
      </backup>
      <direction placement="below">
        <direction-type>
          <wedge type="diminuendo" spread="15" default-x="24" default-y="-86"></wedge>
        </direction-type>
        <staff>1</staff>
      </direction>
      <note default-x="95">
        <pitch>
          <step>F</step>
          <octave>4</octave>
        </pitch>
        <duration>4</duration>
        <voice>2</voice>
        <type>quarter</type>
        <stem default-y="-64">down</stem>
        <staff>1</staff>
      </note>
      <note default-x="166">
        <pitch>
          <step>F</step>
          <octave>4</octave>
        </pitch>
        <duration>4</duration>
        <voice>2</voice>
        <type>quarter</type>
        <stem default-y="-64">down</stem>
        <staff>1</staff>
      </note>
      <direction>
        <direction-type>
          <wedge type="stop" spread="0" default-x="26"></wedge>
        </direction-type>
        <staff>1</staff>
      </direction>
      <note default-x="241">
        <pitch>
          <step>F</step>
          <octave>4</octave>
        </pitch>
        <duration>4</duration>
        <voice>2</voice>
        <type>quarter</type>
        <stem default-y="-63">down</stem>
        <staff>1</staff>
      </note>
      <forward>
        <duration>4</duration>
        <voice>2</voice>
        <staff>1</staff>
      </forward>
      <note default-x="318">
        <rest>
          <display-step>C</display-step>
          <display-octave>4</display-octave>
        </rest>
        <duration>2</duration>
        <voice>2</voice>
        <type>eighth</type>
        <staff>1</staff>
      </note>
      <backup>
        <duration>18</duration>
      </backup>
      <note default-x="95">
        <pitch>
          <step>F</step>
          <octave>3</octave>
        </pitch>
        <duration>4</duration>
        <voice>3</voice>
        <type>quarter</type>
        <stem default-y="-42">down</stem>
        <staff>2</staff>
      </note>
      <note default-x="96">
        <chord/>
        <pitch>
          <step>C</step>
          <octave>4</octave>
        </pitch>
        <duration>4</duration>
        <tie type="stop"></tie>
        <voice>3</voice>
        <type>quarter</type>
        <stem default-y="-42">down</stem>
        <staff>2</staff>
        <notations>
          <tied type="stop"></tied>
        </notations>
      </note>
      <note default-x="165">
        <pitch>
          <step>B</step>
          <alter>-1</alter>
          <octave>3</octave>
        </pitch>
        <duration>4</duration>
        <voice>3</voice>
        <type>quarter</type>
        <stem default-y="-30">down</stem>
        <staff>2</staff>
      </note>
      <note default-x="239">
        <pitch>
          <step>A</step>
          <octave>3</octave>
        </pitch>
        <duration>4</duration>
        <voice>3</voice>
        <type>quarter</type>
        <stem default-y="-35">down</stem>
        <staff>2</staff>
      </note>
      <note default-x="296">
        <pitch>
          <step>F</step>
          <octave>3</octave>
        </pitch>
        <duration>4</duration>
        <voice>3</voice>
        <type>quarter</type>
        <stem default-y="-46">down</stem>
        <staff>2</staff>
      </note>
    </measure>
    <!--=======================================================-->
    <measure number="12" width="321">
      <note default-x="29">
        <pitch>
          <step>C</step>
          <octave>5</octave>
        </pitch>
        <duration>2</duration>
        <voice>1</voice>
        <type>eighth</type>
        <stem default-y="29">up</stem>
        <staff>1</staff>
        <beam number="1">begin</beam>
      </note>
      <note default-x="62">
        <pitch>
          <step>F</step>
          <octave>5</octave>
        </pitch>
        <duration>2</duration>
        <voice>1</voice>
        <type>eighth</type>
        <stem default-y="30">up</stem>
        <staff>1</staff>
        <beam number="1">continue</beam>
      </note>
      <note default-x="112">
        <pitch>
          <step>E</step>
          <octave>5</octave>
        </pitch>
        <duration>2</duration>
        <voice>1</voice>
        <type>eighth</type>
        <accidental>natural</accidental>
        <stem default-y="30">up</stem>
        <staff>1</staff>
        <beam number="1">continue</beam>
      </note>
      <note default-x="146">
        <pitch>
          <step>D</step>
          <octave>5</octave>
        </pitch>
        <duration>2</duration>
        <voice>1</voice>
        <type>eighth</type>
        <stem default-y="31">up</stem>
        <staff>1</staff>
        <beam number="1">end</beam>
      </note>
      <note default-x="184">
        <pitch>
          <step>C</step>
          <octave>5</octave>
        </pitch>
        <duration>4</duration>
        <voice>1</voice>
        <type>quarter</type>
        <stem default-y="23">up</stem>
        <staff>1</staff>
      </note>
      <forward>
        <duration>4</duration>
        <voice>1</voice>
        <staff>1</staff>
      </forward>
      <note default-x="279">
        <pitch>
          <step>G</step>
          <octave>4</octave>
        </pitch>
        <duration>4</duration>
        <voice>1</voice>
        <type>quarter</type>
        <stem default-y="9">up</stem>
        <staff>1</staff>
      </note>
      <backup>
        <duration>20</duration>
      </backup>
      <note default-x="30">
        <pitch>
          <step>F</step>
          <octave>4</octave>
        </pitch>
        <duration>8</duration>
        <voice>2</voice>
        <type>half</type>
        <stem default-y="-65">down</stem>
        <staff>1</staff>
      </note>
      <note default-x="185">
        <pitch>
          <step>F</step>
          <octave>4</octave>
        </pitch>
        <duration>4</duration>
        <voice>2</voice>
        <type>quarter</type>
        <stem default-y="-65">down</stem>
        <staff>1</staff>
      </note>
      <backup>
        <duration>12</duration>
      </backup>
      <note default-x="30">
        <pitch>
          <step>A</step>
          <octave>3</octave>
        </pitch>
        <duration>4</duration>
        <voice>3</voice>
        <type>quarter</type>
        <stem default-y="-35">down</stem>
        <staff>2</staff>
      </note>
      <note default-x="112">
        <pitch>
          <step>B</step>
          <alter>-1</alter>
          <octave>3</octave>
        </pitch>
        <duration>4</duration>
        <voice>3</voice>
        <type>quarter</type>
        <stem default-y="-30">down</stem>
        <staff>2</staff>
      </note>
      <note default-x="185">
        <pitch>
          <step>C</step>
          <octave>3</octave>
        </pitch>
        <duration>4</duration>
        <tie type="start"></tie>
        <voice>3</voice>
        <type>quarter</type>
        <stem default-y="-59">down</stem>
        <staff>2</staff>
        <notations>
          <tied type="start" orientation="under"></tied>
        </notations>
      </note>
      <note default-x="186">
        <chord/>
        <pitch>
          <step>A</step>
          <octave>3</octave>
        </pitch>
        <duration>4</duration>
        <voice>3</voice>
        <type>quarter</type>
        <stem default-y="-59">down</stem>
        <staff>2</staff>
      </note>
      <note default-x="239">
        <pitch>
          <step>C</step>
          <octave>3</octave>
        </pitch>
        <duration>4</duration>
        <tie type="stop"></tie>
        <voice>3</voice>
        <type>quarter</type>
        <stem default-y="-58">down</stem>
        <staff>2</staff>
        <notations>
          <tied type="stop"></tied>
        </notations>
      </note>
      <note default-x="241">
        <chord/>
        <pitch>
          <step>B</step>
          <alter>-1</alter>
          <octave>3</octave>
        </pitch>
        <duration>4</duration>
        <voice>3</voice>
        <type>quarter</type>
        <stem default-y="-58">down</stem>
        <staff>2</staff>
      </note>
    </measure>
    <!--=======================================================-->
    <measure number="13" width="278">
      <direction placement="below">
        <direction-type>
          <wedge type="diminuendo" spread="12" default-x="-4" default-y="-82"></wedge>
        </direction-type>
        <staff>1</staff>
      </direction>
      <note default-x="33">
        <pitch>
          <step>A</step>
          <octave>4</octave>
        </pitch>
        <duration>4</duration>
        <voice>1</voice>
        <type>quarter</type>
        <stem default-y="11">up</stem>
        <staff>1</staff>
        <notations>
          <slur type="start" number="1" bezier-x="8" bezier-y="-7" default-x="15" default-y="-40" placement="below"></slur>
        </notations>
      </note>
      <direction>
        <direction-type>
          <wedge type="stop" spread="0" default-x="15"></wedge>
        </direction-type>
        <staff>1</staff>
      </direction>
      <note default-x="88">
        <pitch>
          <step>F</step>
          <octave>4</octave>
        </pitch>
        <duration>4</duration>
        <voice>1</voice>
        <type>quarter</type>
        <stem default-y="1">up</stem>
        <staff>1</staff>
        <notations>
          <slur type="stop" number="1" bezier-x="-10" bezier-y="-3" default-x="-10" default-y="-46"></slur>
        </notations>
      </note>
      <direction placement="below">
        <direction-type>
          <dynamics default-y="-77" relative-x="-14">
            <p/>
          </dynamics>
        </direction-type>
        <staff>1</staff>
        <sound dynamics="56"></sound>
      </direction>
      <note default-x="148">
        <pitch>
          <step>F</step>
          <octave>4</octave>
        </pitch>
        <duration>4</duration>
        <voice>1</voice>
        <type>quarter</type>
        <stem default-y="1">up</stem>
        <staff>1</staff>
      </note>
      <forward>
        <duration>4</duration>
        <voice>1</voice>
        <staff>1</staff>
      </forward>
      <note default-x="239">
        <pitch>
          <step>F</step>
          <octave>4</octave>
        </pitch>
        <duration>4</duration>
        <voice>1</voice>
        <type>quarter</type>
        <stem default-y="3">up</stem>
        <staff>1</staff>
      </note>
      <backup>
        <duration>20</duration>
      </backup>
      <note default-x="31">
        <pitch>
          <step>F</step>
          <octave>2</octave>
        </pitch>
        <duration>4</duration>
        <voice>2</voice>
        <type>quarter</type>
        <stem default-y="-9">up</stem>
        <staff>2</staff>
      </note>
      <note default-x="88">
        <pitch>
          <step>C</step>
          <octave>3</octave>
        </pitch>
        <duration>4</duration>
        <voice>2</voice>
        <type>quarter</type>
        <stem default-y="9">up</stem>
        <staff>2</staff>
      </note>
      <note default-x="148">
        <pitch>
          <step>A</step>
          <octave>3</octave>
        </pitch>
        <duration>4</duration>
        <voice>2</voice>
        <type>quarter</type>
        <stem default-y="-32">down</stem>
        <staff>2</staff>
      </note>
      <note default-x="203">
        <pitch>
          <step>E</step>
          <alter>-1</alter>
          <octave>4</octave>
        </pitch>
        <duration>4</duration>
        <voice>2</voice>
        <type>quarter</type>
        <stem default-y="-21">down</stem>
        <staff>2</staff>
      </note>
    </measure>
    <!--=======================================================-->
    <measure number="14" width="318">
      <print new-system="yes">
        <system-layout>
          <system-margins>
            <left-margin>31</left-margin>
            <right-margin>1</right-margin>
          </system-margins>
          <system-distance>128</system-distance>
        </system-layout>
        <staff-layout number="2">
          <staff-distance>88</staff-distance>
        </staff-layout>
      </print>
      <attributes>
        <staff-details print-object="yes"></staff-details>
      </attributes>
      <note default-x="98">
        <pitch>
          <step>F</step>
          <octave>4</octave>
        </pitch>
        <duration>2</duration>
        <voice>1</voice>
        <type>eighth</type>
        <stem default-y="2">up</stem>
        <staff>1</staff>
        <beam number="1">begin</beam>
        <notations>
          <slur type="start" number="1" bezier-x="8" bezier-y="10" default-x="8" default-y="10" placement="above"></slur>
        </notations>
      </note>
      <note default-x="127">
        <pitch>
          <step>B</step>
          <alter>-1</alter>
          <octave>4</octave>
        </pitch>
        <duration>2</duration>
        <voice>1</voice>
        <type>eighth</type>
        <stem default-y="14">up</stem>
        <staff>1</staff>
        <beam number="1">end</beam>
        <notations>
          <slur type="stop" number="1" bezier-x="-11" bezier-y="5" default-x="11" default-y="18"></slur>
        </notations>
      </note>
      <note default-x="158">
        <pitch>
          <step>B</step>
          <alter>-1</alter>
          <octave>4</octave>
        </pitch>
        <duration>2</duration>
        <voice>1</voice>
        <type>eighth</type>
        <stem default-y="15">up</stem>
        <staff>1</staff>
        <beam number="1">begin</beam>
        <notations>
          <slur type="start" number="1" bezier-x="8" bezier-y="7" default-x="11" default-y="27" placement="above"></slur>
        </notations>
      </note>
      <note default-x="184">
        <pitch>
          <step>C</step>
          <octave>5</octave>
        </pitch>
        <duration>2</duration>
        <voice>1</voice>
        <type>eighth</type>
        <stem default-y="23">up</stem>
        <staff>1</staff>
        <beam number="1">end</beam>
        <notations>
          <slur type="stop" number="1" bezier-x="-9" bezier-y="6" default-x="13" default-y="28"></slur>
        </notations>
      </note>
      <note default-x="216">
        <pitch>
          <step>D</step>
          <octave>5</octave>
        </pitch>
        <duration>6</duration>
        <voice>1</voice>
        <type>quarter</type>
        <dot/>
        <stem default-y="22">up</stem>
        <staff>1</staff>
      </note>
      <note default-x="285">
        <pitch>
          <step>B</step>
          <alter>-1</alter>
          <octave>4</octave>
        </pitch>
        <duration>4</duration>
        <tie type="start"></tie>
        <voice>1</voice>
        <type>quarter</type>
        <stem default-y="19">up</stem>
        <staff>1</staff>
        <notations>
          <tied type="start" orientation="under"></tied>
        </notations>
      </note>
      <backup>
        <duration>18</duration>
      </backup>
      <direction placement="below">
        <direction-type>
          <dynamics default-y="-91" relative-x="-29">
            <p/>
          </dynamics>
        </direction-type>
        <staff>1</staff>
        <sound dynamics="56"></sound>
      </direction>
      <direction placement="below">
        <direction-type>
          <wedge type="crescendo" spread="0" default-x="19" default-y="-74"></wedge>
        </direction-type>
        <staff>1</staff>
      </direction>
      <note default-x="98">
        <pitch>
          <step>D</step>
          <octave>4</octave>
        </pitch>
        <duration>8</duration>
        <voice>2</voice>
        <type>half</type>
        <stem default-y="-76">down</stem>
        <staff>1</staff>
      </note>
      <direction>
        <direction-type>
          <wedge type="stop" spread="9" default-x="6"></wedge>
        </direction-type>
        <staff>1</staff>
      </direction>
      <note default-x="216">
        <pitch>
          <step>B</step>
          <alter>-1</alter>
          <octave>4</octave>
        </pitch>
        <duration>6</duration>
        <voice>2</voice>
        <type>quarter</type>
        <dot/>
        <stem default-y="-52">down</stem>
        <staff>1</staff>
      </note>
      <backup>
        <duration>14</duration>
      </backup>
      <note default-x="95">
        <pitch>
          <step>B</step>
          <alter>-1</alter>
          <octave>2</octave>
        </pitch>
        <duration>4</duration>
        <voice>3</voice>
        <type>quarter</type>
        <stem default-y="5">up</stem>
        <staff>2</staff>
      </note>
      <note default-x="155">
        <pitch>
          <step>F</step>
          <octave>3</octave>
        </pitch>
        <duration>4</duration>
        <voice>3</voice>
        <type>quarter</type>
        <stem default-y="-43">down</stem>
        <staff>2</staff>
      </note>
      <note default-x="214">
        <pitch>
          <step>F</step>
          <octave>4</octave>
        </pitch>
        <duration>4</duration>
        <voice>3</voice>
        <type>quarter</type>
        <stem default-y="-20">down</stem>
        <staff>2</staff>
      </note>
      <note default-x="257">
        <pitch>
          <step>F</step>
          <octave>3</octave>
        </pitch>
        <duration>4</duration>
        <voice>3</voice>
        <type>quarter</type>
        <stem default-y="-43">down</stem>
        <staff>2</staff>
      </note>
    </measure>
    <!--=======================================================-->
    <measure number="15" width="249">
      <note default-x="31">
        <pitch>
          <step>D</step>
          <octave>5</octave>
        </pitch>
        <duration>2</duration>
        <voice>2</voice>
        <type>eighth</type>
        <stem default-y="24">up</stem>
        <staff>1</staff>
        <beam number="1">begin</beam>
      </note>
      <note default-x="58">
        <pitch>
          <step>F</step>
          <octave>5</octave>
        </pitch>
        <duration>2</duration>
        <voice>2</voice>
        <type>eighth</type>
        <stem default-y="33">up</stem>
        <staff>1</staff>
        <beam number="1">end</beam>
      </note>
      <note default-x="86">
        <pitch>
          <step>E</step>
          <alter>-1</alter>
          <octave>5</octave>
        </pitch>
        <duration>2</duration>
        <voice>2</voice>
        <type>eighth</type>
        <stem default-y="32">up</stem>
        <staff>1</staff>
        <beam number="1">begin</beam>
      </note>
      <note default-x="116">
        <pitch>
          <step>D</step>
          <octave>5</octave>
        </pitch>
        <duration>2</duration>
        <voice>2</voice>
        <type>eighth</type>
        <stem default-y="25">up</stem>
        <staff>1</staff>
        <beam number="1">end</beam>
      </note>
      <note default-x="144">
        <pitch>
          <step>A</step>
          <octave>4</octave>
        </pitch>
        <duration>4</duration>
        <voice>2</voice>
        <type>quarter</type>
        <stem default-y="18">up</stem>
        <staff>1</staff>
      </note>
      <note default-x="142">
        <chord/>
        <pitch>
          <step>C</step>
          <octave>5</octave>
        </pitch>
        <duration>4</duration>
        <voice>2</voice>
        <type>quarter</type>
        <stem default-y="18">up</stem>
        <staff>1</staff>
      </note>
      <backup>
        <duration>12</duration>
      </backup>
      <direction placement="below">
        <direction-type>
          <wedge type="diminuendo" spread="12" default-x="4" default-y="-78"></wedge>
        </direction-type>
        <staff>1</staff>
      </direction>
      <note default-x="31">
        <pitch>
          <step>B</step>
          <alter>-1</alter>
          <octave>4</octave>
        </pitch>
        <duration>4</duration>
        <tie type="stop"></tie>
        <voice>1</voice>
        <type>quarter</type>
        <stem default-y="-54">down</stem>
        <staff>1</staff>
        <notations>
          <tied type="stop"></tied>
        </notations>
      </note>
      <note default-x="86">
        <pitch>
          <step>C</step>
          <octave>5</octave>
        </pitch>
        <duration>2</duration>
        <voice>1</voice>
        <type>eighth</type>
        <stem default-y="-49">down</stem>
        <staff>1</staff>
        <beam number="1">begin</beam>
      </note>
      <note default-x="116">
        <pitch>
          <step>B</step>
          <alter>-1</alter>
          <octave>4</octave>
        </pitch>
        <duration>2</duration>
        <voice>1</voice>
        <type>eighth</type>
        <stem default-y="-59">down</stem>
        <staff>1</staff>
        <beam number="1">end</beam>
        <notations>
          <slur type="start" number="1" bezier-x="9" bezier-y="-2" default-x="11" default-y="-75" placement="below"></slur>
        </notations>
      </note>
      <direction>
        <direction-type>
          <wedge type="stop" spread="0" default-x="12"></wedge>
        </direction-type>
        <staff>1</staff>
      </direction>
      <note default-x="143">
        <pitch>
          <step>E</step>
          <alter>-1</alter>
          <octave>4</octave>
        </pitch>
        <duration>4</duration>
        <voice>1</voice>
        <type>quarter</type>
        <stem default-y="-70">down</stem>
        <staff>1</staff>
        <notations>
          <slur type="stop" number="1" bezier-x="-9" bezier-y="-1" default-x="12" default-y="-77"></slur>
        </notations>
      </note>
      <note default-x="188">
        <pitch>
          <step>C</step>
          <octave>4</octave>
        </pitch>
        <duration>4</duration>
        <voice>1</voice>
        <type>quarter</type>
        <stem default-y="-76">down</stem>
        <staff>1</staff>
      </note>
      <note default-x="189">
        <chord/>
        <pitch>
          <step>F</step>
          <octave>4</octave>
        </pitch>
        <duration>4</duration>
        <voice>1</voice>
        <type>quarter</type>
        <stem default-y="-76">down</stem>
        <staff>1</staff>
      </note>
      <note default-x="212">
        <pitch>
          <step>B</step>
          <alter>-1</alter>
          <octave>4</octave>
        </pitch>
        <duration>4</duration>
        <voice>1</voice>
        <type>quarter</type>
        <stem default-y="19">up</stem>
        <staff>1</staff>
      </note>
      <backup>
        <duration>20</duration>
      </backup>
      <note default-x="31">
        <pitch>
          <step>B</step>
          <alter>-1</alter>
          <octave>2</octave>
        </pitch>
        <duration>4</duration>
        <voice>3</voice>
        <type>quarter</type>
        <stem default-y="7">up</stem>
        <staff>2</staff>
      </note>
      <note default-x="86">
        <pitch>
          <step>F</step>
          <octave>4</octave>
        </pitch>
        <duration>4</duration>
        <voice>3</voice>
        <type>quarter</type>
        <stem default-y="-20">down</stem>
        <staff>2</staff>
      </note>
      <note default-x="143">
        <pitch>
          <step>F</step>
          <octave>2</octave>
        </pitch>
        <duration>4</duration>
        <voice>3</voice>
        <type>quarter</type>
        <stem default-y="-8">up</stem>
        <staff>2</staff>
      </note>
      <note default-x="186">
        <pitch>
          <step>F</step>
          <octave>3</octave>
        </pitch>
        <duration>4</duration>
        <voice>3</voice>
        <type>quarter</type>
        <stem default-y="-45">down</stem>
        <staff>2</staff>
      </note>
    </measure>
    <!--=======================================================-->
    <measure number="16" width="244">
      <direction placement="below">
        <direction-type>
          <dynamics default-y="-78" relative-x="-18">
            <p/>
          </dynamics>
        </direction-type>
        <staff>1</staff>
        <sound dynamics="56"></sound>
      </direction>
      <note default-x="27">
        <pitch>
          <step>A</step>
          <octave>4</octave>
        </pitch>
        <duration>2</duration>
        <voice>1</voice>
        <type>eighth</type>
        <stem default-y="10">up</stem>
        <staff>1</staff>
        <beam number="1">begin</beam>
      </note>
      <note default-x="55">
        <pitch>
          <step>F</step>
          <octave>4</octave>
        </pitch>
        <duration>2</duration>
        <voice>1</voice>
        <type>eighth</type>
        <stem default-y="12">up</stem>
        <staff>1</staff>
        <beam number="1">continue</beam>
        <notations>
          <slur type="start" number="1" bezier-x="6" bezier-y="-7" default-x="3" default-y="-40" placement="below"></slur>
        </notations>
      </note>
      <note default-x="84">
        <pitch>
          <step>A</step>
          <octave>4</octave>
        </pitch>
        <duration>2</duration>
        <voice>1</voice>
        <type>eighth</type>
        <stem default-y="14">up</stem>
        <staff>1</staff>
        <beam number="1">continue</beam>
      </note>
      <note default-x="114">
        <pitch>
          <step>B</step>
          <alter>-1</alter>
          <octave>4</octave>
        </pitch>
        <duration>2</duration>
        <voice>1</voice>
        <type>eighth</type>
        <stem default-y="17">up</stem>
        <staff>1</staff>
        <beam number="1">end</beam>
      </note>
      <forward>
        <duration>4</duration>
        <voice>1</voice>
        <staff>1</staff>
      </forward>
      <direction placement="below">
        <direction-type>
          <wedge type="diminuendo" spread="9" default-x="29" default-y="-73"></wedge>
        </direction-type>
        <staff>1</staff>
      </direction>
      <direction>
        <direction-type>
          <wedge type="stop" spread="0" default-x="88"></wedge>
        </direction-type>
        <staff>1</staff>
      </direction>
      <note default-x="142">
        <pitch>
          <step>C</step>
          <octave>5</octave>
        </pitch>
        <duration>4</duration>
        <voice>1</voice>
        <type>quarter</type>
        <stem default-y="20">up</stem>
        <staff>1</staff>
        <notations>
          <slur type="stop" number="2" bezier-x="-12" bezier-y="-11" default-x="-5" default-y="-42"></slur>
        </notations>
      </note>
      <backup>
        <duration>16</duration>
      </backup>
      <forward>
        <duration>4</duration>
        <voice>2</voice>
        <staff>1</staff>
      </forward>
      <direction placement="below">
        <direction-type>
          <wedge type="crescendo" spread="0" default-x="-39" default-y="-78"></wedge>
        </direction-type>
        <staff>1</staff>
      </direction>
      <direction>
        <direction-type>
          <wedge type="stop" spread="8" default-x="28"></wedge>
        </direction-type>
        <staff>1</staff>
      </direction>
      <note default-x="85">
        <pitch>
          <step>F</step>
          <octave>4</octave>
        </pitch>
        <duration>4</duration>
        <voice>2</voice>
        <type>quarter</type>
        <stem default-y="-62">down</stem>
        <staff>1</staff>
        <notations>
          <slur type="start" number="2" bezier-x="12" bezier-y="-11" default-x="9" default-y="-43" placement="below"></slur>
          <slur type="stop" number="1" bezier-x="-8" bezier-y="-5" default-x="-3" default-y="-44"></slur>
        </notations>
      </note>
      <backup>
        <duration>8</duration>
      </backup>
      <note default-x="27">
        <pitch>
          <step>C</step>
          <octave>4</octave>
        </pitch>
        <duration>4</duration>
        <voice>3</voice>
        <type>quarter</type>
        <stem default-y="46">up</stem>
        <staff>2</staff>
      </note>
      <note default-x="26">
        <chord/>
        <pitch>
          <step>E</step>
          <alter>-1</alter>
          <octave>4</octave>
        </pitch>
        <duration>4</duration>
        <voice>3</voice>
        <type>quarter</type>
        <stem default-y="46">up</stem>
        <staff>2</staff>
      </note>
      <forward>
        <duration>8</duration>
        <voice>3</voice>
        <staff>2</staff>
      </forward>
      <note default-x="141">
        <pitch>
          <step>F</step>
          <octave>3</octave>
        </pitch>
        <duration>4</duration>
        <voice>3</voice>
        <type>quarter</type>
        <stem default-y="-44">down</stem>
        <staff>2</staff>
      </note>
      <note default-x="181">
        <pitch>
          <step>F</step>
          <octave>3</octave>
        </pitch>
        <duration>4</duration>
        <voice>3</voice>
        <type>quarter</type>
        <stem default-y="-44">down</stem>
        <staff>2</staff>
      </note>
      <backup>
        <duration>20</duration>
      </backup>
      <note default-x="27">
        <pitch>
          <step>F</step>
          <octave>3</octave>
        </pitch>
        <duration>8</duration>
        <voice>4</voice>
        <type>half</type>
        <stem default-y="-44">down</stem>
        <staff>2</staff>
        <notations>
          <slur type="start" number="1" bezier-x="23" bezier-y="-13" default-x="15" default-y="-14" placement="below"></slur>
        </notations>
      </note>
      <note default-x="113">
        <pitch>
          <step>D</step>
          <octave>4</octave>
        </pitch>
        <duration>4</duration>
        <voice>4</voice>
        <type>quarter</type>
        <stem default-y="48">up</stem>
        <staff>2</staff>
        <notations>
          <slur type="stop" number="1" bezier-x="-25" bezier-y="-7" default-x="11" default-y="-21"></slur>
        </notations>
      </note>
      <note default-x="141">
        <pitch>
          <step>E</step>
          <alter>-1</alter>
          <octave>4</octave>
        </pitch>
        <duration>8</duration>
        <voice>4</voice>
        <type>half</type>
        <stem default-y="52">up</stem>
        <staff>2</staff>
      </note>
    </measure>
    <!--=======================================================-->
    <measure number="17" width="174">
      <note default-x="29">
        <pitch>
          <step>B</step>
          <alter>-1</alter>
          <octave>4</octave>
        </pitch>
        <duration>4</duration>
        <voice>1</voice>
        <type>quarter</type>
        <stem default-y="16">up</stem>
        <staff>1</staff>
      </note>
      <note default-x="76">
        <pitch>
          <step>B</step>
          <alter>-1</alter>
          <octave>4</octave>
        </pitch>
        <duration>4</duration>
        <voice>1</voice>
        <type>quarter</type>
        <stem default-y="13">up</stem>
        <staff>1</staff>
      </note>
      <note default-x="122">
        <pitch>
          <step>B</step>
          <alter>-1</alter>
          <octave>4</octave>
        </pitch>
        <duration>4</duration>
        <voice>1</voice>
        <type>quarter</type>
        <stem default-y="17">up</stem>
        <staff>1</staff>
      </note>
      <backup>
        <duration>12</duration>
      </backup>
      <direction placement="below">
        <direction-type>
          <dynamics default-y="-90" relative-x="-7">
            <p/>
          </dynamics>
        </direction-type>
        <staff>1</staff>
        <sound dynamics="56"></sound>
      </direction>
      <note default-x="29">
        <pitch>
          <step>F</step>
          <octave>4</octave>
        </pitch>
        <duration>8</duration>
        <voice>2</voice>
        <type>half</type>
        <stem default-y="-60">down</stem>
        <staff>1</staff>
      </note>
      <note default-x="120">
        <pitch>
          <step>D</step>
          <octave>4</octave>
        </pitch>
        <duration>4</duration>
        <voice>2</voice>
        <type>quarter</type>
        <stem default-y="-71">down</stem>
        <staff>1</staff>
      </note>
      <backup>
        <duration>12</duration>
      </backup>
      <note default-x="29">
        <pitch>
          <step>F</step>
          <octave>3</octave>
        </pitch>
        <duration>4</duration>
        <voice>3</voice>
        <type>quarter</type>
        <stem default-y="-43">down</stem>
        <staff>2</staff>
      </note>
      <note default-x="28">
        <chord/>
        <pitch>
          <step>D</step>
          <octave>4</octave>
        </pitch>
        <duration>4</duration>
        <voice>3</voice>
        <type>quarter</type>
        <stem default-y="-43">down</stem>
        <staff>2</staff>
      </note>
      <note default-x="76">
        <pitch>
          <step>F</step>
          <octave>3</octave>
        </pitch>
        <duration>4</duration>
        <voice>3</voice>
        <type>quarter</type>
        <stem default-y="-43">down</stem>
        <staff>2</staff>
      </note>
      <note default-x="120">
        <pitch>
          <step>B</step>
          <alter>-1</alter>
          <octave>2</octave>
        </pitch>
        <duration>4</duration>
        <voice>3</voice>
        <type>quarter</type>
        <stem default-y="4">up</stem>
        <staff>2</staff>
      </note>
      <barline location="right">
        <bar-style>light-heavy</bar-style>
      </barline>
    </measure>
  </part>
</score-partwise>